<mxfile host="app.diagrams.net" modified="2021-11-26T06:38:50.936Z" agent="5.0 (Windows NT 10.0; Win64; x64) AppleWebKit/537.36 (KHTML, like Gecko) Chrome/96.0.4664.45 Safari/537.36" etag="vhNPF8j-3iIw5gxS0xls" version="15.8.6" type="github">
  <diagram id="esD_m7q7L8_-v52gQZZj" name="Page-1">
    <mxGraphModel dx="1248" dy="654" grid="1" gridSize="10" guides="1" tooltips="1" connect="1" arrows="1" fold="1" page="1" pageScale="1" pageWidth="827" pageHeight="1169" math="1" shadow="0">
      <root>
        <mxCell id="0" />
        <mxCell id="1" parent="0" />
        <mxCell id="2vLimYcvGv_lNkFftwUf-1" value="" style="ellipse;whiteSpace=wrap;html=1;aspect=fixed;fillColor=#fff2cc;strokeColor=#d6b656;" vertex="1" parent="1">
          <mxGeometry x="781" y="320" width="60" height="60" as="geometry" />
        </mxCell>
        <mxCell id="2vLimYcvGv_lNkFftwUf-2" value="" style="ellipse;whiteSpace=wrap;html=1;aspect=fixed;fillColor=#fff2cc;strokeColor=#d6b656;" vertex="1" parent="1">
          <mxGeometry x="781" y="410" width="60" height="60" as="geometry" />
        </mxCell>
        <mxCell id="2vLimYcvGv_lNkFftwUf-3" value="" style="ellipse;whiteSpace=wrap;html=1;aspect=fixed;fillColor=#fff2cc;strokeColor=#d6b656;" vertex="1" parent="1">
          <mxGeometry x="781" y="500" width="60" height="60" as="geometry" />
        </mxCell>
        <mxCell id="2vLimYcvGv_lNkFftwUf-4" value="" style="ellipse;whiteSpace=wrap;html=1;aspect=fixed;fillColor=#fff2cc;strokeColor=#d6b656;" vertex="1" parent="1">
          <mxGeometry x="781" y="590" width="60" height="60" as="geometry" />
        </mxCell>
        <mxCell id="2vLimYcvGv_lNkFftwUf-5" value="" style="ellipse;whiteSpace=wrap;html=1;aspect=fixed;fillColor=#fff2cc;strokeColor=#d6b656;" vertex="1" parent="1">
          <mxGeometry x="781" y="690" width="60" height="60" as="geometry" />
        </mxCell>
        <mxCell id="2vLimYcvGv_lNkFftwUf-6" value="" style="endArrow=classic;html=1;rounded=0;" edge="1" parent="1">
          <mxGeometry width="50" height="50" relative="1" as="geometry">
            <mxPoint x="851" y="350" as="sourcePoint" />
            <mxPoint x="941" y="350" as="targetPoint" />
          </mxGeometry>
        </mxCell>
        <mxCell id="2vLimYcvGv_lNkFftwUf-7" value="" style="endArrow=classic;html=1;rounded=0;" edge="1" parent="1">
          <mxGeometry width="50" height="50" relative="1" as="geometry">
            <mxPoint x="851" y="439.5" as="sourcePoint" />
            <mxPoint x="941" y="439.5" as="targetPoint" />
          </mxGeometry>
        </mxCell>
        <mxCell id="2vLimYcvGv_lNkFftwUf-8" value="" style="endArrow=classic;html=1;rounded=0;" edge="1" parent="1">
          <mxGeometry width="50" height="50" relative="1" as="geometry">
            <mxPoint x="851" y="530" as="sourcePoint" />
            <mxPoint x="941" y="530" as="targetPoint" />
          </mxGeometry>
        </mxCell>
        <mxCell id="2vLimYcvGv_lNkFftwUf-9" value="" style="endArrow=classic;html=1;rounded=0;" edge="1" parent="1">
          <mxGeometry width="50" height="50" relative="1" as="geometry">
            <mxPoint x="851" y="620" as="sourcePoint" />
            <mxPoint x="941" y="620" as="targetPoint" />
          </mxGeometry>
        </mxCell>
        <mxCell id="2vLimYcvGv_lNkFftwUf-10" value="" style="endArrow=classic;html=1;rounded=0;" edge="1" parent="1">
          <mxGeometry width="50" height="50" relative="1" as="geometry">
            <mxPoint x="851" y="720" as="sourcePoint" />
            <mxPoint x="941" y="720" as="targetPoint" />
          </mxGeometry>
        </mxCell>
        <mxCell id="2vLimYcvGv_lNkFftwUf-11" value="" style="ellipse;whiteSpace=wrap;html=1;aspect=fixed;fillColor=#fff2cc;strokeColor=#d6b656;" vertex="1" parent="1">
          <mxGeometry x="641" y="230" width="60" height="60" as="geometry" />
        </mxCell>
        <mxCell id="2vLimYcvGv_lNkFftwUf-12" value="" style="endArrow=classic;html=1;rounded=0;entryX=0;entryY=0.5;entryDx=0;entryDy=0;" edge="1" parent="1" target="2vLimYcvGv_lNkFftwUf-1">
          <mxGeometry width="50" height="50" relative="1" as="geometry">
            <mxPoint x="701" y="270" as="sourcePoint" />
            <mxPoint x="751" y="220" as="targetPoint" />
          </mxGeometry>
        </mxCell>
        <mxCell id="2vLimYcvGv_lNkFftwUf-13" value="" style="endArrow=classic;html=1;rounded=0;" edge="1" parent="1">
          <mxGeometry width="50" height="50" relative="1" as="geometry">
            <mxPoint x="701" y="270" as="sourcePoint" />
            <mxPoint x="781" y="440" as="targetPoint" />
          </mxGeometry>
        </mxCell>
        <mxCell id="2vLimYcvGv_lNkFftwUf-14" value="" style="endArrow=classic;html=1;rounded=0;" edge="1" parent="1">
          <mxGeometry width="50" height="50" relative="1" as="geometry">
            <mxPoint x="701" y="270" as="sourcePoint" />
            <mxPoint x="781" y="530" as="targetPoint" />
          </mxGeometry>
        </mxCell>
        <mxCell id="2vLimYcvGv_lNkFftwUf-15" value="" style="endArrow=classic;html=1;rounded=0;entryX=0;entryY=0.5;entryDx=0;entryDy=0;" edge="1" parent="1" target="2vLimYcvGv_lNkFftwUf-4">
          <mxGeometry width="50" height="50" relative="1" as="geometry">
            <mxPoint x="701" y="270" as="sourcePoint" />
            <mxPoint x="807.4000000000001" y="371.6" as="targetPoint" />
          </mxGeometry>
        </mxCell>
        <mxCell id="2vLimYcvGv_lNkFftwUf-16" value="" style="endArrow=classic;html=1;rounded=0;" edge="1" parent="1">
          <mxGeometry width="50" height="50" relative="1" as="geometry">
            <mxPoint x="701" y="270" as="sourcePoint" />
            <mxPoint x="781" y="720" as="targetPoint" />
          </mxGeometry>
        </mxCell>
        <mxCell id="2vLimYcvGv_lNkFftwUf-17" value="" style="ellipse;whiteSpace=wrap;html=1;aspect=fixed;fillColor=#fff2cc;strokeColor=#d6b656;" vertex="1" parent="1">
          <mxGeometry x="639.8" y="350" width="60" height="60" as="geometry" />
        </mxCell>
        <mxCell id="2vLimYcvGv_lNkFftwUf-18" value="" style="endArrow=classic;html=1;rounded=0;" edge="1" parent="1">
          <mxGeometry width="50" height="50" relative="1" as="geometry">
            <mxPoint x="699.8" y="390" as="sourcePoint" />
            <mxPoint x="780" y="350" as="targetPoint" />
          </mxGeometry>
        </mxCell>
        <mxCell id="2vLimYcvGv_lNkFftwUf-19" value="" style="endArrow=classic;html=1;rounded=0;" edge="1" parent="1">
          <mxGeometry width="50" height="50" relative="1" as="geometry">
            <mxPoint x="699.8" y="390" as="sourcePoint" />
            <mxPoint x="780" y="440" as="targetPoint" />
          </mxGeometry>
        </mxCell>
        <mxCell id="2vLimYcvGv_lNkFftwUf-20" value="" style="endArrow=classic;html=1;rounded=0;entryX=0;entryY=0.5;entryDx=0;entryDy=0;" edge="1" parent="1" target="2vLimYcvGv_lNkFftwUf-3">
          <mxGeometry width="50" height="50" relative="1" as="geometry">
            <mxPoint x="699.8" y="390" as="sourcePoint" />
            <mxPoint x="779.8" y="650" as="targetPoint" />
          </mxGeometry>
        </mxCell>
        <mxCell id="2vLimYcvGv_lNkFftwUf-21" value="" style="endArrow=classic;html=1;rounded=0;entryX=0;entryY=0.5;entryDx=0;entryDy=0;" edge="1" parent="1" target="2vLimYcvGv_lNkFftwUf-4">
          <mxGeometry width="50" height="50" relative="1" as="geometry">
            <mxPoint x="699.8" y="390" as="sourcePoint" />
            <mxPoint x="779.8" y="740" as="targetPoint" />
          </mxGeometry>
        </mxCell>
        <mxCell id="2vLimYcvGv_lNkFftwUf-22" value="" style="endArrow=classic;html=1;rounded=0;entryX=0;entryY=0.5;entryDx=0;entryDy=0;" edge="1" parent="1" target="2vLimYcvGv_lNkFftwUf-5">
          <mxGeometry width="50" height="50" relative="1" as="geometry">
            <mxPoint x="699.8" y="390" as="sourcePoint" />
            <mxPoint x="781" y="800" as="targetPoint" />
          </mxGeometry>
        </mxCell>
        <mxCell id="2vLimYcvGv_lNkFftwUf-23" value="" style="ellipse;whiteSpace=wrap;html=1;aspect=fixed;fillColor=#fff2cc;strokeColor=#d6b656;" vertex="1" parent="1">
          <mxGeometry x="641" y="470" width="60" height="60" as="geometry" />
        </mxCell>
        <mxCell id="2vLimYcvGv_lNkFftwUf-24" value="" style="endArrow=classic;html=1;rounded=0;entryX=0;entryY=0.5;entryDx=0;entryDy=0;" edge="1" parent="1" target="2vLimYcvGv_lNkFftwUf-1">
          <mxGeometry width="50" height="50" relative="1" as="geometry">
            <mxPoint x="701" y="510" as="sourcePoint" />
            <mxPoint x="781" y="590" as="targetPoint" />
          </mxGeometry>
        </mxCell>
        <mxCell id="2vLimYcvGv_lNkFftwUf-25" value="" style="endArrow=classic;html=1;rounded=0;entryX=0;entryY=0.5;entryDx=0;entryDy=0;" edge="1" parent="1" target="2vLimYcvGv_lNkFftwUf-2">
          <mxGeometry width="50" height="50" relative="1" as="geometry">
            <mxPoint x="701" y="510" as="sourcePoint" />
            <mxPoint x="781" y="680" as="targetPoint" />
          </mxGeometry>
        </mxCell>
        <mxCell id="2vLimYcvGv_lNkFftwUf-26" value="" style="endArrow=classic;html=1;rounded=0;entryX=0;entryY=0.5;entryDx=0;entryDy=0;" edge="1" parent="1" target="2vLimYcvGv_lNkFftwUf-3">
          <mxGeometry width="50" height="50" relative="1" as="geometry">
            <mxPoint x="701" y="510" as="sourcePoint" />
            <mxPoint x="781" y="770" as="targetPoint" />
          </mxGeometry>
        </mxCell>
        <mxCell id="2vLimYcvGv_lNkFftwUf-27" value="" style="endArrow=classic;html=1;rounded=0;" edge="1" parent="1">
          <mxGeometry width="50" height="50" relative="1" as="geometry">
            <mxPoint x="701" y="510" as="sourcePoint" />
            <mxPoint x="781" y="620" as="targetPoint" />
          </mxGeometry>
        </mxCell>
        <mxCell id="2vLimYcvGv_lNkFftwUf-28" value="" style="endArrow=classic;html=1;rounded=0;" edge="1" parent="1">
          <mxGeometry width="50" height="50" relative="1" as="geometry">
            <mxPoint x="701" y="510" as="sourcePoint" />
            <mxPoint x="781" y="720" as="targetPoint" />
          </mxGeometry>
        </mxCell>
        <mxCell id="2vLimYcvGv_lNkFftwUf-29" value="$$Softmax$$" style="text;html=1;strokeColor=none;fillColor=none;align=center;verticalAlign=middle;whiteSpace=wrap;rounded=0;" vertex="1" parent="1">
          <mxGeometry x="851" y="310" width="60" height="30" as="geometry" />
        </mxCell>
        <mxCell id="2vLimYcvGv_lNkFftwUf-30" value="$$Softmax$$" style="text;html=1;strokeColor=none;fillColor=none;align=center;verticalAlign=middle;whiteSpace=wrap;rounded=0;" vertex="1" parent="1">
          <mxGeometry x="851" y="410" width="60" height="30" as="geometry" />
        </mxCell>
        <mxCell id="2vLimYcvGv_lNkFftwUf-31" value="$$Softmax$$" style="text;html=1;strokeColor=none;fillColor=none;align=center;verticalAlign=middle;whiteSpace=wrap;rounded=0;" vertex="1" parent="1">
          <mxGeometry x="851" y="500" width="60" height="30" as="geometry" />
        </mxCell>
        <mxCell id="2vLimYcvGv_lNkFftwUf-32" value="$$Softmax$$" style="text;html=1;strokeColor=none;fillColor=none;align=center;verticalAlign=middle;whiteSpace=wrap;rounded=0;" vertex="1" parent="1">
          <mxGeometry x="851" y="580" width="60" height="30" as="geometry" />
        </mxCell>
        <mxCell id="2vLimYcvGv_lNkFftwUf-33" value="$$Softmax$$" style="text;html=1;strokeColor=none;fillColor=none;align=center;verticalAlign=middle;whiteSpace=wrap;rounded=0;" vertex="1" parent="1">
          <mxGeometry x="851" y="680" width="60" height="30" as="geometry" />
        </mxCell>
        <mxCell id="2vLimYcvGv_lNkFftwUf-34" value="$$P(class 1)$$" style="text;html=1;strokeColor=none;fillColor=none;align=center;verticalAlign=middle;whiteSpace=wrap;rounded=0;" vertex="1" parent="1">
          <mxGeometry x="971" y="330" width="60" height="30" as="geometry" />
        </mxCell>
        <mxCell id="2vLimYcvGv_lNkFftwUf-35" value="$$P(class 2)$$" style="text;html=1;strokeColor=none;fillColor=none;align=center;verticalAlign=middle;whiteSpace=wrap;rounded=0;" vertex="1" parent="1">
          <mxGeometry x="971" y="425" width="60" height="30" as="geometry" />
        </mxCell>
        <mxCell id="2vLimYcvGv_lNkFftwUf-36" value="$$P(class 3)$$" style="text;html=1;strokeColor=none;fillColor=none;align=center;verticalAlign=middle;whiteSpace=wrap;rounded=0;" vertex="1" parent="1">
          <mxGeometry x="971" y="515" width="60" height="30" as="geometry" />
        </mxCell>
        <mxCell id="2vLimYcvGv_lNkFftwUf-37" value="$$P(class 4)$$" style="text;html=1;strokeColor=none;fillColor=none;align=center;verticalAlign=middle;whiteSpace=wrap;rounded=0;" vertex="1" parent="1">
          <mxGeometry x="971" y="605" width="60" height="30" as="geometry" />
        </mxCell>
        <mxCell id="2vLimYcvGv_lNkFftwUf-38" value="$$P(class 5)$$" style="text;html=1;strokeColor=none;fillColor=none;align=center;verticalAlign=middle;whiteSpace=wrap;rounded=0;" vertex="1" parent="1">
          <mxGeometry x="971" y="705" width="60" height="30" as="geometry" />
        </mxCell>
        <mxCell id="2vLimYcvGv_lNkFftwUf-39" value="" style="ellipse;whiteSpace=wrap;html=1;aspect=fixed;fillColor=#fff2cc;strokeColor=#d6b656;" vertex="1" parent="1">
          <mxGeometry x="639.8" y="630" width="60" height="60" as="geometry" />
        </mxCell>
        <mxCell id="2vLimYcvGv_lNkFftwUf-40" value="" style="ellipse;whiteSpace=wrap;html=1;aspect=fixed;fillColor=#fff2cc;strokeColor=#d6b656;" vertex="1" parent="1">
          <mxGeometry x="639.8" y="760" width="60" height="60" as="geometry" />
        </mxCell>
        <mxCell id="2vLimYcvGv_lNkFftwUf-41" value="" style="endArrow=classic;html=1;rounded=0;entryX=0;entryY=0.5;entryDx=0;entryDy=0;exitX=1;exitY=0.5;exitDx=0;exitDy=0;" edge="1" parent="1" source="2vLimYcvGv_lNkFftwUf-39" target="2vLimYcvGv_lNkFftwUf-1">
          <mxGeometry width="50" height="50" relative="1" as="geometry">
            <mxPoint x="711" y="520" as="sourcePoint" />
            <mxPoint x="791" y="360" as="targetPoint" />
          </mxGeometry>
        </mxCell>
        <mxCell id="2vLimYcvGv_lNkFftwUf-42" value="" style="endArrow=classic;html=1;rounded=0;entryX=0;entryY=0.5;entryDx=0;entryDy=0;" edge="1" parent="1" target="2vLimYcvGv_lNkFftwUf-2">
          <mxGeometry width="50" height="50" relative="1" as="geometry">
            <mxPoint x="701" y="660" as="sourcePoint" />
            <mxPoint x="791" y="450" as="targetPoint" />
          </mxGeometry>
        </mxCell>
        <mxCell id="2vLimYcvGv_lNkFftwUf-43" value="" style="endArrow=classic;html=1;rounded=0;entryX=0;entryY=0.5;entryDx=0;entryDy=0;" edge="1" parent="1" target="2vLimYcvGv_lNkFftwUf-3">
          <mxGeometry width="50" height="50" relative="1" as="geometry">
            <mxPoint x="701" y="660" as="sourcePoint" />
            <mxPoint x="791" y="540" as="targetPoint" />
          </mxGeometry>
        </mxCell>
        <mxCell id="2vLimYcvGv_lNkFftwUf-44" value="" style="endArrow=classic;html=1;rounded=0;exitX=1;exitY=0.5;exitDx=0;exitDy=0;" edge="1" parent="1" source="2vLimYcvGv_lNkFftwUf-39">
          <mxGeometry width="50" height="50" relative="1" as="geometry">
            <mxPoint x="711" y="520" as="sourcePoint" />
            <mxPoint x="781" y="610" as="targetPoint" />
          </mxGeometry>
        </mxCell>
        <mxCell id="2vLimYcvGv_lNkFftwUf-45" value="" style="endArrow=classic;html=1;rounded=0;" edge="1" parent="1">
          <mxGeometry width="50" height="50" relative="1" as="geometry">
            <mxPoint x="701" y="660" as="sourcePoint" />
            <mxPoint x="781" y="720" as="targetPoint" />
          </mxGeometry>
        </mxCell>
        <mxCell id="2vLimYcvGv_lNkFftwUf-46" value="" style="endArrow=classic;html=1;rounded=0;entryX=-0.02;entryY=0.397;entryDx=0;entryDy=0;entryPerimeter=0;" edge="1" parent="1" target="2vLimYcvGv_lNkFftwUf-5">
          <mxGeometry width="50" height="50" relative="1" as="geometry">
            <mxPoint x="701" y="790" as="sourcePoint" />
            <mxPoint x="791" y="730" as="targetPoint" />
          </mxGeometry>
        </mxCell>
        <mxCell id="2vLimYcvGv_lNkFftwUf-47" value="" style="endArrow=classic;html=1;rounded=0;" edge="1" parent="1">
          <mxGeometry width="50" height="50" relative="1" as="geometry">
            <mxPoint x="701" y="790" as="sourcePoint" />
            <mxPoint x="781" y="610" as="targetPoint" />
          </mxGeometry>
        </mxCell>
        <mxCell id="2vLimYcvGv_lNkFftwUf-48" value="" style="endArrow=classic;html=1;rounded=0;" edge="1" parent="1">
          <mxGeometry width="50" height="50" relative="1" as="geometry">
            <mxPoint x="701" y="790" as="sourcePoint" />
            <mxPoint x="781" y="530" as="targetPoint" />
          </mxGeometry>
        </mxCell>
        <mxCell id="2vLimYcvGv_lNkFftwUf-49" value="" style="endArrow=classic;html=1;rounded=0;entryX=-0.02;entryY=0.623;entryDx=0;entryDy=0;entryPerimeter=0;exitX=1;exitY=0.5;exitDx=0;exitDy=0;" edge="1" parent="1" source="2vLimYcvGv_lNkFftwUf-40" target="2vLimYcvGv_lNkFftwUf-2">
          <mxGeometry width="50" height="50" relative="1" as="geometry">
            <mxPoint x="731" y="820" as="sourcePoint" />
            <mxPoint x="809.8" y="743.8199999999999" as="targetPoint" />
          </mxGeometry>
        </mxCell>
        <mxCell id="2vLimYcvGv_lNkFftwUf-50" value="" style="endArrow=classic;html=1;rounded=0;exitX=1;exitY=0.5;exitDx=0;exitDy=0;" edge="1" parent="1" source="2vLimYcvGv_lNkFftwUf-40">
          <mxGeometry width="50" height="50" relative="1" as="geometry">
            <mxPoint x="741" y="830" as="sourcePoint" />
            <mxPoint x="781" y="360" as="targetPoint" />
          </mxGeometry>
        </mxCell>
        <mxCell id="2vLimYcvGv_lNkFftwUf-51" value="" style="endArrow=none;dashed=1;html=1;rounded=0;exitX=0.5;exitY=0;exitDx=0;exitDy=0;strokeWidth=4;" edge="1" parent="1" source="2vLimYcvGv_lNkFftwUf-39">
          <mxGeometry width="50" height="50" relative="1" as="geometry">
            <mxPoint x="621" y="580" as="sourcePoint" />
            <mxPoint x="671" y="530" as="targetPoint" />
          </mxGeometry>
        </mxCell>
        <mxCell id="2vLimYcvGv_lNkFftwUf-52" value="" style="ellipse;whiteSpace=wrap;html=1;aspect=fixed;fillColor=#fff2cc;strokeColor=#d6b656;" vertex="1" parent="1">
          <mxGeometry x="342.2" y="160" width="60" height="60" as="geometry" />
        </mxCell>
        <mxCell id="2vLimYcvGv_lNkFftwUf-53" value="" style="endArrow=classic;html=1;rounded=0;entryX=-0.013;entryY=0.67;entryDx=0;entryDy=0;entryPerimeter=0;" edge="1" parent="1" target="2vLimYcvGv_lNkFftwUf-82">
          <mxGeometry width="50" height="50" relative="1" as="geometry">
            <mxPoint x="402.20000000000005" y="200" as="sourcePoint" />
            <mxPoint x="482.20000000000005" y="280" as="targetPoint" />
          </mxGeometry>
        </mxCell>
        <mxCell id="2vLimYcvGv_lNkFftwUf-54" value="" style="endArrow=classic;html=1;rounded=0;" edge="1" parent="1">
          <mxGeometry width="50" height="50" relative="1" as="geometry">
            <mxPoint x="402.20000000000005" y="200" as="sourcePoint" />
            <mxPoint x="482.20000000000005" y="370" as="targetPoint" />
          </mxGeometry>
        </mxCell>
        <mxCell id="2vLimYcvGv_lNkFftwUf-55" value="" style="endArrow=classic;html=1;rounded=0;entryX=0;entryY=0.5;entryDx=0;entryDy=0;" edge="1" parent="1" target="2vLimYcvGv_lNkFftwUf-84">
          <mxGeometry width="50" height="50" relative="1" as="geometry">
            <mxPoint x="402.20000000000005" y="200" as="sourcePoint" />
            <mxPoint x="482.20000000000005" y="460" as="targetPoint" />
          </mxGeometry>
        </mxCell>
        <mxCell id="2vLimYcvGv_lNkFftwUf-56" value="" style="endArrow=classic;html=1;rounded=0;entryX=0;entryY=0.5;entryDx=0;entryDy=0;" edge="1" parent="1" target="2vLimYcvGv_lNkFftwUf-85">
          <mxGeometry width="50" height="50" relative="1" as="geometry">
            <mxPoint x="402.20000000000005" y="200" as="sourcePoint" />
            <mxPoint x="491" y="650" as="targetPoint" />
          </mxGeometry>
        </mxCell>
        <mxCell id="2vLimYcvGv_lNkFftwUf-57" value="" style="endArrow=classic;html=1;rounded=0;entryX=0;entryY=0.5;entryDx=0;entryDy=0;" edge="1" parent="1" target="2vLimYcvGv_lNkFftwUf-86">
          <mxGeometry width="50" height="50" relative="1" as="geometry">
            <mxPoint x="402.20000000000005" y="200" as="sourcePoint" />
            <mxPoint x="481" y="690" as="targetPoint" />
          </mxGeometry>
        </mxCell>
        <mxCell id="2vLimYcvGv_lNkFftwUf-58" value="" style="ellipse;whiteSpace=wrap;html=1;aspect=fixed;fillColor=#fff2cc;strokeColor=#d6b656;" vertex="1" parent="1">
          <mxGeometry x="341" y="280" width="60" height="60" as="geometry" />
        </mxCell>
        <mxCell id="2vLimYcvGv_lNkFftwUf-59" value="" style="endArrow=classic;html=1;rounded=0;entryX=-0.029;entryY=0.685;entryDx=0;entryDy=0;entryPerimeter=0;" edge="1" parent="1" target="2vLimYcvGv_lNkFftwUf-82">
          <mxGeometry width="50" height="50" relative="1" as="geometry">
            <mxPoint x="401" y="320" as="sourcePoint" />
            <mxPoint x="481.20000000000005" y="280" as="targetPoint" />
          </mxGeometry>
        </mxCell>
        <mxCell id="2vLimYcvGv_lNkFftwUf-60" value="" style="endArrow=classic;html=1;rounded=0;" edge="1" parent="1">
          <mxGeometry width="50" height="50" relative="1" as="geometry">
            <mxPoint x="401" y="320" as="sourcePoint" />
            <mxPoint x="481.20000000000005" y="370" as="targetPoint" />
          </mxGeometry>
        </mxCell>
        <mxCell id="2vLimYcvGv_lNkFftwUf-61" value="" style="endArrow=classic;html=1;rounded=0;entryX=0;entryY=0.5;entryDx=0;entryDy=0;" edge="1" parent="1" target="2vLimYcvGv_lNkFftwUf-84">
          <mxGeometry width="50" height="50" relative="1" as="geometry">
            <mxPoint x="401" y="320" as="sourcePoint" />
            <mxPoint x="482.20000000000005" y="460" as="targetPoint" />
          </mxGeometry>
        </mxCell>
        <mxCell id="2vLimYcvGv_lNkFftwUf-62" value="" style="endArrow=classic;html=1;rounded=0;entryX=0;entryY=0.5;entryDx=0;entryDy=0;" edge="1" parent="1" target="2vLimYcvGv_lNkFftwUf-85">
          <mxGeometry width="50" height="50" relative="1" as="geometry">
            <mxPoint x="401" y="320" as="sourcePoint" />
            <mxPoint x="491" y="650" as="targetPoint" />
          </mxGeometry>
        </mxCell>
        <mxCell id="2vLimYcvGv_lNkFftwUf-63" value="" style="endArrow=classic;html=1;rounded=0;entryX=0.002;entryY=0.67;entryDx=0;entryDy=0;entryPerimeter=0;" edge="1" parent="1" target="2vLimYcvGv_lNkFftwUf-86">
          <mxGeometry width="50" height="50" relative="1" as="geometry">
            <mxPoint x="401" y="320" as="sourcePoint" />
            <mxPoint x="481" y="690" as="targetPoint" />
          </mxGeometry>
        </mxCell>
        <mxCell id="2vLimYcvGv_lNkFftwUf-64" value="" style="ellipse;whiteSpace=wrap;html=1;aspect=fixed;fillColor=#fff2cc;strokeColor=#d6b656;" vertex="1" parent="1">
          <mxGeometry x="342.2" y="400" width="60" height="60" as="geometry" />
        </mxCell>
        <mxCell id="2vLimYcvGv_lNkFftwUf-65" value="" style="endArrow=classic;html=1;rounded=0;entryX=-0.029;entryY=0.67;entryDx=0;entryDy=0;entryPerimeter=0;" edge="1" parent="1" target="2vLimYcvGv_lNkFftwUf-82">
          <mxGeometry width="50" height="50" relative="1" as="geometry">
            <mxPoint x="402.20000000000005" y="440" as="sourcePoint" />
            <mxPoint x="482.20000000000005" y="280" as="targetPoint" />
          </mxGeometry>
        </mxCell>
        <mxCell id="2vLimYcvGv_lNkFftwUf-66" value="" style="endArrow=classic;html=1;rounded=0;entryX=0;entryY=0.5;entryDx=0;entryDy=0;" edge="1" parent="1">
          <mxGeometry width="50" height="50" relative="1" as="geometry">
            <mxPoint x="402.20000000000005" y="440" as="sourcePoint" />
            <mxPoint x="482.20000000000005" y="370" as="targetPoint" />
          </mxGeometry>
        </mxCell>
        <mxCell id="2vLimYcvGv_lNkFftwUf-67" value="" style="endArrow=classic;html=1;rounded=0;entryX=0;entryY=0.5;entryDx=0;entryDy=0;" edge="1" parent="1" target="2vLimYcvGv_lNkFftwUf-84">
          <mxGeometry width="50" height="50" relative="1" as="geometry">
            <mxPoint x="401" y="440" as="sourcePoint" />
            <mxPoint x="481" y="460" as="targetPoint" />
          </mxGeometry>
        </mxCell>
        <mxCell id="2vLimYcvGv_lNkFftwUf-68" value="" style="endArrow=classic;html=1;rounded=0;entryX=0;entryY=0.5;entryDx=0;entryDy=0;" edge="1" parent="1" target="2vLimYcvGv_lNkFftwUf-85">
          <mxGeometry width="50" height="50" relative="1" as="geometry">
            <mxPoint x="402.20000000000005" y="440" as="sourcePoint" />
            <mxPoint x="482.20000000000005" y="550" as="targetPoint" />
          </mxGeometry>
        </mxCell>
        <mxCell id="2vLimYcvGv_lNkFftwUf-69" value="" style="endArrow=classic;html=1;rounded=0;entryX=0;entryY=0.5;entryDx=0;entryDy=0;" edge="1" parent="1" target="2vLimYcvGv_lNkFftwUf-86">
          <mxGeometry width="50" height="50" relative="1" as="geometry">
            <mxPoint x="402.20000000000005" y="440" as="sourcePoint" />
            <mxPoint x="481" y="700" as="targetPoint" />
          </mxGeometry>
        </mxCell>
        <mxCell id="2vLimYcvGv_lNkFftwUf-70" value="" style="ellipse;whiteSpace=wrap;html=1;aspect=fixed;fillColor=#fff2cc;strokeColor=#d6b656;" vertex="1" parent="1">
          <mxGeometry x="342.2" y="550" width="60" height="60" as="geometry" />
        </mxCell>
        <mxCell id="2vLimYcvGv_lNkFftwUf-71" value="" style="ellipse;whiteSpace=wrap;html=1;aspect=fixed;fillColor=#fff2cc;strokeColor=#d6b656;" vertex="1" parent="1">
          <mxGeometry x="340" y="745" width="60" height="60" as="geometry" />
        </mxCell>
        <mxCell id="2vLimYcvGv_lNkFftwUf-72" value="" style="endArrow=classic;html=1;rounded=0;entryX=-0.044;entryY=0.655;entryDx=0;entryDy=0;exitX=1;exitY=0.5;exitDx=0;exitDy=0;entryPerimeter=0;" edge="1" parent="1" source="2vLimYcvGv_lNkFftwUf-70" target="2vLimYcvGv_lNkFftwUf-82">
          <mxGeometry width="50" height="50" relative="1" as="geometry">
            <mxPoint x="412.20000000000005" y="450" as="sourcePoint" />
            <mxPoint x="482.20000000000005" y="280" as="targetPoint" />
          </mxGeometry>
        </mxCell>
        <mxCell id="2vLimYcvGv_lNkFftwUf-73" value="" style="endArrow=classic;html=1;rounded=0;entryX=0;entryY=0.5;entryDx=0;entryDy=0;" edge="1" parent="1">
          <mxGeometry width="50" height="50" relative="1" as="geometry">
            <mxPoint x="402" y="580" as="sourcePoint" />
            <mxPoint x="482.20000000000005" y="370" as="targetPoint" />
          </mxGeometry>
        </mxCell>
        <mxCell id="2vLimYcvGv_lNkFftwUf-74" value="" style="endArrow=classic;html=1;rounded=0;entryX=0;entryY=0.5;entryDx=0;entryDy=0;" edge="1" parent="1">
          <mxGeometry width="50" height="50" relative="1" as="geometry">
            <mxPoint x="401" y="580" as="sourcePoint" />
            <mxPoint x="481" y="500" as="targetPoint" />
          </mxGeometry>
        </mxCell>
        <mxCell id="2vLimYcvGv_lNkFftwUf-75" value="" style="endArrow=classic;html=1;rounded=0;exitX=1;exitY=0.5;exitDx=0;exitDy=0;entryX=0;entryY=0.5;entryDx=0;entryDy=0;" edge="1" parent="1" source="2vLimYcvGv_lNkFftwUf-70" target="2vLimYcvGv_lNkFftwUf-85">
          <mxGeometry width="50" height="50" relative="1" as="geometry">
            <mxPoint x="412.20000000000005" y="450" as="sourcePoint" />
            <mxPoint x="482.20000000000005" y="540" as="targetPoint" />
          </mxGeometry>
        </mxCell>
        <mxCell id="2vLimYcvGv_lNkFftwUf-76" value="" style="endArrow=classic;html=1;rounded=0;entryX=0.017;entryY=0.655;entryDx=0;entryDy=0;entryPerimeter=0;" edge="1" parent="1" target="2vLimYcvGv_lNkFftwUf-86">
          <mxGeometry width="50" height="50" relative="1" as="geometry">
            <mxPoint x="402" y="580" as="sourcePoint" />
            <mxPoint x="482.20000000000005" y="650" as="targetPoint" />
          </mxGeometry>
        </mxCell>
        <mxCell id="2vLimYcvGv_lNkFftwUf-77" value="" style="endArrow=classic;html=1;rounded=0;entryX=0;entryY=0.5;entryDx=0;entryDy=0;" edge="1" parent="1">
          <mxGeometry width="50" height="50" relative="1" as="geometry">
            <mxPoint x="401" y="772" as="sourcePoint" />
            <mxPoint x="483" y="792" as="targetPoint" />
          </mxGeometry>
        </mxCell>
        <mxCell id="2vLimYcvGv_lNkFftwUf-78" value="" style="endArrow=classic;html=1;rounded=0;" edge="1" parent="1">
          <mxGeometry width="50" height="50" relative="1" as="geometry">
            <mxPoint x="401" y="770" as="sourcePoint" />
            <mxPoint x="481" y="650" as="targetPoint" />
          </mxGeometry>
        </mxCell>
        <mxCell id="2vLimYcvGv_lNkFftwUf-79" value="" style="endArrow=classic;html=1;rounded=0;entryX=0;entryY=0.5;entryDx=0;entryDy=0;" edge="1" parent="1" target="2vLimYcvGv_lNkFftwUf-84">
          <mxGeometry width="50" height="50" relative="1" as="geometry">
            <mxPoint x="401" y="770" as="sourcePoint" />
            <mxPoint x="482.20000000000005" y="460" as="targetPoint" />
          </mxGeometry>
        </mxCell>
        <mxCell id="2vLimYcvGv_lNkFftwUf-80" value="" style="endArrow=classic;html=1;rounded=0;entryX=-0.02;entryY=0.623;entryDx=0;entryDy=0;entryPerimeter=0;exitX=1;exitY=0.5;exitDx=0;exitDy=0;" edge="1" parent="1" source="2vLimYcvGv_lNkFftwUf-71">
          <mxGeometry width="50" height="50" relative="1" as="geometry">
            <mxPoint x="432.20000000000005" y="750" as="sourcePoint" />
            <mxPoint x="481" y="377.38" as="targetPoint" />
          </mxGeometry>
        </mxCell>
        <mxCell id="2vLimYcvGv_lNkFftwUf-81" value="" style="endArrow=classic;html=1;rounded=0;exitX=1;exitY=0.5;exitDx=0;exitDy=0;entryX=0.017;entryY=0.73;entryDx=0;entryDy=0;entryPerimeter=0;" edge="1" parent="1" source="2vLimYcvGv_lNkFftwUf-71" target="2vLimYcvGv_lNkFftwUf-82">
          <mxGeometry width="50" height="50" relative="1" as="geometry">
            <mxPoint x="442.20000000000005" y="760" as="sourcePoint" />
            <mxPoint x="482.20000000000005" y="290" as="targetPoint" />
          </mxGeometry>
        </mxCell>
        <mxCell id="2vLimYcvGv_lNkFftwUf-82" value="" style="ellipse;whiteSpace=wrap;html=1;aspect=fixed;fillColor=#fff2cc;strokeColor=#d6b656;" vertex="1" parent="1">
          <mxGeometry x="481" y="230" width="60" height="60" as="geometry" />
        </mxCell>
        <mxCell id="2vLimYcvGv_lNkFftwUf-83" value="" style="ellipse;whiteSpace=wrap;html=1;aspect=fixed;fillColor=#fff2cc;strokeColor=#d6b656;" vertex="1" parent="1">
          <mxGeometry x="481" y="350" width="60" height="60" as="geometry" />
        </mxCell>
        <mxCell id="2vLimYcvGv_lNkFftwUf-84" value="" style="ellipse;whiteSpace=wrap;html=1;aspect=fixed;fillColor=#fff2cc;strokeColor=#d6b656;" vertex="1" parent="1">
          <mxGeometry x="481" y="470" width="60" height="60" as="geometry" />
        </mxCell>
        <mxCell id="2vLimYcvGv_lNkFftwUf-85" value="" style="ellipse;whiteSpace=wrap;html=1;aspect=fixed;fillColor=#fff2cc;strokeColor=#d6b656;" vertex="1" parent="1">
          <mxGeometry x="481" y="630" width="60" height="60" as="geometry" />
        </mxCell>
        <mxCell id="2vLimYcvGv_lNkFftwUf-86" value="" style="ellipse;whiteSpace=wrap;html=1;aspect=fixed;fillColor=#fff2cc;strokeColor=#d6b656;" vertex="1" parent="1">
          <mxGeometry x="483" y="760" width="60" height="60" as="geometry" />
        </mxCell>
        <mxCell id="2vLimYcvGv_lNkFftwUf-87" value="" style="endArrow=none;dashed=1;html=1;rounded=0;exitX=0.5;exitY=0;exitDx=0;exitDy=0;strokeWidth=4;" edge="1" parent="1">
          <mxGeometry width="50" height="50" relative="1" as="geometry">
            <mxPoint x="510.4000000000002" y="630" as="sourcePoint" />
            <mxPoint x="511.6" y="530" as="targetPoint" />
          </mxGeometry>
        </mxCell>
        <mxCell id="2vLimYcvGv_lNkFftwUf-88" value="" style="endArrow=none;dashed=1;html=1;rounded=0;exitX=0;exitY=0.5;exitDx=0;exitDy=0;strokeWidth=4;entryX=1;entryY=0.5;entryDx=0;entryDy=0;" edge="1" parent="1" source="2vLimYcvGv_lNkFftwUf-39" target="2vLimYcvGv_lNkFftwUf-85">
          <mxGeometry width="50" height="50" relative="1" as="geometry">
            <mxPoint x="679.8000000000002" y="640" as="sourcePoint" />
            <mxPoint x="681" y="540" as="targetPoint" />
          </mxGeometry>
        </mxCell>
        <mxCell id="2vLimYcvGv_lNkFftwUf-89" value="" style="endArrow=none;dashed=1;html=1;rounded=0;exitX=0;exitY=0.5;exitDx=0;exitDy=0;strokeWidth=4;entryX=1;entryY=0.5;entryDx=0;entryDy=0;" edge="1" parent="1">
          <mxGeometry width="50" height="50" relative="1" as="geometry">
            <mxPoint x="641.8000000000002" y="789.5" as="sourcePoint" />
            <mxPoint x="543" y="789.5" as="targetPoint" />
          </mxGeometry>
        </mxCell>
        <mxCell id="2vLimYcvGv_lNkFftwUf-90" value="" style="endArrow=none;dashed=1;html=1;rounded=0;exitX=0;exitY=0.5;exitDx=0;exitDy=0;strokeWidth=4;entryX=1;entryY=0.5;entryDx=0;entryDy=0;" edge="1" parent="1">
          <mxGeometry width="50" height="50" relative="1" as="geometry">
            <mxPoint x="641.8000000000002" y="502" as="sourcePoint" />
            <mxPoint x="543" y="502" as="targetPoint" />
          </mxGeometry>
        </mxCell>
        <mxCell id="2vLimYcvGv_lNkFftwUf-91" value="" style="endArrow=none;dashed=1;html=1;rounded=0;exitX=0;exitY=0.5;exitDx=0;exitDy=0;strokeWidth=4;entryX=1;entryY=0.5;entryDx=0;entryDy=0;" edge="1" parent="1">
          <mxGeometry width="50" height="50" relative="1" as="geometry">
            <mxPoint x="639.8000000000002" y="390" as="sourcePoint" />
            <mxPoint x="541" y="390" as="targetPoint" />
          </mxGeometry>
        </mxCell>
        <mxCell id="2vLimYcvGv_lNkFftwUf-92" value="" style="endArrow=none;dashed=1;html=1;rounded=0;exitX=0;exitY=0.5;exitDx=0;exitDy=0;strokeWidth=4;entryX=1;entryY=0.5;entryDx=0;entryDy=0;" edge="1" parent="1">
          <mxGeometry width="50" height="50" relative="1" as="geometry">
            <mxPoint x="641.8000000000002" y="259.5" as="sourcePoint" />
            <mxPoint x="543" y="259.5" as="targetPoint" />
          </mxGeometry>
        </mxCell>
        <mxCell id="2vLimYcvGv_lNkFftwUf-93" value="" style="shape=curlyBracket;whiteSpace=wrap;html=1;rounded=1;flipH=1;rotation=90;" vertex="1" parent="1">
          <mxGeometry x="583.5" y="732.5" width="20" height="215" as="geometry" />
        </mxCell>
        <mxCell id="2vLimYcvGv_lNkFftwUf-94" value="Hidden Layers" style="text;html=1;align=center;verticalAlign=middle;resizable=0;points=[];autosize=1;strokeColor=none;fillColor=none;" vertex="1" parent="1">
          <mxGeometry x="556" y="870" width="90" height="20" as="geometry" />
        </mxCell>
        <mxCell id="2vLimYcvGv_lNkFftwUf-95" value="" style="ellipse;whiteSpace=wrap;html=1;aspect=fixed;fillColor=#fff2cc;strokeColor=#d6b656;" vertex="1" parent="1">
          <mxGeometry x="340" y="850" width="60" height="60" as="geometry" />
        </mxCell>
        <mxCell id="2vLimYcvGv_lNkFftwUf-96" value="" style="endArrow=classic;html=1;rounded=0;exitX=1;exitY=0.5;exitDx=0;exitDy=0;" edge="1" parent="1" source="2vLimYcvGv_lNkFftwUf-95">
          <mxGeometry width="50" height="50" relative="1" as="geometry">
            <mxPoint x="411" y="780" as="sourcePoint" />
            <mxPoint x="481" y="790" as="targetPoint" />
          </mxGeometry>
        </mxCell>
        <mxCell id="2vLimYcvGv_lNkFftwUf-97" value="" style="endArrow=classic;html=1;rounded=0;entryX=-0.029;entryY=0.382;entryDx=0;entryDy=0;entryPerimeter=0;" edge="1" parent="1" target="2vLimYcvGv_lNkFftwUf-85">
          <mxGeometry width="50" height="50" relative="1" as="geometry">
            <mxPoint x="401" y="880" as="sourcePoint" />
            <mxPoint x="501" y="670" as="targetPoint" />
          </mxGeometry>
        </mxCell>
        <mxCell id="2vLimYcvGv_lNkFftwUf-98" value="" style="endArrow=classic;html=1;rounded=0;entryX=0;entryY=0.5;entryDx=0;entryDy=0;" edge="1" parent="1" target="2vLimYcvGv_lNkFftwUf-84">
          <mxGeometry width="50" height="50" relative="1" as="geometry">
            <mxPoint x="401" y="880" as="sourcePoint" />
            <mxPoint x="511" y="680" as="targetPoint" />
          </mxGeometry>
        </mxCell>
        <mxCell id="2vLimYcvGv_lNkFftwUf-99" value="" style="endArrow=classic;html=1;rounded=0;entryX=0;entryY=0.5;entryDx=0;entryDy=0;" edge="1" parent="1" target="2vLimYcvGv_lNkFftwUf-83">
          <mxGeometry width="50" height="50" relative="1" as="geometry">
            <mxPoint x="401" y="880" as="sourcePoint" />
            <mxPoint x="521" y="690" as="targetPoint" />
          </mxGeometry>
        </mxCell>
        <mxCell id="2vLimYcvGv_lNkFftwUf-100" value="" style="endArrow=classic;html=1;rounded=0;" edge="1" parent="1">
          <mxGeometry width="50" height="50" relative="1" as="geometry">
            <mxPoint x="401" y="880" as="sourcePoint" />
            <mxPoint x="481" y="280" as="targetPoint" />
          </mxGeometry>
        </mxCell>
        <mxCell id="2vLimYcvGv_lNkFftwUf-101" value="Input Layer&amp;nbsp;" style="text;html=1;strokeColor=none;fillColor=none;align=center;verticalAlign=middle;whiteSpace=wrap;rounded=0;" vertex="1" parent="1">
          <mxGeometry x="340" y="930" width="60" height="30" as="geometry" />
        </mxCell>
        <mxCell id="2vLimYcvGv_lNkFftwUf-102" value="" style="endArrow=none;dashed=1;html=1;rounded=0;exitX=0.5;exitY=0;exitDx=0;exitDy=0;strokeWidth=4;" edge="1" parent="1">
          <mxGeometry width="50" height="50" relative="1" as="geometry">
            <mxPoint x="371.6" y="730" as="sourcePoint" />
            <mxPoint x="372.79999999999984" y="630" as="targetPoint" />
          </mxGeometry>
        </mxCell>
        <mxCell id="2vLimYcvGv_lNkFftwUf-205" value="" style="shape=image;verticalLabelPosition=bottom;labelBackgroundColor=#ffffff;verticalAlign=top;aspect=fixed;imageAspect=0;image=data:image/png,iVBORw0KGgoAAAANSUhEUgAAAU0AAAE1CAYAAABjgbJoAAAAOXRFWHRTb2Z0d2FyZQBNYXRwbG90bGliIHZlcnNpb24zLjQuMSwgaHR0cHM6Ly9tYXRwbG90bGliLm9yZy/Z1A+gAAAACXBIWXMAAAsTAAALEwEAmpwYAADw0UlEQVR4nOz9eZQkWV7fiX7uNTPfw2PNzMiIXCv32rq2zO4HDEJoQNB9AI0EIxAaCSENkkBPjOZoHoLHY5gZadAukOChBYGWmR5EozeiEdDQDaiBprururqqMnLPyC32yNjDdzO7974/rpunh4e7h8eWGVXt33PiVKUv1xY3+9pv/f6EMYYuuuiiiy46g3zWO9BFF1108X5ClzS76KKLLraBLml20UUXXWwDXdLsoosuutgGuqTZRRdddLENuFu8302td9FFF88K4lnvQDN0Lc0uuuiii22gS5pddNFFF9tAlzS76KKLLraBLml20UUXXWwDXdLsoosuutgGuqTZRRdddLENdEmziy666GIb6JJmF1100cU20CXNLrrooottoEuaXXTRRRfbQJc0u+iiiy62gS5pdtFFF11sA13S7KKLLrrYBrqk2UUXXXSxDXRJs4suuuhiG+iSZhdddNHFNtAlzS666KKLbaBLml100UUX20CXNLvooosutoEuaXbRRRddbANd0uyiiy662Aa2mkbZxQcAxhgqlQpaazzPw3EcpOw+L7voYicQxrSd0tsd4fs+h9Ya3/cJgoAwDBFCsLCwQH9/P+l0Gtd1uyTaxUHFgRzh27U0P6AwxhCGYY0oS6USAMlkkuXlZVKpFK7rUqlUAHAcp2aFuq6LEAfyeu2ii2eOLml+AGGMwfd9tNYAPHjwgPn5eRzHwfd9lFKkUini8TjxeBxjDFpryuUyxhiEEDUSjSzRLol20YVF1z3/gCEMQ4IgAMD3fa5du0ZPTw+nT5/GGIMxhrGxMRKJBMVikTAMyWaz9Pf309fXRywWq32u/trokmgXzwAH8iLrWpofEDS640tLS9y+fZsLFy4wNDREGIYopZBSEo/HOXr0KNlsFq01a2trrK6uMjU1hVKK3t7eGol6nrfBEo3QJdEuvlLRtTQ/AIiSPW+99Ravv/464+Pj5HI5XnrpJeLxOECNNIUQ3L59m+HhYXp7ezetpZRibW2NlZUVVldXMcZsIFHXdWtWqNa6RpZdEu1iH3AgL6Kupfk+hjEGpdQGd/xLX/oShw4d4vXXX99EXFG8sh0cx2FgYICBgQHAkm1Eoo8ePcIYQ19fH/39/fT29uI4To1AS6VSbX3XdWt/XRLt4oOELmm+T2GMIQiCmvU4NzdHsVjkypUr9PX1tf2uEIItPIwaXNdlcHCQwcFBwJLo6uoqy8vLPHjwACFEUxKNyLyeRKPsfJdEu3g/o0ua70NE7nhk4d26dYswDEmn01sSJmyPNBvhui5DQ0MMDQ0BEAQBq6urLC4ucu/ePRzH2UCiUsoaiYZhuGGdyJ2XUnZJtIv3Dbqk+T5CY7KnUCgwNjbGiRMnGB0d5fOf//y21toLeJ7HoUOHOHToEGBDBKurqzx+/Jjx8XFc16W/v5/+/n56enqakqgQgiAIyGQyeJ7XJdEuDjS6pPk+QWPt5eTkJNPT07z88stkMpltrbWfhBSLxTh8+DCHDx8GoFKpsLq6yuzsLLdv3yYWi9VINJPJ1Ej02rVrvPTSSzXXvT4m2iXRLg4SuqT5PkAUH4wszevXrxOLxbhy5QqO42x7vd2459tFPB7nyJEjHDlyBIByuczKygrT09Pkcjni8Tj9/f21cqgoJhoEQS3BFZFofd98l0S7eFbokuYBRqM7vra2xo0bNzhz5gzDw8O7XvtZIJFIcPToUY4ePQpAqVRiZWWFSqXC22+/TTKZrFmi6XS6RvCNJFpf3tQl0S6eJrqkeUChtSYIgpo7fv/+fRYXF3nttddIJpPbXq+eVA4SwSSTSZLJJLOzs3zoQx/C931WVlZ4+PAhhUKBVCpVI9FUKlUjUd/3qVQqCCE2kGjUN3+QjrGLDxa6pHnA0Fh7WalUuHbtGn19fVy+fHlP1IiepnveKaIa0lQqRSqVYnR0FGMMxWKRlZUV7t+/T7FYJJ1O10g0mUy2JdHIne+SaBd7iS5pHiA01l4uLCxw9+5dLl68WKuT3MttHTQ0EpsQgnQ6TTqd5tixYxhjKBQKrKysMD4+TrlcJpPJ1Eqckslk7bh838f3fQCklJtiol10sVN0SfOAoL720hjD7du3KRaLXL58mVgstqfber9aXUIIMpkMmUyG48ePY4whn8+zsrLCnTt3qFQq9PT01Eg0kUh0SbSLPUeXNJ8xGrtnSqUSY2NjDA8Pc/HixX0huIPonu8EQgh6enro6enhxIkTaK1rJHrr1i183yebzdZINJLBgy6JdrFzdEnzGaK+9lIIwezsLA8fPuSFF15oKqaxV/igkGYjpJRks1my2SwnT55Ea00ul2N5eZnZ2VmCINggPlIvg9dIoo3Z+S66iNAlzWeEendcKcXNmzcBuHLlCq67/z/LQSPN/dgfKSW9vb21B1Akg7eystJWBi+aqVSpVJiYmOD06dNdVfsuauiS5lNGFIdbW1tjaGiIfD7PtWvXOHnyJKOjo3uyfrOb2vd9SqVSrfbxIGK/90tKWcu8w0YZvImJiU0yeI7jsLi4yMmTJ7taol3U0CXNp4io9rJYLDI3N0ehUKjVJ6bT6V2vH7ndjTfx4uIit27dIh6PUy6XcRyHdDrNwMBATW/zKxHtZPAePnwI2JKvlZUVent7a1qiXUHmr2x0SfMpoLH2UinF0tISruvy4Q9/eM9iZo2xSq019+7dY3V1lddee63WOXPv3j2KxSI3btzYEOfr7+/H87w92Zf3Ixpl8CqVCu+8886WMnhdEv3KQpc09xmNrZArKyvcuHGDZDLJpUuX9nRb9aRZLpe5evUqAwMDvPHGG7VkhxCi1oUzOjq6Ic43OTm5SWT4acRXDyocxyEWi3Hu3Dmgcxm8RkHmLol+sPCVe0c8BdS3QhpjuHfvHisrK7z44os1928vEZHm4uIit2/f3lAUX2+BCiFq7ZmNcb5GkWEp5SZi+EpBY6hjpzJ4XRL9YKFLmvuAxtrLSqXC2NgYAwMDXL58uTYqdz9w7949crkcb7zxRtt4ZavtN4oM1xPD3bt3N0i79fT07OkNf9DIwxjT9iHRTAZvZWVlSxm8ZqNBuqr27x90SXOP0Vh7GVkhly5dqiUcpJQ1S2+vUC6XyeVy9Pb28sYbb7S98bZzUzYSQyTtNjU1RS6Xayqo8UFBJzOV6hGPxxkeHq4pULWSwYtINPIMuqr27y90SXMP0TiG4s6dO5TL5U2tkHtdXB6546lUipMnT255k+1m+/XSbs0ENTKZDAMDA7U2xvcz6qdt7gStZPAmJibI5/MtZfAaVe27gswHC13S3AM0JnuKxSJjY2OMjIxw6dKlTRf5Xlma9dnxN954g+vXr3dMhntB2s0ENZq1MUbEsNc99PuN7VqaWyFKwI2MjGCMqZHoVjJ4YRhuEmTukuizQ5c0d4nGMRTT09NMTEzw4osvks1mm35nL0izMTseyZ91Qob7dZM16wVfX1+vuahKqVpSKZqhfpCx16RZj93I4IVhyMLCAqVSiZGRkS6JPmUc7Kv2gKPeAlBKcePGDaSUW7ZC7tY9b5Yd3866T6v3PMq89/X1cfr0aZRSrK6u1qwrIUSNFA5aWyfsL2k2YisZvFKpRCaTqZ2ves+mOxrk6aJLmjtAozu+vr7O9evXOXXqFCMjI1t+f6cXcaM73pgdP2ik2QjHcTYUjwdBwMrKCo8fP6ZYLPLOO+/Q39/PwMDAnmfmd4KnSZqN2EoGL5/PE4/Ha8mlKH7cbjRIV9V+b9AlzW2icQzFw4cPmZ+f55VXXiGVSu3bdpu5443YigwP2s3ieV4tM7+2tsbzzz9fy8zn83kSicSmRMnTxLMkzUY0hj6mpqYol8v4vt9SBg+ehI8qlQrwRMGpq2q/c3RJs0M0tkIGQcC1a9dIp9NcuXJlX4u+W7njjTjoluZWqC/ZaZYoqXdPdzInabs4SKTZCGMMqVSKkZGRmgxeFD9uJYMXfa+rJbo7dEmzAzSOoVheXubWrVucP3++1h2yH9jKHW/E+5k0m426aEyUNFNpj8qb9iMzf5BJU2u9QSegPn4MNsYekWg7GTzoCjJvF13S3AKNYyjGx8dZW1vj9ddf39c6xE7c8UYcRDLcKzTLzEcCw1Fmvl54ZC8y8wedNNvNvHccZ1syeJGCE3RJdCt0SbMFouxloVCgt7eXcrnM2NgYQ0NDHZPYTtGpO96I97OluV3UCwxHmfmIFB49etRUkWi7OOikuR0C60QGr1Gopatq3xxd0myC6EJZW1tjYWGBcrnMvXv3eP7552tP7v2A1rpmyXbijjfiK4k0G9FICo2KRM3ENLbCQSfN3exbowxeo1BLKxm8elV72EiiXymq9l3SbECU7IlumKWlJcrlMleuXNlXrcmduOONaEeGXwkXcz0aFYkiMY2ZmZlaH3gUD22VmT/IpGmM2ZH13AqNQi2dyuA1kuhXgoJTlzSraKy9LBQK3Lx5E9d1eeWVV/blx49uyp26441oR5qFQoH5+fmapfxBszS3QqOYRmNmvlX3zUG96ZVS++oa70YGr1wu8+jRI4aHh0mlUqyurlIsFrlw4cK+7e/TRJc02Vx7OTU1xdTUFOfOnWNubm7fxugqpbh///6O3fFmazYjw/n5ecbHxzly5AgPHz4kl8sBMDs7+4EQ1tgJGvvA67tvyuUyPT09Bzpmt1v3fLvYrgxePp+v6bZ+9rOf5datW/ztv/23n9r+7ie+okmzsfYyDENu3LiB53lcuXKFSqXCzMzMvm377bffZnBwcM8SS83GXdy5c4discjly5drltPa2hoTExMbCqMj12uvMs/vJzR230SZ+cnJSXK5XG1GUH25zrPGdhNBe41WMnhRY0KlUmFubg6lFPl8nkwms+1tCCG+CfgpwAF+zhjzdxve/x7gHwDT1Zd+2hjzc7s4rI7wlXV31KGx9nJtbY3r169z5syZ2oWwH7qXYLPjhUKBl19+mSNHjuzZupGLBE9ipENDQzW3qFKp1DpAPM/j5MmTnDx5slbTt7y8XMs8RwT6labWDk8y88Vikd7eXkZGRmrnJyrXqRce2cvYYqfY65jmbtEog/fmm28Si8X4B//gH/CZz3yGvr4+UqkUf/SP/lFeeOGFLa8ppRTAzwDfAEwBbwkhPmmMudHw0f9gjPlre39ErfEVSZr1tZcADx48YGFhgVdffXVDK+Rek2Z9djySTNtrGGNYWlri1q1bm8ZdRNZso0XaWNNX3xN+9+7dWn/zwMDAgR4BvNeIzlnj+anPNN+/f3/D+9ls9qk8ZPY7prkXGB0d5Sd/8if5yZ/8STzPI5FI8BM/8RP883/+z1sqgEV48803AcaNMfcBhBC/CHwb0EiaTx1fUaTZOIYiCAKuXr1Kb28vly9f3nQR7iVpNmbHv/zlL++5FSuEYG5uDt/32xbfb1VyVN8TDpuTJh8koeF2aJUIajYSZGVlhbm5Oe7cudNUoX2v8bRjmrtBqVTi4sWLfMd3fAff933f19F3pqenASbrXpoCPtzko39KCPG1wB3gbxhjJpt8Zk/xFUOajWMoFhcXuXPnDhcuXKhd/I3YK9Jslh3fayvW932mp6dJpVK88cYbe2qFNCZNGoWGe3t7ayT6QYqHbjUjKEIsFuPIkSO1UEujQnsqlaqdnygz/7T27Vmh/hjz+Tw9PT37sZlfBf4vY0xFCPGXgX8LfP1+bKgeH5wrvA0aWyHv3r3b0fCx+hjhTrfbqlh9LwvM19bWuHbtGn19fQwMDGx5M+1m283aGdfW1j6Q8dCdlhw1PmQiceEoMx8JjwwMDOy4YuKgk2Y9ojEo28Ho6CjA8bqXjvEk4QOAMWap7p8/B/z9He7itvCBJs3G2svIRT5y5Aivv/76vro3WxWr74WlaYxhcnKS6elpXn31VRYXF596R1DjCOCoKPqDEA/dizrNZuLCUUb+5s2bNUs9OocHITO/WzReW1Ed7HZw+fJlgHNCiNNYsvxO4M/Uf0YIcdQYM1v957cCN3e4y9vCB5Y062svo1jfgwcPeOGFF+jt7d3XbXdSrL5b4orKoyKl+CiT+qyL1huLoiNX9dGjR7XSk4hED3o8dD+K24UQZLNZstlsTdIt6gGfnJzckJmPesDfb1BKbcjsFwqFbbvn1eP+a8BvYkuOft4Yc10I8b8CXzLGfBL460KIbwVCYBn4nj05gK327Wls5GmisfZSKcWtW7fQWm85hmK32E7v+G4szXw+z9jYGMePH+fYsWPbXvNp9p53Gg991mTfDE+jI6jRUo+ENKIe8Ejy7f0U7mhGmjup0zTG/Drw6w2v/Vjd//8w8MM739Od4QNFmo3ueEQuJ06cYHR09Jm6443Yabx0dnaWBw8e8NJLL216ekcdGFvhWQl2tIuHFotF3n777Vpc9iAQxLNoo2wU0qhvX7x7926t80YpdWDbPPfC0jzI+MCQZmMr5MTEBDMzM7z88ss7esptBzvpHe+U4CJorbl9+3Ztjnqz2NdBvIHaod7KWl5e5uWXX95EEFHWeb9Kd9rhIJBSY/ti1Hnj+z5vvvlm07G/zxqNpFkqlQ58KGY7eN+TZmPtZRiGXL9+nXg8viHWt9ttNLsYdyPlth33vFQqcfXqVQ4fPszFixdb3hjvd2m4xnhouVyudeE8i3joQSDNRiQSCYaHh5mamuKNN96gVCrViuyjLPWzrqFtJE3gmXsNe4n3NWkaY2ojYUdGRlhdXeXGjRucPXt2z9oTI3JrvAh2K+XWKXFFVmwnWp4H3T3fLhKJBCMjIxtENaJRI/Xx0P3qBz+IpAlP9qt+JEiUmY9ixrdv36ZSqdQ6z/ZrJEgz1HcrHdRzuBu8b0kzqr30fZ+lpaXaE/e1117b06FbzUhzL6TctrI0jTHcu3ePlZWVjq3YTi/O9wtp1qNeVKM+HhoVkQN7Hg89qDd8K7GOZjHjaE5QNBKkvmd+v5KijZbmQT2PO8X7jjQbkz1KKRYXFzl+/Pied8LARnLbrbJ647qtiMv3/Vp753as2O3GSd/P2Ko+dC/ioc9aSagVOt2v+mFr0UiQyDN7+PDhhkaEbDa7ZwIg9aT5fmr37BTvK9JsbIVcWFjg9u3bpFIpzp07ty/bjEhzL5TV69GK4FZXV7l+/fqOJl1+kC3NrbBVPDSdTtfGYXQa6zuoFtJOydxxnA2Z+foHTb2w8MDAAD09PTs+9nrSLJVKG0RwPgh435BmGIa12ktjDLdv36ZYLPLqq69y8+b+NQJIKVlaWuLRo0e7VlZvXLeeuIwxTExMMDs7u0ltqVN80GKau0GreGgU6+ukC+dpkaYxoPPgdFiVs1cWcKuRINPT0+RyORKJRO0cbaebS2tdi5/upBvooOPAk2ajO14sFhkbG2N4eJiLFy+ilNo3l1RrTT6fp1wu74myej3qCS4MQ65du1YTP97pDdGODCcnJ3nw4AHJZPLA1/ntNdrFQ6MunMjCqo+HPq3zo65KnE858ENBR5/fr7BBvbCwMaapulX9SJBWqLc0u6T5lNHYCjkzM8OjR4948cUXa3p8juNEgqV7isgdl1Jy4cKFPSVMsJZmEATkcjnGxsY4deoUIyMju1qzGWkqpbh582atIypKnJXLZd588016enpqbuvTyq4+a7SKhy4sLDA+Po7neQwMDNTG1u43wt92if9HD/WMSbMe9Zn50dHRDdb6nTt3qFQqtWunMTNfT5pRaOSDhANJmo2tkFprbtyw2qONrZD7YQnUZ8cfP368L65spBY/MzPTtLtnp2vW72upVOK9995jZGSEY8eOEYYhyWSS0dFRZmdneeONN8jlciwvL3Pt2jW01hsy0AdJGXw/0SweurKyQqFQ4Nq1axtqH/eyMiOCecfBuycISyA6WP5ZJKiaWevRtTMzM0MYhrWQRxAEGyzN/W4uedo4cKTZOIZifX2d69ev74klthWaZccXFxf33P3XWjM9PU2lUuEjH/nInpV+1D9AIuJ/4YUX6Ovra0r89eIRp06dqimSR2NbI4vraSgUHaQYazS6YXFxkTNnzqC13mBh7bkq0QOJ1ALxrzz461tbmwchqx+NBInEb5RStZDH4uIiuVyO27dv8/jx4x0V2X/qU5/im7/5m2/TYj5QBCHEnwJ+GbhsjPnSzo+ocxwo0mwcQ/Ho0SPm5ub40Ic+tO8mfqvs+F6LBReLRa5evUomk9nzWrmoBOvevXssLS21jMO2Ir96RfLyGhC3GegopvWV5spHmpWpVGrLeGgkqLEj63zR/h7OL3mo9wlpNsJxnNq1USwWOXXqFAsLC/zn//yfeffddxkbG+Prv/7r+f7v/34GBgbarqWU4gd+4AcAvpk284GEED3ADwJf3KfDaooDQZqNyZ4wDBkbGyOVSu0qMdIp2hWr7yVpRjWEL7zwQm0Oz15CKcXS0hKe5zWtWd1OYuPmLyZ49S+zIQO9n678QUxINTtfzVSJIusqss6jpFIn9aHqgYBq6NS7JQkDEFsYrweRNOuhlCIej/Oxj32M1dVVvu7rvo4/9+f+HL/7u7/bkZHw5ptvcvbsWe7du7fVfKD/Dfh7wP+018fQDs+cNBtrL6M2uXPnztVECjpdZ7s3XifF6nslFnz37l3W19e5fPkysViMpaWlPXVJ8/k8169fJ5lMcvHixV2tZQws3ZSsTUl6j9ljP0iu/NNCJ9eU67pN46GN9aGt4qHq0y7RFqQSiP/Tg+9pb22+H0gzeohG/fDDw8N813d9V0ffn56e5vjxetH2zfOBhBCvAceNMb8mhPjKIc0o2RONobh37x6rq6tth4I1Q6v+8HbotFjdcZxdkWalUuHq1av09/dvUIvfy+6dubk57t+/z/nz55mbm9v1eo/fcVAlydw7To00G9E4XCwqJv8gufI7eRDXj7KNMs4rKyu1eGg2m62RqOd56DddqOM/+X946Pc5adbvX6FQaDmDa6cQQkjgH/OURIcb8UxIs9Edr1QqjI2NMTg4uKNum4jYOiXN7fSOSyl3XNK0srLCjRs3mg5v2+38IbAX5507dygWi1y+fHlDPLgVOiGCqd+JgYGlcRforAymsZi83pVXSm2og3y/ZOV3W6dZn3E+fvx4rRd8eXm5Fg+9cOOr8YyEqr3pXZVUTO2fTXHQSbP+vO2kTnN0dJTJyQ1DJRvnA/UALwL/pbqdYeCTQohvfRrJoKdOmo21l1ELVycqPq0QEdtWmcyd9I5H9ZTbgTGGhw8f8vjx45YCIru1NCMLdmBggFdffbU2krgVaUaqOJ0Q9fodB2EgP7vzIvsPgivfKWlqBf4tSLzQ/nP1veBg46HhoocRdTPoA0Hp/wxJfLfTctta6wM9BqN+v3ciQHz58mXu3r1Lq/lAxpg1oGaFCCH+C/A3P3DZ82a1l5HLEsX5dopOCtwjd3y71ux2Y5pBEHDt2jUSiUTTWeo7XbceUX96owW7F+2R65MSUwSS4Of2hsw6ceWDIKBSqex5E8Fu0KnYRPH3Hfy3HRIvbK8YXq66SB90bOM2xM+7vHnui6TT6ZqFXv/gPeiWZj12Uqfpui4//dM/zcc+9rF284GeGZ4KaTbWXhYKBcbGxhgdHeXSpUu7tjS2Is3dSLlth9zW19e5du0ap0+f5ujRo20/uxOCi6ZPzszMNO1P3wvSfPSbMQQCjMEYQW5O0DO8tzWUrVz5GzduEIbhgXHlO7U0i7/lwePtX8Pq054912Lj+e29meHKlSst46FBEBxY0tyLSZQAH/3oRzHGnG9Y+8eafdYY83Xb3sAusO+kGYYhhUKhZklOT08zMTGxZ10w0Jo090LKrVPSnJqaYnJysuPxGtu1NJVSta6oy5cvNyWTvSDN5avVdavLzL7t0vOx7YUntoPIlY/H47z66qs1+bKlpaUD4cp3sr3gqoNb2f7a6vMODiDYGMR0ygI+45L5hubx0MePH7O0tMTa2tru6kP3AY1W8AdtPhDsI2lG7vj6+jq3b9/mpZde4vr167iuu+dTIZsR0E7d8UZslT2v7+2+fPlyx8e1nURQVBA/MjLC8ePHdz3uohX8HKhlYW/f6jJLdztPBu0FGuXLCl8OCf43h+Tvpbj2fbdxvjlfs0QPgiuvA+CxQIS2VGs7l5m5URUGafId51/G0N9Qqv27Ph4ahiGDg4MYY2pxYtd1aw+XZzFPKUK9ajs8KTk6SBBCCLOLG2VfLc0gCHBdl0qlwltvvdWR27oTNFqae6GsHqFd9rxYLPLee+8xOjralsyaodNEUGM75FZr7oY0H36m6poDVHdtp8mg3SD4gkT/qziJzzoM17m9I+osseNLLC0tbXDlIyXyvba2OnLNf9cFLZAK/Pck8Vc69x7EjD23zbbift6hVYRUa43neWSz2VqcuFKp1LLyuVyuZTx0v9Go2p7P5w+cpWmMMUKIQaAXmAAUII0xHZXJ7BtpCiGQUjI1NUU+n+erv/qr902MNCLNvVRWj9DKjZ6fn2d8fJwXX3yx1n+73XXbEZwxhvv377O8vLytcRe7Ic2FLz65HEz1Vq7sUTKoExR/xqPn78fpWWm+TX9aMlgd53Dq1KmaKx8NFovG3z7N6ZWFTz85Z6XPucRf6SwZpIsgi9V/NNlNtyCofEEiPrL52muWCIrH4xvqQ4vF4oZ++cb60P1CY+lfpVI5cHW6QogL2A6jb8PWek4Df0oI8RvGmMWtvr+v7vk777xDMpmsSUztFxzHoVwu86UvfWnX7ngjGklTa83du3fJ5/O7yvq3szSDIGBsbIx0Os3rr7/ecdB/N6SpFVRmZO3+jf5rtCD/GDKdN2ftCO71AfTPx0i1IEwA/XjjeWh05SNrq356ZeSy7pcrH15zau51eLVzS1f9jluz6kWLokz5/41hPlLe9PpW2XMhBOl0mnQ63bI+dL/UrA7yJEohhDTGaOAngE8CCSBljCkKIb4feA94dqQphODSpUskEgn+8A//cL82A1g3eW5ujpdffnnPlNUj1JNmfZz0tdde2xUxt7JgI33N5557juHh4W2t2UiaxUV45187fPUPbe11TH/ORejmxzP3ZY+z37R/cc0wByd+6iXEVru51P58N1pb+Xx+Q1Y+IopOXfmtHkDa37hP6kHn5KD/wKlrBGpeze79vtvURd9uyVGz+tD6utkoHtrf37+rMRewkTQPsMj1SWPMv6kqJEUCEAbId/LlfY1pplKpfR30FbnjS0tLHDt2bM8JE56Q29LSErdu3dqzkRfNrMLZ2VkePHjQcQZ+qzXf/jseq8uCsV+EC3+yxM2bN4nH47UkQj1mfq+1y7Z4x91X0lz+iymy6w4q1Z6k5JpAByA78C7rJzOePHmyqSu/28RJ4bdcRF0WR2xB6vUwY09Iu9W33FWBf03Cixvvod3WaTbWzUYW+tTUFLlcjlQqVTs3242HHvBJlNEF9rYQ4qPAWWCwGt/0gfVOFjm4bQVboN7qO3v2LPl8Rw+JbUNKSaFQ4N69e9vuiW+H+gtJa83t27cpl8u7qiyoX/PBpyT+AwkZePBrDrPBQ2TxAkMX8kyXp2tjQwYHBxkYGKBwP9Py5s3N7J97tfTPYmTf7sw9FCHkxiW9l7b/IN4PV77425a9oztRhoJgGrzRDr48WWdntnlWiJ+OYf75Rhd9r4vbW8VD7969S7lc3lY8tJ40GzPpzxp1GfP/GfjbQBn4fwGvAn+5k3gmPOWOoL164jRmxxcXF/dl5EUQBFy9ehWl1L6MBwZ787733nsMDQ1x8eLFPTlHQREe/LyLXw23CiOo/P4LrHqS2bFepDuCkyySftlQuDjNxNszCL/15MvK+v5YCsV3JfGfrosJb8WFBvLXnR2RZiM6ceXDMGwao4sQ3pCbHjSl/+LhffcWghsByNyTf7f7yd3fdjYVfO1nR1CreOjKygpTU1NbSgI2KhwdpFEXQggXy52zwF8UQjwPZIwxb25nnX0lzYgAXNdFKbXr2sxW2fHdKhE1w9raGteuXePMmTNUKpV9uUjDMORLX/pSU0GP3eBLf9cjMIL5IzC4Wn2xKIklwE+ADgU6l+b+54DPnSdTNLRL0xktKCxCeg/FalQRSn85RTqsc2+3+AmlFhTHHfa6brSVKz83N8eXv/zlpq68LgFNklbBlx3YgjTVF+RGt75ZoWYV7qLAfwTi5JPXnqbL2zg7vVk8tH7sb/19fpCGqgl7wv4XoCCEWMOWG00BxWqP+4Ix5nc6WeupWJqO4xCG4a5Is12x+m6UiBphjGFqaoqpqSleeeUV0uk09+/f35O167cxOTlJpVLha77ma/a0jq5yb4j8fcHqYShmYKBkEBV7rpJlCDwwG4wDgbc5Qbup4Pq931zm7DeEe1aysvj9KXoXGzayReJfalCP9t/di1z5SD+gmSuf/dIpHLO5/lCNbx1q0L/rseEoTGtZI4Eg/IkEXoOL/qzihM3ioZEVmstZ87m3t5dkMrnjoWqf+tSn+MEf/EHu3LkzTpNRF0KIvwL8ALa+Mg98X6OqexNET9te4NuxSklj1f/+P4C3gYNHmjvFVsXqezWRUinF9evXEUJw5cqVfWlNi7YRjVHYS8IsrcPsly6g+p7cUH4G4tUWPwFkygb3ZUVhrUBMZigvStwOfhrz+DD5/B0mJiYQQjAwMMDg4OC2s61hCOv/3qP395uc2y0sTUeBmH06ZBFpvEJzV37pJzPUjqBul8z81vtn3ms49jaWJkDpiy75n43R/1efznTM7aBx7O/t27cB+Omf/mk+8YlPkEwm+aVf+iW+/uu/viNvKhp18elPf5ozZ848T/NRFx83xvxzACHEt2K1Nb+p3brGmBD48ep3Lhpjvi16r2pp/u+dHvO+PrYb3fPtIlJCevDgAW+88UbLrPVekGahUODNN99kYGCAl156aV8Is1gs8uabb9Lf38+LL764p9bC/HXBr/+Ii1JPYoRGwGrDg94JBLlbLiulXuYLDpRFyzrBeizdSbD4ziXOjFwmvvIG937zOT7zUwP8yj+q8N47N5iZmaFS2boBe+5fxVj+P5onWrZ2zyHWaJ3uE1q5wJEr7z6sC2jUWciyBA9v2q6cliVLDxtUjbbSQMVQ/rkY+U8d7Lxt1NAyPDzMj/7oj/JTP/VTXLhwgVu3bvHt3/7tvP3221uuEY26eO655zDG+EA06qIGY0x9ljvNlj7Khn18DnhOCHFICJGqChr3Aeeq72/JiU/N0twuqW2nd3y3Mc1I+bx+nvpeY2FhgTt37nTUDrldXPv/Sab/g0txUGx4DBoBS2k4zEbnL12AYhKCOKTLWyje1haDu1+IMf6FjcX8Ip/g1i8NYj76iPn5jSpFfX19m2LBd297BMcFmRXoW9u4CaEbpSs2QioIBBR/xUWUBSYAUwHjA4HA/bqAxMt7o8jULm6o8iBWW7vT3rv9TOhHTbPyxoBojIVuYWkaYx9s6z+WwD1RbPvZZ436RJDv+5w5c4Yf+7Ef48d+rKlA0SZ0MuoCQAjxA8D/CMSAr9/GLi4Cvw78E+DTWHf9jwK/Un1/ywvoqZCm67rbcs+32zu+05hmfanP5cuX96W9LBrjsbKysmvd0Ga49inD0r/xWB6mqd+gHIFywK07PQIYXDEEr4fEHnZ2CQgjrCW4MRiH0QKlBTc+eYozl0d5/U8WWV21g8bGx8eJx+M1V372nSylssCRcP0FePUdSJXqNwJagtPk+VdKGcbPCI7NCgr/c/OQxtIXPc79XAFnDyIe7Ugz/2veBuu88S5L3hli9LsyTbPyQ/MjHNMNM5y2eN7XSpqUYPn7UogfP1htifWoJ839nHlujPkZ4GeEEH8G+FHgz2/1napQxzrwQ0KI/wb4aqAC/ENjzOeq6z5b0owuuk4tzZ32ju/Ukn3vvfc4fPjwnpX6NKKTdsjdZEJzuRx3l5fQgxcIm9xHpkpCjaQJ4CiB/67XKOXYGgLixlBpIIu6HDD33ooxf8/hj/0Vh/PnbfyqVCqxvLzM+Pg4937jFTxtI/KhB2MvwWtfBq/uedqMNHMZuPoh0FtETPyC4N6PJzn/90rtP9gEhXFIn33y72h8bzOUPrvxthFi45kIb1aFOJpk5XNNpncLvYW1v8H9Fxz+iSvo/6qCfPYiT5vQSJr7MOqiEb8I/Gwna1eFOo4CXwfcrX6vCBghRLbB7W+Jp1J52klMM+oddxxn22Ib2yWdxcVF3n77bc6dO8fp06e3/P5ORlPkcjneeustRkZGuHDhQtMbcDe94nNzc4yNjXF05BjLbaaEaAmh29zn8LZpnBsFqZOKobMhPYcUg8c2L5Bfdvjk38/wOz+f4N6XXGJektHRUY5mXqFSTG0g6XISrr0I9d2buuE0LffDu69A4AqkAbXFFVu47rD029uzBWb/aZzZH06h6hLU7R5m4e327G2mm++k4zjEb2y2vMwWl1bj27HVGI+/d/+0HHaD3Vqa0aiLBw8eIISIYUddbFBqF0Kcq/vnx7AE2BbiyY95Ajvy9x8DnwD+C/AA+EfVz22ZzHhqMc12c3b2UsqtHepd5e0Qc9RK2Wmt5szMDA8fPtyyHXK768KTccC5XI7Lly/z3hfjLS2wyNJs5fYa0WE8swo3ECwuPNnY6OGAvniIoyD32MEv2rVMKJi96TF9y+NL/0ljtCCRg9yAoKfhWb7eC7cvwKVb9t/1pDl/GG5dBCOpmbWVeINLX388AAgm/1mC3it53A4UyZY+6RF+3IMBw8w/S3D8f7LM2Yo01RqILewRmbMCKLLJ7yLuNXl4bhHTbPrEu+Ww8MMJDv1Ek3qxZ4j6LqBCobBt/YRo1MUf/+N/HOAmzUdd/DUhxH+NLSFaoQPXPHK7jTFfBF6LXhdCHMEqHY1XX9rSOnpqpFkuN1dr2Wspt1bwfZ+xsTF6enq2pRwEnausb7cdcruWZtShlM1ma4IhSm22zjbsU/U95TQjzY43DYA0hkOnFULYrpaVZYfiWqQJaeg/rkjHDeUVSX5ZgIAgkKAhVgI/1pyiHx+BZAlOPXqyvxPH4f5zbPqCH2tNmhG5mFAw/qMpLv5U+6RJ/h1J/u/GcYwAA5Vfcwn/KriZ1qSZ/6S3qdqg8VPCCPwvSxKXN18zoiH7rwG3hVBK/WeaIfwtl9XnPPr++6cnEt0J6klzJzHNj370o3z0ox8FOBO9Vj/qwhjzgzvdt2p23MGeVmmMmRdClIE/AvxHrPfd1gd7aiVHjYmg3bjj28Xq6ipvvfUWx48f5/z589vu7umENKPjSSQSvPLKKx0V8m9n5EU+n+ett95idHSUc+fO1c6tbkOaRmCtTGFJc9P7HW35CYQG3xeUtcDpMQQODJ0OyQwoDILlJYfJGZeFkiTznCJ7QpMYVCR8QzFl96VVDPXRSVgcMGgJ42fg/hmaMqzfYa6udE+y8KutP1yZhcW/kcJRVXk2Yy3pmX9itQVakWbp9zuzM8qf2/w59UAgw20+qezetXhVUPqXcYLCDpZ8CtjPRNB2Ueeefxjbb/69wH8rhPgL2Oz7vU7XeiYlR/vljjde6MYYJiYmmJ2dbTqIrFNsRW7RfPPtHk+nlub8/Dz37t1r6u5vZWmCfV/LzQJk7bbc1AoVgsqkxDmleHTfIx43GAdWC5LBYwoXw9K0A0bgejA/7WAMHF+D6a1ELARMnBCUkrDe12KfgJuXoP/zG5NHtfc3HJBg6ufi9H1NgNcQ81VlmPneNF6pPphq/xN8xiX4f4KJNSfN8K6z2dJocq6Csc1PKfVpd9NHTZsHSUcw8Nb/Nc3Q1xZqohoHZV7QQSLNOvRiazJPAimsVflzwH8G6ES9/amWHO2nOx4poUcXehiGtZlErQaRdYpWdaD1pNxqvvlW+9yOjI0xjI+Ps76+3rIkSqnmViQ8Ib4orhm6DWQj2tdFNoNTFMgeOJQOWZuVTE+5ZPs1SJibdckMaLJZBcaQGVLIBYHU0lqatCcII1oTJsBqH6wOwJtX4Kv+0Gxykzc9f5Rg/EdSXPrZ4obPTHxvGm+5gfqqP4MTCqb/YZJDP1zYRJrBIohmYlpNjkk3affUb7rs5CpsF0YxAjIrZxgammF5eZkHDx5s6gd/Vi2XB6n3vK6UaAH4G8aYSEcTIcRJ4Agw18laT63kyPf9fVFWjxDVakopyefzXL16lZMnTzI62olOV2dr16O+HfLKlSs7EvTYSr396tWr9PT0tBU81krUXHDZcPNuIE0suW4kze1bOrEKVDTMzLrE44YjwyELEw7rWnJ4VFHJC1ZWJJWSQCvByTnI9dARM2/1kcdV9fjFQ7Cehd7GhEyT4yhPOsz9B4/D3xEgJUz+zSRes2RM3c+gfs8h+D6x6Zw3i2e22m+xvPlVc6dJydlubwMBhUdOrYAebPy+Xh8znU7X3t8racNmaLyWD9IkSiFEyhhTBP4/wO8B/1gIccgYswD8XeC3gF+oU3dviX23NIUQrK2tsbKywmuvvbZv2fEoBLCwsMDDhw/3dERwo0UYDVQ7fvw4x44d29W6zdzziPQ7UW+PuHyl3/ZmS/3kv6Fj7ch60tzkogu2Fdx0Q1gt2xUqFcHEnEvfIU3K0TyecZCO4eRzIeWyQE0LkmWHxajlWG9BjG32Q0vI13l6C0NiM2m2wOzHY8yVKhxZTyD+oMUlX/dMdJRg8Z/0Ir5v496W/6Dz5gepBP4DQez0k4OSLfrSd+WeC6g0dCfFYrEN/eCFQoHl5WVu3bpFEAT09vbWOrb2cips43ygAzaJ8jkhxB8BXgIqQogfBDwhRA4Ypn0t6AbsK2kaY7hz5w6rq6uk0+l9LSeSUnL79m2MMfs6Ijhqh9zpQLVW60Z4/Pgx4+PjHZO+jm52Acq1936USx06a8gtCCaPQ/+K/asvPTK07sBpuc/GbBpLsbomWQWOngzxVwUzCw6FvOTUI7uNQtVD24oc2hGqn9g4H7fQcC9G5UZNoSSrv5tm4HaTeGS07YZjkl+KY/7kxvCRuiebfr/Vfpc/6xI7bX8NvQiiWWt+J5Zmu89IwAjW70myZ5pk64Ugk7Hz00+cOIFSirW1NZaXl3n48CFSypoVupejLuDAxTRnscT4h9ikjwGS2L7zH6++zlZWJjwFS7O3t5czZ87whS98Yd+2USqVWFlZYXR0lPPnz++b6z8+Pr6n7ZD1iaCohnR1dZU33nij4/Xb9QxE0gPKtS7t4hCcnVT0z9eNI9juqRKC4oyDe0wz2KMRoWB5SeL7gtl5lyPDIdJA1g3JrjsU0qJWR7obi6rsbdzRXMPzZMvj8F0KaehpEpPUbK6VlFrAvzsD/5Xd6WAOxDbbvv13n8yMV59u7tp3gk4SdgtfcMme2VoFyXH2z5VvJE3f9w/EbPoqRowx/0kIMYWVk5vD/vQVbP96x33e+x7TPHLkyK7Gym6FyPLr7+/nyJEj+xL0jhIyQ0ND+zLpMgxDrl69Wmu33M76um2ur+G8Cyidgf756nc9g6ls81iMjZ2GK5KJosRIkI7h0HBI2rP//2jC4fQDSxGN5NYOWyWJ6rHesK7eolBfGhvCSBc2x35bVR8kbqYpPiiSOq3JfzLWkvRabVWNP1lYfd5pmgTqJKbc9oFQfW/1pgstJ6W3xl668u1U7g8A/rgQYhr4BuBFLFkKLFlmgf8Ba41uiacS09wP0oyIbG1tjcuXL3P//v19GXmRy+WYmZnh6NGjnD9/fk/XFkJQKpW4desWp0+f5ujRo9teo90h+0EADbfqdOBwqk/jr0oGRn3WHsZtb3po/xoJpRnSZUMYF3iBIUhYK3B+1SWT0hSLgkzMMLAMIDaQptyFuH4jcQRxW7MZq8YiAq89+QtjLe5cT5MEUouvSiOY/Dsuz/1sgfIftilXa3XOFurK327svCRamNabMNVli7O7L7nerSt/wCdR/mtjzIoQ4uNYl9zFjvCNY4WIVztd6GAL9LWA7/u899579PX11SyzvRIirkfUDjkyMrIvpROlUon5+XleffXVHUvSKdX6wixXKtjrYiPkCQ2rEqMFRkIQs38Ym0RyQ9BOE8uteucmCoK1rL3JYmVwKwY9oDl8RFMpC2JvShwtKCWsMEeELd3zdu83OcxiCmJr9v9blV1tWFvYsqWe3MaHgxatuzy8WzGu/vo1Do2/su2bRZZBrYDTD6LFcLpOzIlOLE1VhrAM7h4mx7fryh/wSZRfJYTwsCVHRaCAlYkrAoExpmOVl6dKmntxEqNC8vPnz3Po0JNhYHtJmlprbt26he/7XLlyhdnZ2T2dQWSM4f79+6yvr3Pu3LldaXi2c88z6QyLTbpFljJV5dbGOzZKJrlw6DnF8t0nl4cRhuV+8EJBsmiqfqV9TxqBXHKYW5MU4oIrVScn35AD2E0iqBlxFFJPNDm3imlKXS3yd2y5Ur2WZ7sKAmkE7r98DadNGKPVcQkEi3/ocOiPKuQ+yWA+OW7B4psuw1+78wkJW6GdK+/7PrFYDM/zCMMQY8yOXPVo1IVSinv37v2tJqMu/kfgL2Hd6gXge40xjzpY+o9jLco4NoYpsG6YCySFEB8zxnTUyP9U3HN4Qmo7zWobY3j06BHz8/NNC8m305LYDvWScZcuXaqpUbcTHNkOwjBkbGyMZNKq/+x2YFvb50SLB9S90OFlR7cdHbtpqSuKm5797YZRyKnN3S1uKBgoGWKBfWc78cyt0IwU60l5K9m4emJb67XWZq2KoA1pKgnJ/BYpnDaX3fx/8RgwbdTxO4xpttx+3eWz9M7+kmY9mrnyDx48IJfL8TM/8zN84hOfQGvNm2++yeuvv94RgdaPujh27BjxePy7moy6eAd4wxhTFEL8VeDvA3+6g13+cZ7wXQkYqv47xE6k7Fj55KkNJd6uEHE9wjDk3XffpVgscvny5aadN3thaS4vL/P2229z9uzZDZJxe0XIhUKBt956iyNHjnDx4sU9maLZ7pBbkWLFCORwqa0kWf1XU8cVn/OeXPQ9SUEu27wPXDkCLSBwodzgKm4V09xOIggaSHOLK7l+25G12W5tsMcwexT8LRLArQhNC3DuO1Te2t1t1qkFnrv/7JIwjuOQSCQ4cuQIP/iDP8g//af/lFgsxs/+7M/y6quv8pnPfGbLNepHXVSrR5qNuvjdapE6wBeweptbwhizbIx5jHXL/xjwNdiazaQxZqzjA+Upuuc7JbVcLsfY2NiWiRLHcTqaUdMM9Vbs66+/vqnUYi9IM8ryv/TSSzV3fLdJsndmBfeOg9tfxiuUGPQyVFYqyCBJKSfbxssKg5p0u3nm1S9Lz3D9NJg6JR6tAWH1MEMXEuW6GGG1XTOfYdPdvpvATDNiq7dktxAK2kTIa72QXa9am02+W4nB3LAl2EIKBlY2f2arjQceqIpm5WbAMM2Zd+swr2npMTR+v9KkC+lpQilVa/XNZDKcPn2aX/iFX8AY09G93+moizr8ReA3Ot0/IUQc+F+xhHkD24f+ghDiR40xn+h0nafmnu9kuNr09DSPHj3aUpcSdk7KjT3qzdzl3ZBmFL9cXl7eVN+503WNgU+NS748J8mJEipt6D/Sw82KZD5lz5PEcDFtGElqHk8JwoaE0UwsxtlOTtdrimm98TKpP82hBwXHSrtF6vCBtzmeaXd8GwfZ+NUWpBmlq0zDz6alsbWWVTSSppE2KTS4vHntQgoWDj1ZM582bO50r1+s+ct+DLyyQyzfWpNANNm3DdjCSK3fd6MFhRlBemT/SvzaoT4RFM1HAssBe9lsUl3zzwJvYCXdOsUA8CeMMTXJOSHECeysoE9Ux2FsefKeqqXZqXuulOLmzZsopTru7tnJnKBCocDVq1e3bIfc6QyiKH6ZSCSaanjuxNIsh/Dxqw5zeajk10h7HjqeoqIE2aRBBQV6Uh4pT3JvyaFsBNkThotSkZuVFKpCwcsijjpcwsm5qBZJjtSo4jPeZpevMWNvZDWT7UOiZKjERa0LaCPa11Ju1z3XrhUlTlQ2G3vLfYJEBTLVRFiz0ECuB3rXNr62loXlgY27aZzmI0Nq+91sf7EPD6kFcr01821paW5hPDa+//hzLqe/49noaz6tURdVAeL/N/BHjDHbdS+vCSHOYkuMytgWykgWbkstTTiA7nmxWOTq1auMjIxw/PjxjrPt240PPn78mLt373bUDuk4zrbJLepPP3nyJCMjI00/s90E00IRPnHDZXJVoyoF4vE0M6UY5VDgSUMqJlDKxQsEjhQM92q0ESQcw4OSYHkILnkh3qogr3z+U08S76ThhUBxfMXgTkjKC9UbXMDNM6CbuJ5Nn33Cxv6GMprVorPJ8gMYOqJhdmdxt1budyFlSbORPBYO2VbLN6pTY5sRcmRtJovWDV4eEKw3uxTM5uF0tbdMc9IM3SeWank3d9lWpNnw75Xrz44063vPdzvqoiq0853An6n/jBDiVeBfAN9UjVFuF0ng3wK/ChzCuuqfFUL8d8ASdlJlWxwo93w7RNaITkm5sSi+k3bF7VqanfantxLsaMSdJUGo4JN3HPLlEFUp4cTTJBKSYe8JMa6WBOUQZvMeg8pwJKPJh+BrQV8K4q6m6IBOG3TF55QHJRXj3bzk3cMCDsNRrXm+oFmUhsmg+eURtBHSzWQMCy28UXcLV3O7libYvvbBlY2JIIONR1aSsDAEhxarLdps5qBcD3i+1fJ02zxzQxfi22i4CeqSZMoVTVWoIuzkuFuh2GI+0dNAGIa7Is36URfV++2Xmoy6+AdAButOA0wYY761w01obAx0GUuYi1gdzSw2OXSHg0CaEdq551pr7t69Sz6f33Ffdyek2TjyolMrttPYozGGBw8esLi42JFeaCcD20oB/KM/9Ei6MOQVEGWfw309lLUk7wvSLvgGQiMY7jHMKMWpTAUhXMaXJK4DJ3vtNhIOIDSeJ1ipuLhakEkYHFeRcGyCZz7n8HuOw2AbNfCgTZSlfR32Fg8IaVqalC1JM7P5/XzGEibY+UNDizYi2bRlUVhh49CDIy3sFmGaK0S12y8/tvEzygG5g+KRrR6pjVdPWBToEOQzaFupn3e1Uy3NulEXAH8HaBx18V/vZN+q8cp54J8IIU5hS43KWHd8vRPx4QjPnDQrlQpXr15lYGCgrW5kJ+u3I6D19XXGxsY4e/YsR44c2dbanZBmGIZcu3aNeDzOG2+80VH9ZSfrvjkjOdGnWVqvMJ5Lk3DTJLVhpSBYLlXd8rihN25Y14KY1JSVSzYhONprU8MhsFoUHElryqGgEEhiUqNwCZQg7hrKoSDhGoZ6FH2eQacEjgYVCsplwXpRECiBI0xTl72GNoez1RkRbdb1WzxHc01Ic6lOTCvfA7PDgpG51vWYodeBRSfaxzXroatNAhGMaCIA3SG2elRvdlQES192OHSlg1DYCvg5Sd+JvWncaLQ0+/r69mTdvUB1fO8J7JiLS9gCd4lNDv0m8LeFEM6BUG6vd88bS4KWl5e5efPmnoy9aOdCT09PMzExwSuvvLKjp99W5BbFL0+cOLEt0eNOEkG//VDwYM0BUqQThpGMITRQVnB6QJP2DNcXJKtlyWBSk3U0ShhKISRcQTmAQFsrdKUsiEtwBJS0JOlpQmOQBmKOIVTQEzesVCQiZl9bLgiWXYnoMfR6mqGkJluAlRmHit8sO9PmeGljOQlNO1rN9ivWmkheRGVH9aQ31/BMnDpmOLwgWhKjctrXkEbWaeh2RpqNBB9ZmjuB2SKoaZrYv4tf8joizT/8yTQvfsfeTbNsjGnuRmt2L1EnLPzNWDf8z1DXDUS177xTa/OZJIKMMTx8+JDHjx83rYvc7foR6tshL1++vOOyh3akGc072kkcdisyfnuyyJ1iP5mkYiAhSLoABqUE6bS1MCsaRnoNMccggenVJAaHU/0GYyDlgudCMRTEHEumKddQRhBoQTIOpVCQ9TTShbWKJOEayqEl2760JhE3pFyDH1qZtze1S/yo4Xk3JFyQrNVlh00ba7FtanILpZCetLFlyQ3I9diunSBm8EJBxTOs9m3ch8ATzB6FTLNRFdh4aFvSFJbsOyW+oKHoPyLNVrUDbUuOtlBvMk2eBI+v+Xjj4zV1omZez81PxsgvSrz43pUnNbrnB0hLMzrIaeCTxpjJdh/eCk+NNKOOoCAIGBsbI5VKtayL3AkaSTNqhzxy5EitHXI3azeSW0T8CwsLO5531M7SnJmZ4TPjkoFEluWyQ77hhpcY8kZwNGlY8W0N4ZG0oTfhI4SLxqMUQCZuXe9KCAkXXIHNtjuaQEuUgR5PU9ECp5oJ9kObWCqG1iqNOYaSEvQlNDlfcKIvJCbhQVGy1is4f1jRk4PH807bXvh2v0D7UvzWFqoQ4B/SiH5gQbAwYkA2VtUb5o8IvKC5i7xVN1H0mXbEV7+fzUiz1ez5ra7KrUeiN2/K7+vrY3FxkfHxceLxOAMDAwwODpJMJiksCG7/ljWH3e2NtdoS0X12kEizrvbyPeBbhBD/BvhtrNipwCaZ7na63lO1NEulEm+99VZHYxy2i3pSjNz+S5cu1RRadoNG118pxbVr1/A8r+P4Zat1m5HxjVt3eJQ3fNm8TGAEh7KGw3GD78N0ThBqwdG0YbogWa7YOOOZrCFXgdlyGkcYvJghkzKslwQJ1xLfar6Mo32ME8doSMQ1KccQKoExUFKCpGsoKwiUJc6KsrHOTFyzWpEkHGuFKmAgpUnHBMozzCUEXl+ILkBPWZNbaTKHp+3JaE+a7cKo3jHN4V5YXpA4lza7+WHM9sNPHrddQIcfbyRPLTush+wgNllfalT7bvW/zWbP7xbN9tsEArk6xPnzds5IqVRieXmZ8fFxyuUyC//xa+wXDTje/hTCH6RRF3Xu+TcAz2F1M/8YVrxjFPinwN1O5gPBU4xpLiwssLq6ykc+8pF9m1AXWX+t2iF3inpC3qv5QLC55CgapraUOMLP+8/xwpCmXIGJvGShbO/EeMxwKq0ZcA35wLDmC5QR3Fmz+3gkXSYlBa7jcXXR+pMDCU1S5XFdDykzeISslTReqcBKJcmaShFzJNm4wTGQkLBStiVCqZjBk9ZaFRh8BXHXuvQJ1+A69r10XGM8eJCQuIc0qqA5UoLkiiA3JwmDLUQvtlCtaHcll/ss5wrPcEs4m8zSk4c1Cw8kCFjvtS790CIMLFcT9h088yJy2jScrgFNE1Z136VJCeVelhxF2/vc388QHjUMnQ4Zfd7l5GtWIObqJ2IE+Sde0Y2b1zlcSu355Mp8Pn9gJlHy5Hn9OvCvjDG/1OxDnRAmPAXS1FozNjaGUopsNrtvJzIMQ0qlUk3UY6/c/nosLS1x69YtXnjhhT3JDNaXHBUKBd577z2ee+457gejlJcFb685HIkbRrIaowUpx7BQEtzJSY4kDQsIRno1AzEoVqwVOu/bB8W5pOLckGJyRbBcltg2W/CkYTQtGEz6hCZD3JWYcgU/VPhlTUEkWKrEAcFwWrFeEqRiGmMECc/GRKXBWqGBfS0mFZXQljeF2nrHIgVTcUFyyOCf0mTzUMobUhcULAv8ZYGp6ywSW6h5tHs3l4ZsHpyzmorZHHhsjIAYCQuHbWH74cedxSojYg1drOZ3bcc3fq7RNYcnVvJOkkFbJoJavO0FgkJeMHktxvQYvPkJQyJtNggjA5y/cJ6yWKxpZGYymZorv53Sv8Yw00GaRFmHWeAbhRCLwAp27EURmDfGHIxxF2CJYXR0lJ6eHr785S/vyzaidkjXdXn++ef3fH1jDJVKhfHx8T2d1x6551Ey6aWXXkInstx9IDgUNyxUBPMVwTwO5zOa2ZJkyRc8369ACFKeYTIvmCnZGyGdNBySRVISpgpJCqHAkyHPZUPWyi5LJUmgBY/WHRKkqBh7hwtsyVLC02hfEXd8siaPCD3yQZqlkkt/QtMb1whHUAgtWbqOIe4YAi0JDZjwSflS0jU40lBW9rNmyPBuVuKMGh4XBAUfRkLNcGAYKGnkQoEhz0M9bO4rtyOPFU/Qg2GlVc91C8YNYjB9DJRnMFtYWPXjkDcUqtdtUsmNpUY11JFmY0x0S2HmbbZRRvBCEEMaT4IIwF8RmAW5abnf+Ed9xJK9DJ46xXOXA/qOr7K8vMS1a9fQWtfmp/f29rY1ROqTQHCw3HOe/EoLwHdg2zPngBTwMlaf8w8OTO+5EILBwUG01vsyjiLqInrppZe4du3anqtFR/PNtdb7YsHm83nu37/PG2+8wVSY4BfGHdZDQSpuOJMwKAUP85I7eYknDJf6rdV3vZqxjruG59KaGDBbEDz0U5xJlsgZGPQKHM7EWKs4PFaC0wMKHUC+UGE9fDK+wSBYrQhWKxJwGU4qlssDjMR9+kUJX2niRjOzlqSoPE70aoIQsgnDWsWmcBKuoRRYMok7hlIobJY+MHiejY36xhbYD6U12aR172d8eDvvcvSIw2+edxhSmjdWFMcmwL3loPP2t9RtLuVFIziOYTwumxJku4x+hLU+2z+fydu/VHFjmLVGTm0K1ZtZmc2+21i2tOfuObYaINOnWZiyt3hKNX/sGCOolGH6lsfMTQ9HJEkNDHP0UsiZj5QInaXaPZZIJGpK7anUxvEfB3kSZeR2G2P+hRDiF4GLwGHgDHCBbQxVg6eUCBJC7LnsvTGGu3fvksvlal1EUTZ6r7ZVKpV47733GB0dJZ/P7ylhRl1QYRjyVV/1VVzNOfzChEtR2SRLnwuFENIejGY0GQfG1wWPSoKChmTcMBAzZBxwhbHlQwnDoFPA90OOewFuIs1CRbDkC3riBqSi4Jc4nHVJV8M30XPVYEuUej2NUbZE6VE+jiDGiawi4yjyZYUgYD3nk/RgIUyTjgsq2rZWWuIUJD0bB9UmIlaBK61LX66+72Cz+KmY4XRfQKFgeG4gZD4n+dSQC0PgvGp4uai4NG9QrrFySk2woiS6RzHfIjjZLlLluIawykxBDFYG7J/QljgToSGzKsiuPvlOq2RQqwL8ek7stEC+2Xebvt/iUheAWxUjcQKI+aKp1aqkTZuJ6pcUgvVlwfrnYtz5A4+hs2m+8a/YCQnFYnFDQqm3t5fBwUH6+vo2kWYYhjWZuIOAamH7G8AIljC/D7gJ/BxWJo5OrEx4H88Iunr1Kr29vRu6iKKyo70gtygD//zzz9Pf39+ovrIrVCoV3n33XQ4dOkQQBEgp+VcTLo8rglNJgyMM94rWlcp6mhCBlIZDaTieMKz6kA8F82XBxAb5M8OAliQcj6FMgqUSPA4kUhiQmpVSmaN9cXKBx0JJ0BczpD2DJ60lVw5BI7mz7uAIw+mBkFIFHq27gMtQUjGQ1kgZpxIqVCVkJVcm5hgqIk467hBzJeVQ0BOzPfF5X9bI1HENMddQqRJsWUNMGgLANy5GwmCPpk8bkq6hUBG8IyR3Llg3/+IJxdHHsPaodpvXMD9MyyLQdqTpxkzTIn0jbYumd0Hx7mOX1DkYnofhOTgyZ0iWN36nWanRkx/myf/WxzVbSHm2/G4ztLNE1byk74UQrjpNNTmFAeWBiYGpgBPWEShghGDpsWNFSQSkUilSqRTHjh1Da83a2hpLS0s8fPgQYwzGGFZXV3ccy6wfdfGX/tJf4m/9rb+1cX+F+FrgJ7Eu9XcaY365k3WFEH8Ha1GuY1snfxn4b4HvNsbMbHc/33ekuba2xrVr1zh37hyHDx/e8F5Emrt5whljmJiYYG5ublMGfi+s2Gj/L168SDabZXFxkd94LK3bGjNcywskgosZg4vhak7iCujz4GhCM1mRZFxrifbEDdbzEKAVOreK7yWpmBi38zZ+OZjU9IsyxXKIjKd4b93+5EnHkIxbl20qL8kFNtG0JODcoGK5KBivfvZYryIhDI/WHHoTmjvrLkdTgp6MQzmI42JQKmCt6BMjwHMccipGMu4QGmxGPop1egYloBIKehOKtYo9Pk8qyoGN02oDZSVIJQwjjmYwpskHgvt5ybUjkpFhzfPriuI9h7BKeLd6ZMt5gm1J06Pt5NvI9Chm4H4G7p8BqQR/9j8ZnHVRG0AXeLQkONOCNDvBbgqC3DXB+g2XxBaWrQoFOCAShnRWE6wKwqIklrIVEaWcIJXduCdSSvr7++nv7wdsk8fk5CSf/exn+bEfs63iH//4x/nGb/zGDbO8Wu5Dw6iLy5cv88M//MPPN4y6mAC+B/ibnZ8FAJ7HkubPAb9qjLkrhKiww8kVT500d0M8U1NTTE5OtmyH3O3Iiyh+KaXcFL+Mkja7mes8OzvLw4cPefXVV0mlUiilCI3hZ6ZdjsQMvTHDCWFLfhTwqCh5LmUIFCz78J5yyTqGtDT4BiZLgoKy+zhkigxlevF9mPdjCGHoSyg8XaGiQ/r6bAwqEVfEgcdFwZ2cPRaBYTSrGUlo5gqCm2vWyj3dr0DDxJr9XH9KE4sJjqQ00wWHiCWyMc2RpMDxIOPGKPqKfEVRqlSIOZATcXoSEs+RtSRRwjHkKpK4A8VqOZJXjYUmPUM5sGLH/QnFdM7BFXAkY0i6AdrAe0lJPg2vByGpdbi72vpS1m0mdm5Vp9iMb7UDwYcUzu+79LyoUG+5jF/UPB6QpAvU/lJFgzQb2ze1rBNOrr7eviOo7e61tTRFAIlye+X3wdMhhRVJaV2iAsHqkgPCMHhKcekNn3Mf7izcJ6Wkp6eHb/u2b+NjH/sYX/VVX8WjR4/4ju/4Dv78n//z/IW/8Bfafr9+1AXAd37nd3L16tVvo+o6AxhjHgIIIbZb7frngW/EJoGuCCE+D5wE+rHq8NvCU4tpws6Hq2mtuXnzJmEYtm2H3I3Cerlc5t1332VkZIQTJ060XHsnpBnFXyMVp2j/hRBMmzRFLXhQ5+4NeobRmOZIypAGHA8mSoITMU2vBwUFK6GgIGAkVsYNyhzqSXE951ExghOpECeoMOEnWRGWLE8FPhMVjzNpTUHBgpYczWgGY4aiD1MFia8ljyuSnqRhNGljmzMlyVCPps8zBCG8t2L3vSdpOJpSGG2YzTncXXNJOhqM5FBS0puGYhAnJjUyCFjJB8RliCZGKiUoEcPXAkfaDPyaduiphgkqVeJ0paakJCUjSDngOJo1XzCTc2z7oISxrCQzpPH8kEMhsCZYXpIbREXadSk5zhadSC1YaWbYVklHmHodphs+qoBMEVKFjUXtX//bhuHHgnLCEA8E5QQkW7SAb1eEuB7apS1hAszMuCCg55Amk9XoimBtXrI8Lxl9vnMDpD6mqZQinU7zIz/yI/zIj/xIR99vHHVRrYHuXMihDYwx61iX/JeFEC8BfxZLxj8khPg94Oc6rdGEp2xp7oQ069shT5482dZK3aml2Ri/bIadEnIYhly9epVMJsOrr766Yf+FEEyLFOfTmvVAsBhYibelQLAU2AtwNKYJQkFf3JBxDK6A0EBGGAZNEaM0g9kMJWVd4AS2FzLUARfSAs/1uJVzEGEZTYy71WTKSErR68KtnCQ0gnO9IVJYl3mmILm1bj/nCMNgDIRj8Bw4KjRp1+6H0lA0AjwYyWgOxxTrZUHeF8wWJaEW9McVQ0mB4wmEMMSNz3LRIHQe15HkwhiZuMQRT5SWlLbjJSqhtUxH0pqYY1gsSmaLDsmY4WhakXYUE2su0zkXVxq8PoXbrwmGDVkfMiXILUj0WuvfRzrtSUW14NTraWlJ0wCjmmmx2dM7dlQxM+dSbHCKHp2E4ccQxATxAIppGw/N5Dc3Ru00ew6gGttJm+DQ6ZCwLFh9LMmt2fvS8QznXw9I9XQeHNitavt+Q1RvvOoQtR+qvvY12NjmtqIgT5U0tzsnKCom77QdcrukaYxhcnKS2dnZLTuIdkKaxWKRd999t+VQOCEEk/Ee3kGCZzO5hx3DgNSksEVkt3OSvBIsBJtvgMOORyrm8diHjGNbLUuBwpTzqFgP130XfMGZHkVMpnjJhBQDzbqveVzxmKk4ZJyQM0mNKyXXqkQpMRzLanpdw1pZ8LAgeb7XcGPdYTCuSTtQDGG6GjcFOOJqlpUkFjOUfUEA9CatCpMW4Hkax0A5iNOXNpTCOJ5UVPyQ1ZyPg0/Fd0lIQcxxyQWWQD3HJpEwNmn0XE9IRQvur0rO9hvWlWA4q8jGDPmKYC7vMJrRBD2axbQgNqyYXRUczWu8RcH6nNxgPcotLE3V4idfFBKO2TfXn2+u0OS0iJiJlxS85aJjGgr2Q0HMFttn8hDbhvB6O1Jtpp7fiKmqpemlDIODClcYCsuS4x0NkHqCRtLcbrlR46iLqakpaDLqYqdolhk3xvwB8AfbXeupu+edzAnaqQrSdkhTa82NGzcwxnRUf7ld9faI8LdSP1qWT45NCcGshtnqEO/XEpr1OLwY0yyXBHMNs3z6kx43S44dohbTxPwyga9IJXvo8SSOqxmKGQpacK/oIIAzKcF84KFdQa+r6UERBnmmwwQDXsBATFA2HpNFyUSVCPpTGlzDc72K6bxkqWJfj7mGkylFXIA0hlt1ccWjWU1/zFD0BePrDud7FTfWXNKuZjilcF1DJXRIJySOC6US9Mc0a0UDuoJ0HfKBR0/CQQtBpar7WQpgKKkRGBYKktG0xnMMy2Xb+ZSIG1zPlmAlXIOvBZW04EEa4iMG/7zicB761qA0I2liIG5Au+dk4bwm+RgeHG5T99ME4z2SK0B/v0GtPHndSNvimSjbcqf6uGcrtHXPZXt5EWFgcFixNO8QBIK5OXvdua7hxLntiX9qrWse5E4szcZRF7/4i78I8MltLfKU8Ezc83aIxHxjsdi2i8k7nRMUufxHjx7teA5Rp3OC6rPvnXQP1ZNmIwoKygi+5AuENFzI+Pi5CnPClnSsVhMcGsGNkgOkOZ5RpByDDuGQp1lXEikhEHA8oTECzqU1gYb7RYc14pxJuywWHU7FfPJBwGQQJ+2GHPUCXOnhSVnLuruO4WSPIilgqSS4l3fo9TRFI3luUFGqwGzeYbYkmS3Z40gnDE4cDqc1jwuSe9XCfClsXDTphCQcn0D2kclAORDERUDRVyznfGJSoWQCYg79CVgqOaSqtaDKQEzaaoCTPYqEW61Z9Qw5X6D0k8RSoARuwjDjCFaGDOqUpuxrevpC5IJgfUFuimGGbQrjJw/D4BKMxbaXhJ2XEnNIQ7MiD2FHIweeTeJs1UbZEgb0Vl1OwMyqQ/9hTU9SszjjoALB8Ihiu6H7MAxrxs1OSLNx1MX3fu/38t57720YdSGEuAz839gEzrcIIf4XY8wL29vT3eOpu+ftLM18Ps/Vq1c5depUy2Fk7dCJNbiyssKNGze2rYDUydpbWa/vFQVHXMNwXRH0imMvNIlhyIV+zxBzbdFxPIRMYMhrgRGCWzoG6RgnHM1hrRmvbL6yJ32HSeBsXBEgiUmIS8OrPYpAw92iQ04LDnual3pDHuYlE1UxkId+DIhxJKUZlIYHxQS+kYyaNQ7HYvTGBOuhx726IvPDGc1zKc39nORWNRt/sk+TxPBgzZKQ0nB11UEbwakBRczAwxWJNoLpgq0B7Us69DgglWGq4DCccsmmHCsUYgwxHYCf53FJIKVLTsXoSUhUKPCrSkzF0M75SbmGlbK0ik3a6oAmXEMxAMexXVShgnTM8BgHDkF82OCXFIeKVglpfdKgAo92P/mNhMO5wyHBDoitdE6TLLT+nnLh3oc16YdOWzm6lsXtxk4HrbSRfjNVrc6VNcnKmiSeMBwZDTlxevsS83uhpdkw6sLu48ZRF29hWyCfKZ5J9rwZ5ufnuXfvHi+++CLZbHZH29nKkp2YmGBmZobXXnuNZHJ7QoJbxTQrlQrvvfcehw8fbpqw+o8rkt9el9woSU4mND8wFHI2CX1egXJPD9MIFoWgVsaDoaQFyR7DhWKeNd9jWVirdUJJnLghdA0n8qsskaXQIFQRd+BmfjOppqRh0LWJp1BJVrHtmadSil7Xqhith5J7vofrwavJkFyQYbmimS27GAS9boUjMY0RHlNFhztIVpTgbK9CKXhU3e5gWjMc14gQblfjpQ+r7w1lNQOiwtSaS8KVLPkeS9V6yUM9mpRneLjm4itB2tOc6TUUgixuCDERUvRDVtYUMVfjizgi7pCUTxJKUlBLLBVDq06fcG1HUjamwbGCy8mqyx8KgZs0zLqC1UHD2mCRYzJFXAmGA40qC0oFQb7w5DdaE4LbJ4FS82uinWOyNArH7rX3XPqGDI9zWAk3BW4IXrAxE9+UNKu6qMkyVBJtSo4EDB1XeBjWliXFgmRi1uUbvmH7au6NM88PWiJoL/HMLc3GdsjdFKY7jrNppAY8sQCj/vGdlA21I81o/tCFCxcYGhra9P5SCD+z4HI+buh3DQ98yV+fjNHnwmQsbmurG67rPmEoISgheDeVQSYNL6MQFbhfcUgKxQoxVjL9xDG8JK0i0axvn/atftiiFpxOaW6EEl/DsbhiyLXW7ERFshwIjsUN5zIaD82aL4m7cNSVDBkNxqCVQIUa389zTAQEOs1Q2uWx77ISSEYzml7HcG9dsuRLnu9VDPRosq4hVj3OfDFgqgw6KXmuX7FQNEznrWW6ULZSeKmY4Ww6ZK0ouLni4WtRdekhm3YoBQJXGHQYUCoWcbXCcT1ScZe055EL7FyjpGsoVgvnk67BR6AVzJckR9OahGcFl5PySa1oTASsp617HnMMSwXBSlLiDRkOuYo+aeh1DA8mnR2R5sSA4NiDDoWXhbU8lQuVhG3xdEMoxw26MUNuntR9SmO7etpENZl+/ORe6D+kOXEkZGBg+yX1u00EvZ/wTGOaUTtkX1/froaq1a/fSGxR/HJ4eJgTJ07seButSHNubo779++3nT/02znJyZjmRlnS50DMgbKANQU9RVBlOxu7nIJoDI7tDX/i3msheBcHEnDK86nk1nBjQ4QIKgi+pB1EzPBCUuEFEGg4EtNkPUPMgVDYaRGLxooGP+8obq1LpioOUxU4ndCcimuOewKEIW6gYiQZ1+BKKATwqOxQ0gKJYcBzOdMfY7kiWCwLBisFEkpzxPFIC0nBeCTjhpMJRVGJattnfbjCARdGk5olJQkd8BJwLKkQBubykkIguLnmcqFfIeOGHlexVopceotsTDOahlTcYz7nEBchquJjCnmMkOB6lPDwjQAFPQkohQCCs30KbQyP1l2KoWAoqRlIaGKOYrnokRSC0FiN0f60JhkzpDwriXc77zCS0EwNCs4PKwbXYGFmY3unbpOluZWUfJWzRbinBXcZabPt+Vc0xbknpGcwTB0TSAPpPKRK9jVhmvedIwwDA5rlZbvGyrrkhXM760HqkuYeo364mu9bHyxqJzx//nxHbVadoDHuGMUv92pwWz1pRvPT19fXuXLlSsvaU23g36+4zIWCmDT0eYaYgSUjUdLeAG4AnoLkGoTSTkcs6yIkmocpHjoxckODuMbwvNY8KEly1bjnNe2AA0NSsxLFVBu4fsAY7mqHk72arG94UJI8KEseIBnyNGeTmvmKJCUhQDCZkxSqep4jcY2q9qmP5VyKWnA0rkm5ae4VJEqDUCXcIEdKCAqBh3A9QkcSdwxpUyZJSE8qiTKCtDC1gvnRlMZIuLtulZOO9Vrr1BjDZMEqMAH0pg3DCRsKmM05KA13Vz1cYTialCTdBKvFJEslBwJIigoJUUF6sJyPM5iGXGiPQSIYiGuOZwxzRcGdZZfRHsWKTpM2dkRIqWql1ncsXRgMyAeSM4OK+aLkdloyfFHznK9YnbTZ6HY5yXUh8LOmyai4jddOO+iGMrTSVyuuZauNE9pgpCBWEVy8aUiXNlukWgpmig5HhhVJaZifczgxsrOOukbS3Kt7+iDiqVuaYRjW2iGjdsK9XD8izcnJSaanp3cUv2y1dkSaUcF6Op3e0kIeKwuMCxdjmoSwN4JUEMMQSKsqg2M1Gn3PtjRKJVgxPSSK9nVhoOJRy7YmhWHBCAyCBQnJlOEVFEtlwWwoGZaahaB1RjfKuj9SEhx4pU/ZqZOBZDGQpGLwIJQc8TRHPMNwSmM0pBxY8i15zvsOp5OKgZhhLRDcLtr++XMZzVQxwZpMcTYVMF+B3kqRjC6hDaRcQcVNcy3v4AlDQkA2pTkaN/gh3CtI0jHDsaRhIi+t9VR06U1qjiY1WsNMTnK7LpsfSslzAwpHGMLQsOoLVpWkN6UYTGrSQjCTSzJbkSREiKfylE2cRNLgxVyUdCiGglNZzeQ6FH1BjyxSClIslyW+FhxJKfritvA+5hh8ZYv3XWnoT2mScUPaNUwEglXPcAmFLLa/pnI90Nfm/VbdSBFUXT1n/KLiUz1PKPjkEcXDBRc/DvfOwctXG9aOfHgtmF+tKvwPao4f2RvSPHXq1I7WeT/gqZKmEILHjx+TzWa5cuXKrvq4myEi5evXr6OU2nH8shkiKzYad3Hy5MmOMvxfrkimQ8F0o38kIZA2Yi+qwX0FKNsdSIidOy6NwVEQCyGsQOhayyiPU/PeS0LweRxEwvCKUBxWGl8L1pr0XEtjWA43vv5u6JCMG15OKh4UJJPVetD5QDJfvTGT0nDK0/THNTEDF1IKT4CvBH2uIeMahjyDAqQDr6RD8lpSQLJCLzgQQ+HJEsJf55CMMZzQFEWS6aLD9Wos1nMM/Skr6pGJGwYShp64IlCwGgqWywIt4XiPIinB0Ya7y05TgvGkwHWqWXXXIHxIxB1isSwpEYKqMLsiiFEim4LlYoqhlM2yh0qRqbZy9sQMsiq/15fUTKxbUea4Z55YoVHiKWbIZgyFuGG5X+APKA5VDPG87boJ6qzDt1+H87GQo+9K3PHND7mtqud0VazE69P87mmxoTyp/jleSAuSzylK9+uk25KG+88pkhWJyPjEknDikMF129d2tkLXPd9jCCEolUrcvn0b13V56aWX9lxfE+wPt7CwwHPPPbdly+V2IaVkfX2diYmJbY3rfRQITnt1bn31vwtGsCQhWQGE1WKUxo4pEFg1nNCx1oaW9ouuMri+IRdKshg0dqRuNCLWjwneEQ5vJOCRY9XMjxpNn4G4tgIYWsOd8uYbtITgi9rhxb6QhBbkfMFk+cmNWNKCmyWHF1KKq3kHgaHfhX5Xk0IwFDdMFCVlZbk87QniLijHcIQc2XiMpTDGRJABCUdjAY91iAmKlGWaEa9CxnNY9j3GqyVNz2cVU75kyLPD3uYqAgP0xqsPF9eAhlTSEJPGxm+r56ocQq4iKGuH+9XMfSah6UlaEZLpvEc5jHO8J2SukMTRPkHg45dDXEdSUZIeDK4UFH07nM6KjDgcSWmkMCyUJIslyXBak43ZLHwQwmBSs1CtJXUShjlPkOozVI4oUiXBQMUQrAp+p9/lV79GwNfAyaLmj0xozl0X9LwtoSjQW1T+qAogDeMf0axtcStPHjUM3X/y76Ehw3d8fxk/hC/cgInHISd7xnnrrXWy2SyDg4P09/dvq+X5IE6i3A88FdJUStXaCR8/frwvhLm6usr169dJp9P74hosLy+zsrLChz/84Y47lLSBX1eSdbf58Z6RmmJQwjcuKFu8aUcvgOsLlAMxbWs2dTW+KEw1DhqClAZCEAjc0HaSGAFTMYH0IOcKcsKxhkM1JPiio8jGDcdDzZ2itAmSOghH8AXlgAf9McMZoSCEiZK0SaCaaLFgOYTl8In1IoQhFbOth48KEoQghk82E+dhOUbJ2D7yIdeQQvCl9QRGJjnsaRJCMF52CZAMeGUOeQbwWKhI5qokn4oZjidtO+ZsQZJyNTfWLYEfixscF9YqMJO3CZm+mGY+EDw3pDAK5nKSe+s2xiGFYaQ3JBtXlBTMF+NIEeNUryImAvygzEquTFyGhCJOUkrKuPjKjjUOjCDhwKWBkGIouL1sNSsvDQTkwmopUyhIu9ZqjqzQnDD4PZA+qukpwRHPEIaCGUfy7y66cBHi/43hax4rzqxosmMCPdUk1BIzYAThV4fcEJtv48bM/V3tcvKEojBhfy8vaT8Qc+FrX8ZeHFys6WQuLy/z6NEjHMepzQxKp9Md3bsHbNTFnuOpkKbjOHzkIx+hUqkwOzu75+tHMdKXXnqJ8fHxPV07UlgqlUqMjIw0JcxcCP9swUEh+JbekFeqYdq7oWC9RVwqgWFCCcK4/fAZoRhQcLMiUQgcRxO6hrLjILUdXxB1xRlRHRVrBMKtlpgYg5ACqaDoSzI+YOznfM8ml5CQFHBdSB550J81vKgVU0VZi3PWe2YrRvAlY8MAXspw3lXEtOFCRpEPBIuBoFLXMXMsYZiKrFgXhnQBx02wXhG8mA4BwXjB1qomJKRcOJ5QCGCymMD14FwyZLbgsq4CZgKXuBtyzPVJuB7zZZfb+SdydkcceC6reLAumSw+IZbelGEkqeiRmlvLLrfX7HuONBzr16Qdw0pRsOI7zJYcQiPoS2sOJWwYYHI9QQrN4UyMUBscKiwWDC4lpOORUx7ZhEQaQaEqsnw0qQmM7YZarQgQdnrnSEaT8azLH1RHgCAMRSWIuU/GghzqUThCEJeG5aLk5jnDb+c8uAQnfM3lec2h6z6pewmoSEga4uf1hjhmPcImoZnZ45CdqP48ieZZpkadzEqlUhMaLhQKNSt0YGCgpRV6EAU79hJPLaYppdyyI2i70Fpz69YtgiDgypUrGGP2dA6R7/u8++67HD58mKGhIdbX15t+7rfykv+Uc0hL+M18jBDbeXI0rrkgNKm4ndBYD6dS5LqKEzrW8rlnHO5JOJTUjBTzrGuXeZF4kviWTyxOMBgjcJUlTCNAGIGWBi0EjrLsKrBq3EkFomR1IOdiwv7qElaE4A8ch1jG8KpRFMqCfIu2wUAI7irJXVVNXnkgXMOgoxkShgzQKw2+hsfV+OSiTEO19KmiJfmK4Hxac78k6XcN/Z79fIjgZFojgbVAoKSgP+nRi2K6KHkQpuwUF2MYjpfo9wRx6TCWt+fuUEYz7Gkm1iUlJVgLBGuBw8mMIO/CiawiLWG1KHiUf0KuLw2EhEowtS5Z9e0fgOto0lKjrbFMSJLeNFRUotreGbK8rohLTSjjeEIylBaslB1SnqY3Luyoj6rIc1lVld2Nbff0lcARsOoLVsqSkUy1VtQ3OBJ6UxpXwpl4iB8IZnKS/3jcheMucWW4sq64sKD57GGnZZtl0OQ2uK4d/thRRXHWwetwunU8HmdkZISRkRG01qyvr7O0tMTExARSypoVWt9inM/nD+Ikyj3Dges97xRRB86hQ4e4dOlSbT7QXq2fy+W4evVqrSRqcXGxZXH7OyWJQZCve1uF8Ci0owLkmrX4ynE7QgEJL6AIMy7ncznuOpnaNMQFJAupHl53Q3qMJqlgwpes6CoJagBB4NgsfG06onhCoJEkmMTUukeMsFboWlnSE33OhYoLvif4onQgBS+4ipdCxVpFMNGQgT/qGqbUk9eMECxqwWL13x9yFQ88yZCscCruUAkEEyXJvC+Z9+FDPSFrRnAoYYvNSxoq2sqvpR1YCgQZxzBRlvhFwdm0Zjip6dfQ49oxH1PlBHMVwQhrDLouPY5kopJgwZckPcP5XsVSQbDmC6aLdib8g7q2z8Gs5kjMEAawUJbMliQxaTgzpFgvChaKktBIFlQPSRSTJcnpTEixLFgsSY6mXHpSDsVA4ElDLKxQKlcoFA1CPrFCS6Gg4NvC+HJgx384ElYrknRkYTpwZCCkEAjurFhR5/645liPIu9LQg0pz3A4q3AEqHKJgkry+47L6jHDynTrColK2JxMl08bErOtLc12kFLS19dXG1/t+z5LS0s8evSIYrHI2NgYX/7ylymXy9smzQ5GXcSBf4edXb4E/OlIlPhp46mR5l4OV4tqPBs7cPZq/WYF6+0IvyDg5bTeEEcqaJhUAl+B1IJYaDPgPQWDcgRrsR5yruDdbA/PqQC3GDDlPCm/UhjeNS5IEHHDWak4pGExEEyFkljVmpSGDXFGLS0hSmOnMAZuNflULXWSxiCqlqkb2BpRStWBX57hPWmLznHhsNGc1QYdwIOKpE+atjLXC4UKyBSLTpxF642TThvOOIqYhrlA1jqWJIbjDvS5hkIAvoFBTxMawfM9ilDDrbxEAedTGg9D1hMck5pDnqGoMzwsCuaVpMetMKiLLJoeruVdJIZXBhVlJZjJSwp1BLJUkSxV4HBcs64FJ/utStNc3lqohxM5MrEUE+uShGf1Te/mrEV7olfhGsOdVRcQZD3NaE8MwgSBgrgIKFQUy2tlOwtJJJBxScq15UnagFvf3hlAMZC4wjCS0oB9mIwteFauTVr3PuqrNwKySUV/BnRoODESogIolSRrRStOEqHUZO4RwLvG4esGNd4OSLMRsViMo0ePMjQ0hO/7DA4OMjY2xp07d/iWb/kWvumbvok/8Sf+xJZjtZuNuvjWb/3Wxu/9RWDFGHNWCPGdwN8D/vSuD2IHeN/NCJqenmZiYmLPazzBFqzfu3ePtbW1TS2drTqCfAO/gcS0ELM9IzUmNFAyrPjSJm0UqJLkUMmgpGDZ9SglXJ53Kswrj1Uki+UKxOz2jRDcNQ53BRCD8zFFDzZJNK8Fi0oQhiCrLnslZkfMBjHwfIjVcb1BoLCq3o4ySGGTBo4SEAoGStZy1Q6su5I/TAEJSMQNcTQvuDa+WgphOZQsV2NnQhtWmig2FYzgauhw1NOsCMELScVCUbAQSB5VBI+qnxtwNCdShpmiIC2h37Xq8Q4gJTwqS9IODMU0K1rgSQil4FRKkZYuj8tZ/EBwgnVWA5fHRcWE7kE6hhMZTVZabdC5auxzMG5YKEvG6/rzB+IlejNJSj4c7rUSc0NJzWLJfmei4AAOAxnN4bhCh3BjxSbwXGEYSUNPBop+nLhUyDCkVCwh0WgngXRcMnFJMaiKjHg24570IOMZNNayjDsKz4HeuI2TlgLBui9AeRxNGqQ0rGpJMmVYLwvmQ4HIWmm9fteQdjSqJJldlJvcd4OgcFbh7r50uYZIFm5kZIR/+A//IV/4whf45V/+ZT796U/XxL3bodmoi1/5lV9p/N63AT9e/f9fBn660znle433DWlqrbl9+zaVSqXtyIudIgxDxsbGSKVSTQvWW7ZRKtrKd61rwRICkjAYV1wycKcgqVQTRNIYEoEgEQhmiKOFYUAYcqRJBlCOgWlox087hi+HVjwWp/oXg4wxCGGJ2A3BVQLjQNGzRJfw7VeUZ8fIGimouJbw3NAOQAPr5osQUiGkyrYcqhwXPI5LxhzbcRQV2qeMob9c5JgUxIkzV9Eshpvdxn7HMK0kb4UO0jO8kFIYX/CgSkhJF94uWitxMK5ZDWCi4tDrGo65mqGEISUNgRAUQ8GgYxiMGZIO3C9K8lpwOKFJeGlOonlc8jihCxD6qLJkwYmzbmKkM5qRuCFpDMNJzXJF4FcttGWdZLkatn6pL6RoBEUJvRnN4Wrx/XROslyxfxf6FccG7NC5xYJkIv/kmhxIwHASVMyjHAriBOQrIcuVkJgDRREnk3CIu3aKqCsFhRAwgr6koeDb4XIC0FownNIUCiV8lSYmBAZDRUFPwiAdTdK1I5hn1h1Gs4bxvMPhI5qjUjG/4Gxw178sHV4Z2IbS8RYIw7BWoxlx2KFDh/ju7/7ujr7fbNTFF7/4xcaPjQKT1W2EQog1YBBq0aGnhqfqnkfY7nA13/d57733GBwc5OLFiztywz8/JZkrCP7EebVJ9CUqWD9x4gSjo83HkrQizek2Q7ukMazUPQeXpMMfAMms4RWtMPkCN3jSKikAxwhCY11qT0MiMEigN6NwXM2yhkKxAMn+TdvLV1WSstIQyxgc37DuS9zqbpcSUab9yfa8ah+2cm2uReoqaRobPzVYJfG4DxN5SdqFwK3O+JZQFIJiMs2Ao3grsKVKp9GMKCtA/Kgi0FjLMIIWgrHQZuVPZzWD2o7PmAjrtUHhVEaTwXAzL3Gw2fYhz7rnrjBEUhS9nuGkp1nyBWMFyaGYYF0ITqUlnkkwXRKsV4k8CANCXWTJSdCTNKBLCOGSiMfxpA1r+CFMFiUrgVVNOpvRrAcwVXSIeYYTKUVKGh4XJUt1Na+Hs3ZyZtm3yZuhuObumkdMGkYy0JsxFP0EcUchgoDVfEhalPG9OEbEScWlLazX9iFSDATpmCHuVOPTQKAFJpLCC+yMpYRrKClb3jScDdFCcHYwZL0keK/okug1nE2EFFYlqwVJiMA9ubNZWs1QLwsHexuKO4h46pbmdgeUtepRNxom7wmGjxtiDV5hM1Kezgl+5a7LJ+86fNUxxZ99QZH0nswHeuGFF2oB7mao0Jw0Z9qQZsaE5JsozZYQfF46PJ+WDLiKUW0LsR/5T4rJBZawDIIQWMq7KGmJLzvg8KHQZ9x3KIiN5zGBYcVY8iQGH4opCiXBnJK1pFA5DqGyRBjFQ6P3tLBF9dLYWUTSGNw6K8UL7F+ibOOgqlrSlKi7kh4geeAASehLGM6jiBmDtY82nq8HSvIAeC0RcsFVCAWTJdvr/rCqED+Y1FyKKZYCyWoguF+y5+mwp3GwykmlEDKu4XJSU9ACvwS3ik/Kk46lNQOufYisl1PMlaPfxbPKQCWrC9DvGQZTmnUcLqYV80XB7apO6PEeTUoa7q9LLmQ186FkuEczWC0pmspLHpeqI5LjhtCVnBkKQRsqSrBSkqxVJIeS0J+wI4qDMI4wIevlkMD3caUkH8bIJhzijqAU2nrTshKUtUuvaygpcKWVuiuFwnYu2Son4i6sV8BzBD1Jg3QVadeQ1zCXEBzrUwxJzclDe0eaYRjWPL9o/vl20GzURRPjZRo4DkwJIVygF5sQeup46qQZzQnqhDRnZmZ49OhR0/jlozuSX/t3HjbDAYkkZPsNobhIjyM5ddHgpmy8CMCrbi7Ugt+bcPn9CYczPUU+4j3ij7zxOl48wb+ddPj2o4p0w1l5uyj46ZUM97Kv8RfWJN+T1TVrdVnCy3FNTsFsKCjXkUKPUeRFa6m7WDLJtdDhvgOkYCilOac1ZR8elGWNPqMVXW1VkZaKDrOuQ5gxvBJXzPqCeVuLRE9QolCXUHoPBy9huGIUd0qSuIQFLUBAJWbQDsR8UbU4qySqNyaXlGddfqEFTvCklNNRlmxjFbiblySrBKocai2eq0LwJg7H4lYj87lAc7cgKTfUr84byUQ1M+8kDOdcRa+GxYpgLpDMCXtO7G9pOORpso4tsUo6YJRhrihZQOBIa5kddhWDMZuUmyhLJiuSU3HFrHDpcUv0xQQpVxL4IYWKJhd4rCm4X4zjCEM2ZkjFDYNJhR9GMU3oT2g813ChT1EOYbosWPUFqRgcSytk1Uq/s7r5GnfjhrDaKeUYGxOPOy59GUEpiJNwQkq+YiUXEJOWjNZ1jHjMQRmBRm4gS09CKbTZeV9BRQuSHlZwWdgupmLVCh3KKjwPPvb8ZvnE3aDe0vR9f8tpBY1oNuri4x//eOPHPokdxft54NuB33kW8Ux4BqQZ9YfHYrGWn+kkfvnovuDwCc3CrEAHgnIBygUBHOX3JuFzv26QaYN4WfPff5PaNG/OIBjPpRnnw3z2C4avPa/4+LTLx6cdhhOGH3ou4PmslW/7OysufcJggJ9ddvn5VcNH05r/YUDxa67DH2TsBSOMYVhpevN5BqTLoaSHKWnmdPPSkFLDPi0iWZRAAo4lNAPKsOzblkZRPwwMm9yJrQtuS4dK3HA2qcAI4m6cuYZ1AyH4nHA4nNY8bzRvBg4lY10oR9sbWHqGUAmkEnh1iSMBUE0wAYRx242kpe2JF1XNRm0EjrI1oZiqFeo8ceMfa0FRCCZj1p1+OVTMFQVLSiIxzNb1ZCshuKWqhBODc0mF1nAybgvho0/61b9DwlDwrcoTxmbkYwKKChaKgoqCJIZsTDMkQ4o6IC9TrAQSgupGqpfY8ViRjL/OYhDjVt66MMcTirQHoxlbGO8H8E7DnPW4Z8jEDUrapJDRgtGsJuMa1iu2gwkEoRY8Ljv0xuBONE8+rjkUt3OTysqhJykpuTF6YoqyH7JaDimXSzjGUKi49CQcPClqikta2VlICKgoKyISjzqSPENobMa+P6n5zksVDqX2lmt2K0DcbNTFCy+8QP2oC+BfA/9eCDEOLAPfuacHsQ2ILch6z86uUqqWbDl16lTLOq76+OXp06dbxkb+xc/EWFutvqetZmCta8YYmzE2VYcwCemXFb/dpN0sgkkajowYFn2YrVjrrjdhGExr3sQhdEW1G8dmnBPaJk5WYrCeEpTTbNI5uILiTRzOhJqRfIX1omLOS6OrHzziamZbEOp5qbhbJQ5hDCfRxELBWkVQVgLtGutLR/uP7cfOuppM0lB0BFNNxhG+oPLccdNcEJqMhslAsFi3DyddxZyRltB1NaEUPlH2DBxbOhVt0/bHg2vs/khhELr6ZvU4jWOouIJKHHSd4e0aw+tak/QN7/itf5tLruJesbVnckZqJioSgeFEzDDg2KzydMlS7AtZxUooQCnWy4qeuEMq/uSYo1hmoGA9EMz7EgfDc4mAYlkzH1ryzMqAYzGNcB2KSpKSNs7oa8gFgqWyrQt9Iau4ueoQl4bjaU1MQKECGc/2/0/nJaczulqbuRGeNIykFBlHUfQlsar+QEUJVGkN3DhBqIlLRSjjDCQFwnFYq0hSrrFz47W1LMvVeyDhWsGR73mpwtAeEybA7OwsYRhy/PhxHj16xA//8A/zq7/6q3ux9IEMjD4zS7MZIgX0rTQ2gwDW1+pekFbIQTlWKUgLewM4yuCFAqcEhS+6vO7C48MweYwNE1c1QEWwtGIY6Acfw5yWLISClSVJr2uQGNCaSkxSTApK8aq8lob+NYNcFfgelBNW8gtZ0xPmniu515eEPhjShucrCunDfdWcMAFSEnswWEvuITbJggdH0LyIYs2X3KvYwL4AXAOFQFIILGelPANp64IXtbVWl50YFSG4GqkkxeE5oziKVRFSRuCHorbvxgHfMWhpLcColTNWddMjq1RJK4GntG3tlNoKjBhRzdxX7B9YktUuVOKCL8YdXu5RpELNaW0IfHjob+yJT7e5dVLCMFVVZTLYuHBUxtSfMRz3rAs9WZGApDcuGYjDTFHgOPA4FPTGoN/THI5Vy35cRdqBlcBlGsmJjCaN5l7epRCs88DvZUiU8WJQwGWiaDtzpGMY8DTGMZzvU8wVJOO5J8R4VGoGYobjfYqKEpwbVKyWbEF9hEALHuVdLvTDg5LLUEIxGNMIAwEuA6kYxVDgCUNSVSjkQ7TWGDdGLvTIJm3sOqoFLQT2Oviu5ysMJvfHmz3oM8/3Gs+ENJsViUfxy3YK6BFWlkVbrUE3bjAliXahXL1m474l0NEZGHoMuSwsDsFqP7Xnmb8qCDOGHgfmQyuMES9BLBCUE1COOzihoX/dIAyU4lCOCSpJCF3bfZNdF/Su22mCCzGBkwZVF+JZlILfSzocTmq0gVdKivtlualHvd0PM4+kgKDgWVmyCygSCsbLkpIRaKwAraPArAsr8JGwpUYzeEhjatYuAu4Lh/vAYcdnHY/hmGagqt4ehprFYoU1N0XKNawGEoRNSKmqcEjMNzhaUG1WQgn7ADMIW5xfJVCBQAlroQsF6QL05GHREazFJH+YBpOEVMJwySiSIUxXJFpDXBiGXEOPa3Crrn8BSEhDLBCsFQRz/saH0EpoE0ZLCM6IFdZlL2vK4WoRYsJwPqERJUvqyyXBg6pln3ANpxyrei+FJuMYQiMYyWiyXprnte3YmfIhb1wSTsiI5xNzPCSSsarWp8AwmrW1k7kKTBdsB9K5HsWMLzmW1KTTBhnT9LiGILAlTaEW5KJW1LLDYvUi9mSKNIaYa3CNQYs4yVgCrSHwQ8IwoLAWYISkSBI/Boczgj/zfIWBfSJMsKQZ1TR3SXMPUa/eXm9paq25c+cOpVKp4/rLpXU4PKJZmheoJtnrciiJeCry7isxQRmbMXYMDKzaPyWhkISlQXh8RLA4B0ePGVxtSK8J0oWqfBtPstnKqQphxAz5pKGSsuv7HhQzNjHlBoJKIBmq2BKdXAaCuoLiQQw3pOQzaYdUyvDhsmKxJGrueju/5JDQNZe6iOAdbO2kTBnOSUW/1lwvuaiqBSo1uEVrGZdjtkvIJt0NQoFybOjhUBiw6MaY0IKJaGPSsX4lcEmEHPdsveLdisSphgeCuHXb0dZ1d5Q9x9WckiXQarzRSFsDWhsOJqCshZ31XS2sLyQEb2cciIHwDFkNj2Mw32RI+SuO4u3QQaQNH0orvDLcKz2x7vpEwAJx7ib7SQvDC1JxK2ct2WvVxM4rPYpSCFmlKISCUFuC00DFQEbCqZQmISGnBHEH8sJlXUgSjpXI0xoqlTxaGYa9BFlPktMeUyWn1kWVTRpOJUJCY7uDoqy8wHAsZXvVh6QlWaUFfaFmtVJnhRqX+zn7/6d6QyS2nnMuV23hAtKeIeuFHJIVLnkP6A1XWZpKw+AgfX192xqJ3Sm+krQ04RlbmtGMoP7+fi5cuNBxbdf0suROURLvM4z2KuKhYHa6auLwJPNbD2F5gSBuR0pEU/0cBdmC/Ts5CaWEYHXacOiQ/Wx9VDdKQkhVHU9RFhxatP3f5Tis9BlyPQLl2cx0Pm1A2ML1+AqE67ZbJ9fDhgx9UQh+N+kgE4YrvoKSLTNqhcOOYbFJxYgWgtvG4fW4FcJ5AVWTdBPY1slUBXQ56j0XhNJaXcqBWSfBAJrlDemW6rEbwy3t1CziRNxwwVXENdyvSPIhGGmQ2IJ6X0TiItXRC9XfVlSVl5Suxoe1tYhl9QRrCUkf4it2/reKwT0la99vRBQiNdEMpSScTmpGA8OdnMAEJfDsI7RgBG8ph+M9mj6luVd0cITheqFBIk9Y6bhBz3DMNRgNUyXJ4bihom0MdDBmSDl2HEdBCR6WkjzfE+d6ziEuNEIVISwx6MTp9QTCsQSqpODGuoNT7VRKO4aVktig0iQyirgD2R6DkCWSBAg3zUx18JwQhtmSQ6laCjbap0gLw8SqQyGwI0ZeP2L4lldOYMxxVldXWVxcZHx8nGQyyeDgIIODg9vOcrfCV9IkSniGJUe5XI6xsTHOnj3L4cOHt7XGQjUBVFGC+9WhUGRsAsILbT91NfS2CZF7qF1rBQVVV9FT1iJLlSD1QDDywCYu8ilYHqwOPWtAtA1HQ7oE6aKAEMppQ64HlvslyoOyZ8inQUhIlQSpMkw5kkwcSmnrNoMlvS/EHYjDR0JF2ljln1otZXV7KaN5pQI3y5JKk6NUQFkI3sZBJA0fEgp8wXjV5TvpKaYCBzeAGFUCFYKy46AdO0gtLnxGE4KMIygFClX2uScztZNaxrZHgrUGX3VC4kqwgGA6lLYnvhaFseQMtj3Tq9gLT1eVm4ywfdVC2WN1qsecKoEpg+8Ky45NjKRmTucDJA88yPb4DMZSLBTMBhX7SSWZBF7KKhLKcK24+TbQCBYCQZ+ruFtxSEuD4xhUIIgLjRTgK5uhTzvY6gUBlzJW5GNCWbFlm4r0SVZyDADrfozzGZflwONBHVHacceGOIabqw5h1Yp3iHMiHSPhwGFHk3LsGOYH60+s6elqkqw3rRlNKGbXJOf6gppx0tvbS39/f00MfHFxkRs3bqCUor+/n8HBQbLZ7I6t0K6luU+on32+tLTE1NQUL7/8cssTvL4Gv/5JFy8Ob1wJOXnqyXsLK03oUFgLpyINgScombrOFmFwquIUkdrPk++BccF3bYJCSfBCQSx4krwYXLE3eDEFS/22jCZTgGQJ0sWq1RpWC8IlrPYL5o9CJg/FlGHusOD/3955h8dVXWv/t8+ZrjLqknvBvcmmQ6gBTA226ZBCAjfXJOELqTckkFyS3HS4kHATQhopJCRgm0DAkAABQgIYQ9x7k2XJqjOq08/Z+/tjnzka2XLDsiVjvc/jx9JoZs6ectZZe613vW8o7ciDeRWxkK4JhmLa8Moy9XMnQriBYZNh0LGPTXqZVCwLmpT4FbPTNjVJg/acTCmXyuRmYD6Y6LMptXSTrNDQFKq0wxUUSje1ZEbPsCvhoy6hOYWJgIeTCz2EpGKszJBKWuxSftKGMzqHQBiC16U+ToVPMg5FxoItaa0Pant0Tdmw9QUr5gGPJQg474sS+naltHOmqXTpwJRadd5r6c8m49PNqSxS+zMv8/rY4ZPsNuBEpUn+dTl1zzWWSXXIJs+UlBmKEPrCmbShLSNoywiCzt1jUrA6bmKgyBOCjAV+odWlfEJheKAtY1DoUVQEJWVSkO9RtKUF9Uk/CD+TCy060hIrrTUGir1Jyn0KCx91cW13PLXQRnqhUsTwKUm3yuul0lQVkHi8CuVVVIUUhU69tKHboCOt//lMxYkjBD6fD9u2e6l/eTweRowYwciRI5FS0tbWRmNjI5s2bSIvL8/NQvdHCdwTQ0HzCEIpRWNjI93d3Zxxxhn7rV+++rKHSNQglYJtm32YJlQNV0ybZeMPQWFK0dm9d1AxvDYi7XH30gqt12j50ZQXU+FLgj8leupqDoTQNTdlQtLQgdJ0JmdMqZsW+Z29BTD2hKmgPKLvu36KIj8uGL8TWkugI6zwZKC4Q1DUoQNSyqfoCkGhDQXdut5ohhRRn+gzswLIUpOjhuDlgEnArzglY9GWNKi3DWciaG9swWSXqQ3dlLfv+xSkM6SlB9MCfwaCaUF+XFEjDAwDtpg+4nk+PH7FRCx86Qz1lkFbVwKCRQA0Y9AM4NH6kZMMm3Ikb1g9ddYsbSke1Pm6J6Nn43M+Dc2CMHW2Zma0c6Q3rRCm/mzSpqDJI/a9rQDaFaSF4E1hQh7MzLPJS8JmR84vrqBZGjTLXocGHwR8CulMNG2NGdpeBMEGJ7Mb45eUmtK56Ah8QrmZZ6dUpBQU+hQYknKvJCEFUeklhY8iv6TcI9iVMIkrE79pMdaTQioPpjKokz1b3GHO1FEiDQEDVnd4MIUm+LdnoD5lUugILytbT0aVhwAMN3uUUrrBMzvZppRyM00hBLFYjNbWVtauXYtSytXKLCgo2G/pbM+gOWzYsH3e972AoxY0LcvinXfewe/3U1paut+A2R2D9i7tAZOJaRK2rRSNLYKGv3mwLEHKC3llktIyRbxL0NquvxxFvhgd6fA+n9sWgoxPT654LB0QvTkFxOxXQzjbeAxIBfRW3rR10LOlcMUt9kTW5C+QgtmrBVtPgK4wVESgqFPQWK635AoQUuBNKcqS2t8nHgCvD0gJKnACg19npRmHJA7QsUdQTArBaz4Pwqs41bLxWdCZUcT7CJ4jTMmOHIuKPTHOb7A+o2fRAQxbYdq67mja4FcQbNck7h0+D4mgB19IUZFnMiWZYrPyIXNOsIQQrFImo70CX0gxWUm2pww6ne2nx9k2p3y61onQ23qP3VM7BkHah5OVCpSzlmAGEsIg6MRNpTRvVJjO/4Yisoeo8hrHO35UQDI2I9m9Dwk10CWItRmTbiGoKpCMEZId3QZx5zl3pgwK8xWrYyYm2liu2KMQhsKHoDUtKDYUhR5JlxIIobPl8SGboICmlJe0IZgasmlL6de2NukHU1FpJijxChK2l/qEQYMzDTWlwGZCkSb513cbdFuC0QWSoKHY3GkgleD2qXtP/GSDZza4SSndAJrNQv1+P6NGjWL06NHYtk00GqWuro6uri4KCgooKyujuLi4l/oX9A6a8Xh8qKbZXzBNk/Hjx2OaZq85076warVJbYP+EAyfnmjQXQKnoWPoTEU2GzS36m2tKExSFrDJM03SGYtEqu+XZkidlgiha4lxLwhb4U8LfOmeoLfX4wBlCtKmnooha0HhEOqF1Lf5cjIWQ8HErdBSBrvGaG7jqN26TtpQpbvwQggMSwcEr6WQHkVnSHMdfbbAF4f8uOY7KkNP93QKQcirt/S5xtlKCBp9gjppIMKKGZZNOAP1GUGL05UJH6DX1rlHkJGmNm/LANiaWuTNCDwS8pMQSiqUATu9HmJ5Hip8krFSsj4tSNIzKVVnQ0YYtAoIBhTV2ERSgt0OV3WElERz1ZGc7XoKhS20N1LSkbpzOaToQCmUvthJE/yOeZwnrb8rGa/DH3UCcha7MMj4JU0+wWRsyiz0enKEl0vNHpZCozJoVBDK0x34VkferssJ+jaCpoxw3Tuz8JiShIQCU481lvgUARO2xfV8fVVAggn5PkgmLE7wdhMXQRrSQZqc2JfnzTDMmyFoeqiNe4lnG54oRhZIQh5FR0pQ6FeMzbM5vfzAQtyG0TsLzf2X1W4oKyujvLwcIQRdXV20tra6iu3ZbXxeXt5ejaCh7Xk/ISuNH4vF9mt50RwR7GwUlFdIWloEUoq9dqlC6BoYQuG1wdspkN0BIkFID0sRMbWyS0lQkefRX9auGGBBtGvvPa8yBcmgowIkdXbjsbRcmpGTrdkCVzEIZ/ueu6tT6OaAx1L403pqXAAVrbr22VgB3QVQAOTtgPoqSAX1yS6FPlYgKfAn9dZdBiXRoA7wphQIG/zOOoK2Ii+hJdtioZ5Jm5KMYvxrsH2C4J0TdI0RYLKlO8p5tiJk9Z2FgjOXvg+M9CtqEKQDirw0mGnn/ZHgT+nXnBKCdR4D4VfMDtjU2QZ+JLU5wiIJIXgTE+HXTSozrVXbCww90ZJBN+iy7600e2hfthdSOdzbLO3JMh2Kk1AO3UlzNF2hZTT1KePp8UsqMRS7pcH6nMGBEUoy1iHZe4HWPZK2uNOBN3yK6pCtifuGIrmP9y2lYHdaL/iEgGS0X3u3h72KcV5JS1qwOmYyng4ajHzGBaEQMD16tj4tYWfcw9aMl7GZdrpEIcMDSQo9Bu2Wl9pEz/e5yKu4akwG34FlHXphzwCqlNoriAaDQcaOHcv48eNdxfaamhri8TipVIpoNEp+fv5h1TSj0SjXX389NTU1jB07lhdffLFYKdW25/2EEM8DpwP/VEpd8a4Odhg4qjVNIcR+FdB37RY8+7IHvw/akwJPPpQXS+JxaGsVms6Cwsye8M7/WbXyvLiCLT6KvJAMCHanBMGAojCkCIYVPg94C2ySnQYdfdRDlR4aIe2BtD97DKV5jpbeTpvJfXMobT1eTNojyHidrb8zOZMXh7G1kPLqLXfdSCiI6QwoYziEb6lIeXWt1ZMRSFtQ1aUDQsav6MzTNCGE3tZKofAnFYEUGF5oDQkqXjcQKZi4Bbaf0LO2TR6DTR6Yo2x25QkqLJuirhgVvgB+TBI2pKVgVx9amFkUGjqSKSHo9gN+mIFNMK1tgU10LdiUCpGArd0mylQUBmBKwGanMkjkvHvZJtVET5Kd+zGtmSUsOjyCjK0tJLzZ7M7U23bbAF86e0ETpD06ePptfRFUQgdR09INO5L6s273CwyPzmizqBcG9SYQhFNNi+l+m+a4oGWP90UKQdSE7Zh48xSTTJsCCS0JnYEC5BuKSE7mui1psC1pUO6VjPApUhnAVpTJGHhNhvugIS1ot/Q8/qgAhD2KqpCkwFD4jHw641CXCbrTYkW+FJVeiRI+TAVTwodHYu9rG5/dwmf/CSGoqKigsrISgGXLltHe3s4111xDd3c34XCY4cOHM2HChEM69ne/+10uuOAC7rzzTr773e/y4osv3gl8qY+7/gAIAQvf/St99zhqs+egeZmZTIZ///vfnHrqqXv9/emXPLy91qSsSFKQp6kvkTZBe6eBYSp8frBsBXGB4TQG9kTGUHjQs+hCAl4wAgr8kDYhvxSiccHwkGJ3g+jl2mf6FFZm35mWctRrfGnwp/bmg6a9veujgN6yp/XWXAqd5WSnJ9uKYMtEvX23vU4H252a0YIYWVJ41pjNdjiVaQ9YpuCUf8PbJyq6CgXT1yvCXc5kjgHrp8COE3ov5wQl2b6PDtNUZZPKCMZlFMm0YEdaaBM1B3P8NsvtvtOY0UimCptlcU8vzqNE64EKW6CEIhSQFIWgRfTMvM/KdLPGs+/sZBqSzVbPVn+UkHTakMgYeGxByqcvapapa6G+bGZpaDaD4Yzpm0rT0oTK8laV1icQPfSnpB+kk52f5LNZbpmYSnGikqiEYHsO2Xxm0GZleu/3Y5SQDEcRkJItMQ+xfcgH5huSSruDhBEiYvn0WKpwSlBCe7nnmxA0tAgIQhPvk1JofmgGdiZ61NkvFdu4ojxFeXk5oVCo3zUtc7PQ3MRnxYoVnHzyyRiGwfXXX8/pp5/OO++8Q1VVFQ8//PBBP//kyZN55ZVXGDZsGA0NDQwfPnyzUmpyX/cVQpwHfOE9n2nC/mfPd+7WH3Jru0Fru76tMF8xdrRNV7egJWowskLSkDSw/YqCfInpgXgS7DSQceqezskohULZoLoFdAg8AhKNCr+AjjyBt0hREVTsbtb3ryqS1LXse2+jDAnKIO3HPVEDKVwFoD5hQDqgO/dZgd8smbu0DQr/DY0VisYRUD8ClNQnR9bvJ6sLL1XW/0cLkwQSUL1G10HnrIKGShi7TZAMOeZtwOTNOphmbXzTPmgw6FUHzUU+OiOt8QBBKJaKaRkbb1p7BO1ncpVaDEp9ukE0S2pSfbsU7oVNmYCCeMogkdRBLOxRlAZsAr6AJsDvI4eP5Np1CEGtMwGFCSEkPgUJ2ZOBZsssvrSmK1kCp+OuSx2G0ipEulDt1ERtXY/2ZnQ5IOWDrBOGLQTLne77lJBNWQo2xY29xKyz2KU0D/REv7YjKRKKCkNSgNYHyNjaiTKQ7mKrUQxof6ZxfklQQEtS0Jo29JioT1KX1CZuhlBU+jXxPmFDyAsjkOR59Il8/agS0h2axJ5IJCgqKqK8vJzi4uJ+mQTKzUK9Xi9SSrZv305+fr6bhTY1NXHzzTfzta997ZB1NZuamtzOe1VVFUDlYS/6COCob8/3vPptrRe0dgimjpEE86DKI+nqFsTi+n6d3YLObpNwoSRYKImnOygrCZHJ+PQWO+dMDhdJYknI2DZm0sRQwm3sKBNsx4XMsAR2Ejz1gk4flFbapC1BItEFFO1z/SGfJO3UkLKNpG6PDpr+1L6bSO79HY2Mns60PklH1wvKI4qSCDSPUXTkQcLj1OWMHvUmA72FtwVM3KF9fSxDMG6HYsZaZw48A2unQnuZroNW7VY0VWnNS60AZZAv9LRNVlgkiz2VP9sMwb8csr0vXzHVVlTEJM37UGZKkWMLnKc4Udl0JrURHMAcv2RlyoQsm8qCaLeHCIoCAUEh8ZuK5oBB0kmtvdImKo191kRCBtQpA49fMU3YNKR7jNTSPkDoAOrv1aBxyjrOhckG1ytJoC9uwSQ0JQwKPTqDTTmz+xuF7r5X+iU+pRijJLU54tG5yMaMdiVoz83QBbq0EfQyTdg0JwStGYMtyZ77VOVJqjx6ZLU5LUg472GXpcgztbBIqU8R8uj6762j0pTn+yF/BCNGjHA5mK2trWzZsoVAIEBZWRllZWUEAgfp33sA1NbWEo/HmTFjBgCPP/44yWTSrWn2leleeOGFNDY27nX7t771rV6/O489cgPzh4EB9wgaXqr45VIvS5dpeX8AhLaEKA4pQt6sd02KmoYg3ZQQCiiqSiVpJQj4JKEAmKauWXbsMAEDT74iGJQkogKsrP2tIGNoErwUCo+TYaR3GUgTzMogI6ps4nFBZ3dvdz8AnzBI77F+IXQQjHsg3ydJJAVmKlvL7P145ewTs7dqBSH9s8cWjKmBkXWCaFjROBLaSyRdAT2Wmf32WB4YVScobYHSqJ6ayT2OKWHmOtgyCRqHwch6aK0UzFoJ7WGoGa+3/aG4IBTXGVVnWNf19je6mRaCjX6D3T7B+xI2G+J7TyPFci5gLjcyBNVKZ6ud+9imCodQm8mAhUEooQgaipBPkReE7fvZZpYaujNvZZWbfDDNb2vxi7QudmdMSJg911fhjM+aDrXJNnTzT6EDpC1w7T5M2UNNk+jAmfZBk8/gdY+gyxSUBbV4NI5rZ1ZguWM/TTWALjPA2oyB6VXMCNlYKUGNQy1qTBsUmDabMyZ5AcV4v40poT5uuNYd3RacFLa4dpjF9ILe8SW3ww24HMx169ZhWRalpaWUlZURDoff1Ta+traWjo4OZs6ciWEYLFmyhN/85je8+eab+7XvffHFF/f5t8rKShoaGtztOWi672DDgAfNUACmjJasqzGzuyVQ2oEv0dnzYRb6bapGWLS3msSTgu27TbweRUkBtEcFiaQu6odLbLBjdHYV0N5hYHgVw4ZLos2CTLbbi/bikYZW/jaVrrsldvtImtCVp+k8hYE0XpmgOC+IkCbphCCZUr3qoFmE8yVdnfrLbPvBCmpxWI+ls1DQVr57InuLFNp10ZBQ3iaoaNV/TPt0h707D9rCgrwuGL+zR5qt13M5540BTNqsLSkiJYKFP1WE4oJkQPHkldAwosdELZhWBCOAV9FgCnxevZXvawsfQZAQghdDJqP8kmkxyfqcml77Pvbvq4SJx6coVDDMZ1MkwKc006DDEjRaug6bDf4CXY9OJgWJpKJAKDwem5ARp7wwRMKGFgvaMEl2d+7ll7RemeCBEV7JZGWzNmXSted779QwszTNjEdv53MFmG1DE+xF9vNBd+J9GVBxhWUKAl6I+A1aTSAAPr9iKjZhCxIpCAi1l0q9PryiwcmIbSFYZemSw/hCmxIbtsQNAs5bG5OCdY4IiWEqRockRYb2bv/axDSeg9h55+XlkZeXx5gxY7Asi0gkQn19PRs2bHA5mKWlpXtxMPvCrl27iEajzJo1C8Mw+Mtf/sJDDz3Es88+e8h+57m48sor+c1vfsOdd97Jb37zG4Cn3vWTHUEc1UaQZVnYts3rr7/OGWec4V7h0hn43YseNtU67eecA2e/b0G/IpEWhPyKYYWKujrh3tcwFBNH2cQTgqYWA9sSFOQpSsOSxgaDjCUAxYQxkoaIIN4hejrwzrFktuuLcsV9pUeSCQg6AwajK21qW0wEiqKAIhxQ+A3AhmRCkB+Q1Nb3fQ1SDtfQb+vJFtPWW+7cU8kyeqZkctcFOM0L/V54M5ps3td5YjjTS9nHZpzl+Cznd5/Oll45T9FQpTv5lhesnOkj24m8limI5UHG2cn50cLGe+KUtE0yJmi2ddd6X3XJ0YakzjKYsRrWzqBXWcCjFKcZNq0ZQXPGac7ZmkWQe1EBnWnHgxDLgzyhOAWLroTNJunvU9TjJK/NOxmDCYakXEJLRs/GZ5H29N66Z5yMNJDumULKOMFLGppOJtCpqKSn/JNtviWCeis/zNCK/UIpKlBUSIno7CLfF8QWXoSCzak+rkwOSg3JNK+2D96VFD1Sfjm4sNjiztF77n0ODUopurq6aGlpIRKJuBlqeXk5eXl5e2WhdXV1tLS0UF1djWEYPP/88/zgBz/g2WefpaSk5LDWEolEuO6666itrWXMmDG89NJLpUqpqBDiZOA2pdR/AAghXgOmoMvwEeBWpdRfD+vgh4ABCZpvvvkmp5xyyl4+QRvrBI+97CURz+m+iqzoQc6HJ3TTxshAJKpPgNHDJTsbDLweRZ6vi6KCfFpb9bavqkwRiQjyQormiIFhKLy+DIm0BzMj8GS5fk7pTNOadO0zS3PCIUjHDaFnxPf4vo8vtWnrFBQFtHugsCGVEkQ6BNISZHwKb870iVLKmY13hH2VM65p70NoBLSwsSOrJhxBDEP2xB/DqWlapsNFdJ4oS7XJCoMo4I1ToW4UIDRxPhuMbI9wKTgK7Q2U9kCoQLLb33dK41eK85M2LZZBoy2I9fEKZps2mzpNzvkHbJ4EO8f1/vupHpu39+xEK4VPOjQnKRwjuGw9Utt02F7ozBdUeSVjLcnGtEEiJyJPlXHW53gmAVTQMxsfQ1CX6vt12YYun/gzPYFVCoVlAsqhhjlk0uyWPguvT9Lu0U3Dvq5ws00bmYb8tB7p3DsoKrxeSChBMYoTDInI4KpWAXx+ZIpLSw9MZD8UpNNpWltbaW1tJRaLUVRURFlZGSUlJTQ1NdHY2Eh1dTWmafLSSy/xzW9+k6VLl1JWVtav63DQv+3/fsKABM3ly5dTXV3dpyiAUvDEa5K3NwZACTw+RSaHBpS7IIFifJWkpckg4If2rt7vsSEUlSWKoE/hAWJxgc8rice6AT/pTIBYXJCfJ/H7dJbZ3tKTLSqhC+6m0gEJQBlamksGoNMjtHycgNKApD3W98mX75d4PZBoFb3I8rmwDccy1wmgptP8MR0FetsQbt0NlWNBkd2S23paRhn02dVVKoeYj74YvXYmNAzXjzFs3VWWhtP48AvSHoX0ZzN/RdrU/NNYvpZsy8VJwuZt50pSJbWFb6ET1OM2lCiw3jCpbNSPf/W83o8/0bRZmdl35nWCKam1BOOVpDlhuDqqWbEPnImhTEgxwZR0SD0FNVylqTf2LT4x3bS1zJ8NO9LGXtv4RKDnQiSkFmkxnPfD8ugygp3dujufSfZCj9QC0LahRamTfi0OA3CqafO283pHIhlnKbbGtIg0aCuU+j6irUcpJpmSsIT/Gp5mhP/I9UqklK6sXFNTE7ZtU1hYSH5+Po2Njdx99908++yzLl/zCGBQBs2j3j2HHiHivoJma2sLIz1beN/8WTz+r2LqW3q3U3J/9hhQ22jg9+nObWGJDk6pRCfhcCHZBpzPq2jvMLBsSSrThVL5dHTrtMsfUPiDEA5laGiUBAqhtEiQSkBrq+Fu422PwjIEplR4pMBIQBgF3XrUM9Yt9LhOH3FTGBBJGOSXKPKRdEf6ulPPeCeiZ9rI8upXLdEyaT5L/932QtqpgXoyuqlkevrWEnWfPgeGgrNfh7+fp2it0OOSSN1NFlKrOEkDMnF9wtseUEFFMC4oiOvRyZRXuDa+lh89fWRAo2HQaNCrHX9yymZ8u0J6oKALPGmBlfPxx/bHZwKiUpARgk0O9WcGNnZSUO+YzmWbOd4uQZ0wSQYVU4I2AWXilZJGu7dTKIBPSTbbBhkEmCACignCpkJBS1pv4/1K73KytLJESAfFYFxzciV6WAGpqUqW4dzfEhj6LdVz9Fk6k7OFz22m12FQ54GCsGKWrbvppV5F/R4jmaAbXuulSVAohvuObHM5O8WXTqfp7OxkypQpvPbaa3z605+mpqaGm266ic2bNx9QS+K9hgF5pX1NBSmlqKmpobW1lZNPPhmfz8dnF2RYtV3w1mYTS4KUAilBKkfEVoGyoSWSrW9ms48i2uM9IrjDiyWNHQY+06KqOA8sg7ApKcyXpJKC1qigvd3Esv0ML5YkUtDcZhLMU5QV28gMtLQY+H2KVFKQ8SidDdp6ay1TWiYslFAovyJpChI5dcKCkKIjBd0pQTeCEcNt7E5Bd3dO8NxP0MjWy5IhSFuaDpPt7IJDrXGyU6w+47ar2JQLQ8H7XxH89QJFe1lPxmagA4BCC3X4MjqoBhNOd9kjyBjglUor5AuIxAwqlUKZgu4QxAvodYUrekdgmZq4X5CBabskzFQkM7A9Y+wlrJELD4r2PeLDWkd4Y3RAUpGR7Mj0dK2FglAcapIGyYAeMxU+RSWSKhR5EqyMhUinWGMWuOtUQrAFky0OJajSLznBUOyUPesz9ag46YAg4XBPs+pM6axddEbbjWScSTXpXOgEukyS361nzz2+npFOgC4E/zJNzDzFaI9kfEKyPd3XpwmjvWqfPNH+RHNzM7t27WLOnDl4PB5KS0uRUvL666+zadMmfve73wFw9tlnH/nFDBIc1e151pFy/fr1DB8+nKKiIvf2devW4fF4mDJlyiETcWubYck/vTQ09wRO0Fd5JcAjJLbsPT/k8yqqiiRWMoVIJ/F6C/F7tUFbIql90g0B9U0GAsHwClsTowVEWg1SKYHhUVg2mJZuzGTrjlJovyDDo5sx4eGS2o7eW08DxYRiSWujQdrKcgT7PgukMw2ShVKaVO9L97zajKdney+U0hxV2aNOn3ty7wnbgKUXa98kXS/VkVMZ+gtgSGcc0RFNsYR2wTAkWKYiEYTOPIEw9Iirciay0l7dFEn4Yf5fdCaN0rJ58RA8cZ0+fqWUTEorzJRiexISRu9reZWxbxtkgCKhiEmYKCSWBa1pg9QeU0mZrPCIT9OsEHCix6bJFoywbDZaJuk97DSGGZI6YeBVitlI4hlBTab3fRJ+3RjK0pL0+6mQArwZrYZlCycrNQBDYZMl1OtImvHpBpSdE0Cn+mzWSJPJ0qY8AxsSRq/prLl5Fv9TcXhNoAOhpaWFmpoaZs+ejdfr5d///jef+tSneOqppxg7duwRPbaDQbk9P6pBU0pJJpNh06ZNLk8smUyycuVKRowYwahRow7r+SOdsPifHrbt0pd4w6NcBWyg16vJ3prvT5JM+6kqlvgNaIsI4g6BPT+kxzmV0qIfDU0O7cNQlJdIAl5obxO65moqkgndFXcPJ3Tqlo150q/o8BrumJ4+vmJsvk3tLhO5j2wr7eldj3QhNZ3Jn9nPfXLum+UmBlLspSWa8Ck2zYCt4/QJbZt66y0dHpi+v57DN2w9ZYTSf9dTTgppCpJ+iOXpbbgOuIIxOxTDG/W4ooE2q/NasGSBls0bryQ7nGjhSytOrZEERmgr5SZpMNm02bSP8U2ACabN1j3+Pk5IqpSiKyNoSgviQO45qOgZW83KJQU8uiba7ly0xyY72JYX7vW807DJt2BDSjdvwl5F1BUN0RSHQNKx/UA3krx2T3lEZRtGQh/T41zQFDrAZkc6TVOSMAwyDi+0QkimWIodCV13/XhRmo8X749Ze3hobW1l+/btzJkzB6/Xy+rVq1m4cCGLFy8+5Jnyw8BQ0MwGza1bt1JQUIDf72fdunVMnTr1sOkKuXj1tWXsSp3O2h0mturjZMt5VWMrLGqbejIbgaKiSJHvU3R1CCwLYmldnxpVKd0RPCkhmYKOToNwgaKk0KYtatLW1ndGJJXSEnLZJQT0NFHaJxg3zGZ3xGBkgcS0cGlTWaR8fcy05z63BL/VO/PcE0LuUe90gqgvo587HlB4bc1dTeZBbLhixwRoMnW6nvFoP5+0Vx9HGvp3ZeqGh9fWmX22AqCEIuWMj1avBo/jVmk4x86PwY5x8I9zodrOsNrQe9v3/VM//yvn6jrtREsyzbJpSJrssPqevJnt3X8T6SSP1hjdmTD6JJyrnP8NqQh4FYE8qPAq3tpHsB6BZKKSbMyYtO/xnB6hSBngTWld0mByn0sjY2qqm4G+MNmO/KGROwSB3vp354PfVMyRko+EMrw/tL+r5LtHJBJh27ZtzJ49G5/Px/r167nlllt4/PHHmTJlyhE55j4wFDSzQbOmpoZYLEZnZyezZ88mGAwe+MGHgDfeeAMpJePGTeDt2mG8scGzlxCHEAqlBIZQSEcdZ89miQAmjrDIWILGBt2xFUIxolySTkEkqotaY0fZ2FLQ6tQ9i/IVqaRuJPUoMSk8Vu9MJ/uT8IOdp2g3NR/PFIqRhZKAhEjEwAgqYp373p5mTMf9UeksxpdR+HrRc5Q7l90nZE8GJESWS6pffzoIyXJFapLN8jwPUuoMKjt7L51mlHIqI0o4NVB0s6M4qihr66EJZV9FMK7v+8JF4JcZOoNefAm46O/QUg71w2HDdH3f07F5E5NyqZialpCGbemeiaRTvDbL9xc0HeENv7PN7kj25moaQiH34O0qoCBkUVkgaMwIdvdRHpiW6WaDN48JhiKcydCUsGjx9Ajw+lCETEWHElqP1MlqvTjHU/q986X1+5Ix9fuuHGqZMjRrwpDQWaDrzNk38NnCBBP3pYR9GIhGo2zZsoU5c+bg8/nYuHEjH/3oR3nssceYPn16vx/vABgKmlJK0uk0b7/9Nul0mtNOO63fu26RSIQVK1ZQXV1NSUmJI+0veH2jhxdXeEjmzPdmd0l9QTjE6tKwTUunSV5QUVUoaWnW9UyAqlKJRygyStAUMfCYOqB2tQs6uw2CAUV5scTO6KDW2ND3iZ2lESmlvWYMHxhBhQgq0l4ozFP4bEF3h6Ctj+Cp/Aq1x0VB80AFXktzRvP2k+3Yom9ivfQoDFvX3oRSYEKiUOtZSkciTtvz6smqaBFsm6BHMg0JvpRidK1wFZq0Zqj+2bT0COhbJynayrQgyWlvabm8llL9wbzwfsADs7D1iGQOgkoxMy0pyIBfKpanzX0S66f5bNbmqNULpZiJxJvRBPMZfj01tPfnohkT3XlQHpSMEoqYDdssXV+cKZOsMXrPcVcIyVihSNtgWbB9P8E8+75Lp8vuzej3x3aCpybTa/ZCV2HPyegXipVFCfqYNTgstLW1sWnTJubMmYPf72fbtm188IMf5He/+x3V1dX9e7CDw1DQzAZMwzAIh8OMHz++P5+eXbt2sXv3bkzTZPLkyQQCAVckpK6ujoaGBsziE/nbyjzaOgSGCWofGZjflGScor+7fRPg9ShGlUo6ooLumEFxWCINKAgodjcZSKmz0ZEVknRCZ6Nej8Lrg+ICiQlEmw3Sqd7HzZiaymQLJ8tztmlO8Q1lQNoQmEELX0EXfrOASLuJUoJRw212Nu7n5DT0Ftz9qEWWWI+T7Yi9Gku9Hi+U7oBJhS+jSd0Kh4+oegKhEvoEX34S7B4Bo3Y6wbqPoAkQ6obOAsW/Z0NxB8xYr7ekraW6udJaAvUjQQUULQWil+5lLiYpyW4lGG1LSm2t3p6xoc0WNNmCYo/ap8jIeCSTlKQhbdBiib3HLdHbbUvoi4PlAdsnGOmRFJmKqGXTZAlinr3pc6eSIapMioTCC1iyZ2zUQuD3SKwcYr1CsxO8li59SIc/G8vDpWcpYIbHZknh3pYWh4P29nY2btzoBsydO3dyww038Ktf/YqTTjqpX491CBgKmul0mubmZpRSdHR0MHHixH55XiklmzZtIp1OM336dDZu3IhlWVRVVVFSUsK2bdtIJpNMnz7dnUKqbTH42woPtU0m6TTs+fkoRZ8+QO5NQjG6XBLyKrbsMgFBflBRHpY0NhukM9ls1Cacp9heayKzNgWGoqJEEvBAW4sgGTdQXqXb0tnXJHSdK6sbqlDuKKFh606wHVKEh0nyAoqdu80+Z+JBNyh8+9EJRSgMWyCkwpei1+QN6CZT7nshHBGL7BZeobMmZSq8znHawtBcDumcYZzc7TloK19fBv5drZi2EbeE0FqanfdWrJsChiGQKNJePdqZyKPXxxVWis59nF9FSjEjI9kdNxBNgmg5e52KM702q5zaZalSDENS6DAPkjbkC8U7OfYpSs+I6QzR0LVXYWgTuREBhUfZdKVt2ixBu2dvRSETRaWhmCps4hmD7X2Q6tMefUGKhzQDIWutUumxuca0+by//5pAHR0dbNiwgdmzZxMIBKirq+O6667j4Ycf5rTTTuu347wLDAVNpZQrld/S0tIvReVMJsPq1aspKipi3LhxrkBqZ2cnTU1NNDQ0EAwGGTduHGVlZX2WA5SChjbYVO+httmguUMruwsLd/JkT2S/40G/xDCholCRTkNzxMBnwrBSSVuboDtuUFIk6YoLKou1j3lLS09QBRhRaeM1oKtd0NVh7HWcLO0n2x1XzlipodCkVUNrdoYqJaEgtEYNkjmZbGWRTUt035loloDd834obWGc1FllyruPzrzSwdNj6SzTUDkTOs7foyXQMAxNxWIPDqmEojb92ipadZa1ayQ6sDloCyt2D9ONKNOhXUmh15QKgC+o6DD2fW6dgGSrMCi0FHP/AjtGw45xve8/2iOp2Q+laSKSMlvRlhLs3kvZXmErfWGThhaITvoF00M2a5XBRCEJptI0ZAyipr/XI0cYknpnPr2v2fiUT9FSsfdr+5FIcV0vH+p3j87OTtavX091dTXBYJCGhgauueYafvSjHw0G7uVQ0ARIpVJ0dHSwa9cuV4fv3SIej7Ny5UrGjx9PZWUllmW52/FEIsHq1asZNWoU+fn5NDc309rait/vp6KigvLy8gN6O8dT8NpaD6u3e2jrEL0I6FIol1eZGygCfkVlWILTxBk3zNZqPSlo7zTI2ALTyTT9JrS1CUqLFLW7dVALF0iK8hXxLmiPGu4xMqbDB8zsnQHrqq3OAAEyPkWgTJJXBJ0dApkRxJP7+/6pPhWYlFJ4LTAswf4SG4n26hFSuYT/rNmZQnNId1dCR4kOsCVtEG7XNc3cWXspdD1vxWx9Eci+z/VVPQIl0tBCx0kfJIPCbZakA3p2Xnp7ry073nni23DCNrD8iqZTJBuD2YuIwmew17RQFoZS+BWk0HXdWUIi4xY7ZE8AnO2zWb1HrRx0ALVMbcucCOrgXGFl6EzZtEuDzj6yUOiZjb86YBHLgz8oD6sw3DW+bSQYuT/x1oNEV1cXa9eupbq6mlAoRGNjI9deey333nsv559//mE/fz9gKGiCDprd3d1s27btsIrL0WiUDRs2MH36dAoKCpBSugGzvb2dDRs2MHXqVJdAn0UsFqO5uZmWlhZM06S8vJyKiooDCrNmLHhzk8m/N3tojho6c9ojC82tfSKgNF8HxqBP1xDTGbAtgc+j8Hp0M0UohWUJ/F7o7BR05DR6ggFJ0Owk4PXS0hZy6q8KZYKRFr2yP1toYnn2JkM6CwooKFAUlilScUGkvXempLJE+P28dsur8KS1V7w303OxcN8bs+9SBjJL4taZata103Xx3OO9yz6rZWglpO5C/XtnnqbbSLPnObPk11QAuvL0BE724pX2QdypA54ubN5Omcx7GpdD21wGqbNtonH9mOZ9GcyjGzut9t5/H49NpQ0bEwYTvJJN+1Esks6rS/v0dtvywSmGjZG2qc0YtIm+i7XPFCcY7+l5Y1dKwWLl4ZtmH/OVh4ju7m7WrFnjBsyWlhauvvpqvv3tbzN37tzDfv5+wlDQBF3XTCQSrF+/nhNPPPFdPUddXR11dXWu6EduwGxsbGTnzp3MmjXrgFSmZDJJS0sLzc3N2LZNeXk55eXlB3TTUwpWbjdYtslLXXNvTiXomqUwoDCoiHbt7WQU9CuK8hSFQZuuLoNkQlAS1tv7dFpQmKeIdSsi7SYCwZjhNg1NBhWlPdv7TEbo7ralJ09sj8K09gziuoGE1LSVtBdkkaSyQmEloCVqEPTRS1WqL2RyZtqFVPhTQivVO39Pe/dv+aE9j9Ak+ZzJGf18PZSl3MArBWycDNEy/XNjBa6NcbazrJtYTpPMp7vc0pnHdux/8HsVJ6w0KI/o+wtnPU9fCaZfcUHKoskyabQFXX2Msk4zbTbupwNepiTjNTtdK+vn/lPQrRS1KQPL7mkqSiDolbQEtG3LbEPSnYYa2XMcv7J5XtRRVlKylxrY4SIWi7F69WpmzZpFXl4ekUiEq6++mv/+7//m8ssv79djHSaGgibooJlOp1mxYkWf5mr7XYxSbNq0iWQyyYwZMxBCuAETYPv27XR2djJz5sxDpjJlMhk3gCaTSUpLS6moqKCwsPCAytab6w3+uc5DTaNuKglEr+2716O5oNn6aPbZxlXZ7Gg0GV6qrWCbmk0CfkVJQZp4LIkSeZSHQUno6jbo6HQsjZ3tvc8L0ag220pLIO04LvZx8ts4VhtO4ImHQBQqxpdZZLoMWluzuqN7P06Ze397lQK/rfDHtayct4/Hus9h9J5AUqpHDT27hVfOG6PX79wP2D5OiyZ35EF3gSI7YauTbuHyGZXQLADLo8c243laZKWwE076t/NJ5JQMto6Ff58GpwnNAQUol4oRtiRs6/XGbShW8NZ+guZwQ9K4HwfPkYakTgpOEZKdMYO4zJZ0dPYplH5/okUwxWuTZ8P6jMEUMny7bT3RaBS/3+9e0P1+/z6PdTDIBsyZM2eSn59Pe3s7V199NV/60peYP3/+YT33EcBQ0AQdNG3bZtmyZZxxxhkH/TjLsli1ahWFhYWccMIJvUztpZSsW7eOQCDAxIkTD9uFz7ZtWltbaWlpoauri+LiYioqKigqKjrgXPzuKLy62kt9xKCl3dhrK2uaCgNFxjKoKpY05UwQlRVK/CJNc6uWC/KYilFVNtIStEYM0hkI5yvyggqPCbYNiYSgME+ilKCrU9DRYej5ZuewpgRhoTmbvVTJdVfdXyypN0w8XsWofElQQlvUIJ5wOv2B3tJ8e0IpnfXlxfbmeuYea8+xTf1YXQMNOOyZnP6RPrYzftg4DLZOUDRUarEQTeDPNp6UFhdx/NdtA4Qz+50KwtT1glCy54mzx8iY8M+zIByQbC0w9klnOl3aRJMZirtTpH0F1O6xVa82bdbsJ6jO9Nqsdjii+SiqpWR9zMDK+V5YhubjZvw6qx/mUXzEY/HxoH5D4/E4LS0ttLa2Ytu2KxJcUFBwSN/1eDzOqlWrmDFjBgUFBXR2dnLNNddwxx13cO211x708/SFZDLJOeecQyqVwrIsrrnmGr7+9a+jlOLuu+/miSeewDRNPvGJT/DpT38apRR33HEHS5cuJRQK8etf/7qvneegDJpHXeVICIFhGIfkVJf9sMeOHUtVVZXrZmkYBqlUitWrVzNs2DBGjhzZL2s0TZPKykoqKytdg6qmpiY2bdpEYWEh5eXllJaW9rltGl4CN56na07t3fDyGi8bak06u/WmzbYFFpqD2dwp8HqV20lv7TSAAAVhSXm+jZWG7bv1R2QIRUW5IuhVtLcJuhztzjHDbToTBkGfIhoThIskRQWKRBxaI3rDaHsUpq1IuwNKwuVn2i0mw4Qi7hPUdZtkHEWgESU2YUNnfdv3QcoHZ1ba1CZtWUOywB4UwoxHYab3/v4LobmXXSZ4pPYu0g0lHRCzu9XyFvCkBP6QTUexIGZCWgmkECC0RzxoKo+htCmpIQUVDVp5qi85II8NlQ3QWiWo6tZ1VMuna6fpnKpOaybDtmAAgrrmPdyWTMoo0hnYljE4UN6X22rsRvAvw2R0gaQ8LV3l9u+Up/iXbbBJmew2BO/z2nwsp/MWCoUYM2YMY8aMIZPJEIlE2LlzJ93d3b1Egve3jc82RrM9gO7ubq6//no++clPHnbABPD7/fz9738nPz+fTCbDWWedxaWXXsqGDRvYtWsXGzduxDAMmpu17c9zzz3Hli1b2LJlC8uWLeMTn/gEy5YtO+x1HA0MehG8trY21q9fz7Rp0ygsLOzVIc92/yZPntyvs+u5yDWoyvJLm5ub2b59O8FgkIqKCsrKyvr0VinKhwVnZFhwRoZECl5b52Hldg/RDr3FllLobbXQM++mYWPZJp1xg644jB1mUzXcxlTQEjFozNHhLCuVFAQVtgWtTrZaWCApLFDUNxlYliDkSNsFvJKaHR6U3GNU1MjqduqmUnGnQnYLkgHBbsukzgMnVNoEyiVlft1Iao32nv+WZtb+QW/j43mQCCoCSUEgma3vHSBhMAG0Jmav0qjT9DEsCHfB7L8bpEOQqlTESiS7SvQUUsxE2/Oipez8GZ2tDmvuHTBzm00CGFurg6b0KHyWwONwVKWhM75kQNHg632K7DYNdjt+QAVKITKKaq+NsrVxXKPVW7ezLw2WWgxqfXCizyaRFJyXJ7lIOLp+B4DX66WqqoqqqqpeIsHbtm1zHSf33MYnk0lWrVrF1KlTKSwsJB6Pc8MNN3DLLbdw0003HfCYBwMhhNsLyGQyZDIZhBA89NBD/OEPf3B3aBUVFQA89dRTfOQjH0EIwemnn057e7trqjbYMaiDZn19PbW1tZx44ol7NXyygStbzD4aEEJQVFREUVERSim3E79ixQo8Ho9LZeqr7hT0w9wTLeaeaGHZsGyTwdtbvDRGDJTSgciSHnCaF5YFNY3O34RuLlVV2poQHxW0dhh4TJvGqEm4SFLszLvvbDQI+GB0lU1Lq8GuRoNgwIAAVJTYmEBLk9FrFl8522dl6G5MKC7Ii2veZHdM0OExaHVeUkGJZHieRKWgudVgeJmkNtI7w1GOJUgi4JiVHSAWKJEbznLgSNOlHaaBUgIjo8jbaRDeDsOEDtrSC3G/orECNkzR9hwlEe3wCejOi0KrpueUCYJJRVkD2hveVJhe4XZqfBbkJQUKDwWGnnRqK8ZVXgfoEoINXoOd3p6LmVCKYVIyXCoKLPDY+95R/RuT2fk23ne5Cc2KBGcThlgsRktLC2vWrEFKSVlZGYWFhWzZsoWpU6cSDodJJBLcdNNN3HDDDdx8883v7sD7gG3bnHTSSWzdupVPfepTnHbaaWzbto0//elPPPnkk5SXl/OjH/2IiRMnUl9f30vVbOTIkdTX1w8Fzb5wMDUYpRSbN28mHo9z8sknYxhGr4ZPTU0NkUiEk0466aDc844EslfW/Px8xo8fTyKRoLm5mTVr1qCUcqlMoVBor8d6THjfNMmpE7tZtWo1HeoEtrRUsqtZi4IkHB1G6OnCYgsaI6bLASwtlRSEJYmMoKPLoKNb3z/kGMqlLLAUTBhrkUgZJJPQFNEZqGEoKobZ+D1aCg8PJDp1l1843g22Q1an06DI+ciSAYiFDDY73W9/ocJfqE3DmvtSd3JI9ykU3Up38LWvjtLeTI7fkTzAd0IzAHTSqEyhPZDAUWoSeJJQkIC8uGJcjSLuh1BCewqZTnc+lgc7xvQOeiAY3gi7Td1IUkJzPi1TCz5jZDNlRV5SEGrQTIGUXz+f7VU07DlJJgS7TaGzUS8UG4qJKZuumJa52xNjPP3XNsg6To4dO5ZMJkNjYyNr1qzB6/Xyhz/8gZKSEp544gnmzZvHxz/+8X47bhamabJy5Ura29tZsGABa9euJZVKEQgEePvtt1myZAm33HILr732Wr8f+2hiwDLNbANnz8aKZVmsXr2a/Px8qqurkVK6AVMpxYYNGxBCMGfOnEMWKz6SCAaDbt0pOy6aHe0sKyujoqKC/Px8N/Bna0zjxo2joqKIC9CFwK0NBq+t1eOdieTeW1vd/dWGbR3dgowUlJZKioKKRAxa20x2OkTrqhKbtriJ36sIhKDYI5GWwOfVPFFbQn6JREpBSZFNV4eg05lIylKMbK8TpgX4Jfi6Aa8ikSdIWLCjzaQ7KSjO76IoEKSxtbdwRjAgSSQNd/uuA57ALQZK3fCxPVobtK+G0T5hOA0tj84MhRSY6AAKWhXdzuGGTtoKO8b2EOcFWhBZ2ALp0ywF09ZBPdCuLY/jfkFWGUOgt/6+jFaGFwKSPoER0heUPZPlAhQRBBG/ScCnOKsPv/hxh/SCDx5KKXbv3k11dTVFRUXEYjHuvfdedu7cSTAYJBQKceONNx6Qn/xuUFRUxPnnn8/zzz/PyJEjueqqqwBYsGABH/vYxwAYMWIEu3btch9TV1fHiBEj+n0tRwIDFjT78glKJBKsXLmSMWPGMGzYsF4Nn3Q6zZo1aygrK2P06NGH3SE/kvD5fIwcOZKRI0diWRatra3s2LGDWCxGSUkJ+fn57Ny5k+nTpxMOh3s9dsIwyYRhOpVriMIra7xsqfMQT/QEUNOph9qOlW+0wyDSqR9fEJaUFygyKfAbsKth7wtLKKAI50vyA4p4XKCUICUVrXFBUYmeSErGtUK9IZ0RRttRNAI8SQiltYAyIoMvmKQrXUhbt6C0RFLql+xuNrBsQXG+IrEfhSVlOCrvfi03pwWNIZBSPTSmAyRjrpjwXn/Qwd52KFOWgFG79Ex8V5G+i6GgOAItFWifIEehXhngS2lB4bRP0FGoM0xT6hFTw9ajk4Ek+J3Xl/HpkkQ8DzBgGJIOh86UdPziR/glM2KStY7z5tgjIO+WpfRNmDCBkpISMpkMjz76KFdeeSVf/OIX2bx5M88880y/Jh0tLS14vV6KiopIJBK88MILLo3p5ZdfZty4cbz66qtMmjQJ0B7n//d//8cNN9zAsmXLCIfDx8TWHAaAcpS1vPj3v//N1KlTXQJ6e3s769atcxs+ufXLWCzGmjVrOOGEEygvLz/AEQYvbNumpqaGXbt24fV6XSpTSUnJAb/A7d3w6hov63aadMVFnx2GrIgE6LqoF8gLKPL8ClOAbUGsW9AZ09FkbJVN7W6TyjKJKRSJpKAg1KPWFAoqyookflNRU2uicjiG0tAiIqbUYhVWUOEPKXxhaE0aGApG5EtMlMsA6AtlhTZtbfvo+qoel81gqs+wCGjKTjC174uodofMeVql8NiC9jA0V+h65Y5xepIoyxdVzmip4TiBCqEbRLF8ba6mnDlRgVMCcJxAUbrZZnmgKCDZsg8604lpGxUTPBhOMbEft+iZTIYVK1Ywfvx4ysrKsCyLhQsXMnXqVL761a8esWRj9erV3Hzzzdi2jZSS6667jq997Wu0t7fzwQ9+kNraWvLz8/npT39KdXU1Siluv/12nn/+eUKhEI888ggnn3zynk87KDOjAQuaq1evZvz48eTn57N792527txJdXU1fr+/V8CMRCJs2bLFpUocy6ivr3e3TF6vl/b2dpqbm4lGo+Tn51NRUXFQzn7xFPxzvYdV23Qnfk9TNhFUhAOS9rbsjEpveE0tlBwOSNIJQUurgZKC4rDuyLd16Hn4phYDn0/RHRN4PVBe4kwkNe/RSPIqpK2J6QYC5UjZGaZWrEfqjNgwwVskUUFBe7cgYwnGVdru3H1fcL+ASos4+9I9pPgsbLFv/6Ps3/eS2VBav9KU0FEIb58I3UU9s/ICRVGboCwCu0boLFgaeksuhb5PKqiZAgbC0cTMij8700tofqw0NXk9tUd526cUW0WCfdjJHzKyAXPcuHGUl5dj2zaf+tSnGD16NN/85jcH9e5sHxiUCx6woLlu3TqGDx9Oa2srXV1dzJw5s1fDRwjBrl27XHP6A4lrDGYopdi+fTvd3d3MmDFjLz6dUoquri6am5uJRCL4fL6DFhXRnXiTt7d4aIro4JfxQHYEJhxU5HsUkXYDOyc7LQ9LWp059KBPUVEkEVbWdRPKiiTRNsGwCkkqpQVHOju1OpMQknB+knCen/Y2QUmxorbexDC1Tzw5jSx3nU5TxbA1DSgeVHjLFSOKJVZCk/cTfWSLlrG3wpImxUMgo+XlUAL/fsaxU96+iffuZFIG0h7F8vdB7TAtUDKqHgLOtrt+uFZUEko3gpRwPJEMrZ2aEXo7r4RebyrkaJhmBVQ8CssriBb3cE8BRiNZbuyndnEIsCyLFStWMGbMGCoqKpBS8pnPfIbi4mK+973vDar6/yFgKGhCj+XFhg0b6OzspKioiIkTJ/aa8FFKsWXLFtLpNNOmTev32dujCSklGzZscIWRD+Zqn6WOtLS0YBiGO0J3oFl6pWDVDoO3t3rY2KA1PsGRljMUVWFJQGj5uhFlkpo+SOteU1FZLPGha6eWpSupLa06YAZ8afICFvl5PqQSGEqRTgmCfujqErR3GAih8PoVdkq4GqG5U0FajFjPa6cC0F6oO/rDCyQFJrR3aOV7AH++JNW97xNeK9Q7XkcZHWA9adGroZT0sd+gaji2HR1lisY5EllvuHqiCqgdqeuUhtT0KYEOhFIIV8w5WztNefXWPONXugZqCzoLlLu9T3l1gBUC3o/NY8bhiwlblsXKlSsZNWqUO5DxxS9+EZ/Px/3333+sBkwYCpoaUkq6urp48803qaioYOrUqb0aPpZlsWbNGsLhMOPGjTsWtxQusmWIkpISxowZ865ey56iIrmd+P2hIQq/eiVAW9ce+pzoADqqWGJKaGvvO8ML52k604gSSTQqSCYFBYFugj6T7njQHbMsC0tSGSh19ERTKUE4O5EUNagql3R0CZJxsZf8XFZoWdiQ8gk6CnCdOivyJCU+hd9QbK3dd7lCqR6BjD1fqOmIJQsJefH9n4FJn96S14wBcvQ5FdA6TJEK6zqmZemGmK3Ak9F0qazlR7JIPzSjNEMg44V0QLG7Kiuvp2vAltDskY+T4X+Mw1Mssm2blStXMnz4cIYNG4aUkrvuuot0Os2Pf/zjYzlgwlDQ1Ojs7OTtt9+mqKiIcDhMZWXlXhqYY8aMoaqqqr8PfVSRTCZZvXo1o0eP7rfX8m5ERV7baPLM275eYsq5vWaFwu+BoEdhpyGR0k2cMZU2O5t1JmoaiuJAB9LKoyvmRaAoL1aE8ySRqEFnjpxdwK99kaSEWEwQzlf4/Yr6OhOPTxFLCWwJSIFpOz7pQrnfNCl6S6gNL7XpiguGBRV2UmfJuVbHlqn2Kxain1M3lAJJCCX31g6VAprKdS2yO7/HWiL7NzFMkglDsVfRYWkWQ6FH0ZwWRIWg3YRoiei19Qao9th8NJBhblDyljB41TB4WxhEpcCy4WZsPibevQJ7NmAOGzaM4cOHo5TinnvuIRKJ8POf//yY3qE5GAqaoLOvrq4uIpEIjY2NjBkzhuLiYjo7O9mwYQPTpk3bi4ZzrKG7u9sd7ywuLj4ix7Btm0gkQnNzsysqUl5eTnFx8V7ZRdqCR1/zsb5Wb9mV0DSfPqEUfhOKQ5LWNrPXt1agGFEmURlobjUZPUx7ExUXSopCDk80RzjZ41GMG23T6JjRVZRIhHIaSVZPJ9429DbXkFp6zgBQWmA444PukKYkIXRwH5kvMTN6tLSqRLJrP/5I0NubSCnNBw0leuTs0l6IluqfEwH0sXIeKyokhZUSnwExGyJpg3K/ImlDuU/xyTFpfpL28mTSQypXqNpQvFmcoKiPZM9W0A2E32VYsG2bVatWUVlZyYgRI1BK8Z3vfIedO3fy61//+r0QMGEoaGqk02kymQy2bbtz3C0tLUgpmTx5MpWVlcf0liIajbJ582ZmzJhxwC10fyErKtLc3Ex7ezsFBQVuJz735KmPwiMvB+hKiH3aeGhkg6oi6E2S7zNp6/T26tIPK7UJ+iDSKoglej6vgpCktFCRSUJbm4H0aTWmURWS3bv1xJNhKCpLJT4TIhFtcJfs3LuMIJ1IZzgiHim//pdwpnU8QjGtwsKKGbS1GcQSe78mG+grfGRV6UNxLSfX6Vynk35FPKi73o4UKekCiapQNOZ4oJf7JKcX2XxkRIY8T/Y54TcJD79IeIlKQYUpeaWkfxo9uZBSsmrVKsrLyxk5ciRKKe677z7Wr1/Po48+2u8OrwOIoaAJ8Oijj3LfffdxySWX8IEPfIDf/va3nH322Zx99tlEIhGi0SgFBQVUVlYeULllsKGxsZHa2lqXOjUQyIqKtLS0EIlE+hQVeWurwY4Wk4wlyNi6A6//aW1OU8Cu5h66kkJnjZVFug7aHDEYWS7Z0WwiUFQUKfJ9is4OPdKZxdhhFkoIIm2CWNwgnC8p8Csam3I/U8Xo4TamFNr6uA+LYumoF2XFRQylpd3SAcgvl7TEtc/OsAJJ2APdnT1Wx76QJB3f/0U4HVLa+TGlJ5MKx0g604KOpEDZusHTnQfKKxlWlMI2fZxapLh55L7rka+mDTZYBreF+s8ADXTAXLNmDSUlJYwaNQqlFA8++CDLly/nj3/844CNFR8hDAXNLDo6Oli8eDH33HMPZWVlnH/++SxYsIDZs2cjhHBN0SKRCHl5eVRWVlJWVjZoA6hSip07dxKNRpk1a9agudLnioq0trbi8Xjcmfj9BfVoNMrKtTVsTZ7C1gaf1qqkRyzYYyhKCySJhCCe7B2Q8gN6IikV1y6STVED01CMLJd0x3QwG1Fuk+jSHXKfV5FUuMcozpeUBBXdnYLOdt3i2bNuaRtKj0zaugtkmQJL6Aw05Wi3lIYk5X6FV1nsqPOxv/OvPaxHLpVS+AWUD5METcVNMzNU5Su2d8BrUS//ajEIeZIU2e1coLYzokwPJ+Tl5R2VhmU2YBYVFTFmzBiUUjz88MO88sorLFq06Jim5e0DQ0Ezi1gsxty5c/n4xz/ONddcw9KlS1m8eDEbNmzg/PPPZ/78+Zxyyimu/Fv2pM9mTeXl5YMqMG3atAnbtpk6deqgLi1kRUVaWlr2KSrS3NxMTU2Nmy2nMvD0ci/vbPPoLb3SY4v7lHtzKDgej8LvU71cOpEwvFwiLYi0G4yqkNgZ2NXS98UwL6CoLJAEvZL63SapuOh1XOmoI5mW5j+aEjKGpjEl/GAFoMTfQdrOZ3g+KGcdvUsTCnWCpCPeQ9hP+uH8cRk+PHPfmWQmk6G1tZXm5mbi8TglJSWUl5cflFD1u4FSijVr1lBYWMjYsWNRSvGrX/2KpUuX8uSTTx6RGfJBgKGg6T6pUmzdunUv3/NEIsFf//pXFi9ezIoVKzjnnHOYP38+Z5xxBoZhEIvFaGpqorW1FZ/PR2VlJeXl5QO2JbFtmzVr1lBQUMD48eOPKXpUOp12O/FZURHQWebs2bP3ek+Vgr+t8vDaei/KptdE0J4QMiss4jxW5Lh02rqBU5SvCPqcySEBmZQOaKqP8dCKfEm03cDrUYQLFIap6IwJUglts2yobLNHjz0ajt2I7ZEIn6DTY2iRDgF+UzGiQOKVWqQ56Fd89kO67vjGToOlG3wIL3zytBRV+Qf39bdt260pd3R0UFBQQHl5eb/tjpRSrFu3jlAoxPjx4wH47W9/y+LFi3n66acPyN89hjEoT6gBCZoHg1QqxYsvvsiiRYtYvnw5Z5xxBgsWLOB973sfXq+3l6tkVsuyoqLiqG1R0uk0q1atYsSIEQwfPvyoHPNIwbIsNmzYQDQaxefzUVJS4tp79HUhWFVjsK7WpKHNoKPbIJWmV5PI71Fk9lBqVzl38XoUVUWSPJ+iqc0gnKe/Zh3dWuADW5PpM5Yg6FdkYrC/8ycvX5JICoQjeiwd7x3T6Y5LU3fkVb6i1S+0bihgoDh7coYrT+tdd0xZ4H+XGxmlFJ2dne501+H6+yilWL9+PYFAgBNOOAGAP/7xj/zud7/jmWeeOSwt2V27dvGRj3yEpqYmhBD853/+J3fccQfXX389mzZtArQmRFFREStXrgTgO9/5Dr/85S8xTZMf/ehHXHzxxe/6+AeBoaD5bpHJZNy6zb/+9S9OOeUU5s2bx3nnnYfP5yORSNDU1ORO0GQD6JFqxsTjcVavXs3EiRMpLS09Isc4Wshm/alUimnTpgEQiURoaWmho6ODcDh8QFERpaChDTbWe9jZYtDRJWhqNdhzJh40xUghKC20iXaaCKGoKlEEvIqOLkHIr/B5oa1LUBBUhP2SeLeBkiCVFiOWUuj/bT1Zk4gJLFvgMRX+oK6XGraphUVEj6laIggioCgdIZE2NLYZ3Pr+FJOGHRl5NtDflWx5SSnlKqsfTB00K4Xo9XqZMGECQggWL17ML37xC5555pnD1mJoaGigoaGBE088ka6uLk466ST+/Oc/u98DgM9//vOEw2G+9rWvsX79em688Ubeeustdu/ezYUXXsjmzZuPZK9hKGj2ByzL4p///CdPPPEE//jHP6iurmbevHlccMEFBAIBkskkzc3NNDc3o5RyA2h/bWE6OjpYv369a051LCN7UpqmyaRJk/Y6iZVSvURF8vLy3E78gWrKlg3LN5ss3+KhsbX3ttswVY5nvOqlv1mYJynJV8QTgpJ8bechJSSS0N6p5eZyMbbKJpUQ+ExFQ5MO1EIohlVIujoFCaebnwjpAIqhCI+U+DxQFZZce2qmLwuhI4J0Ou3WQZPJZK86aF/v/aZNmzAMwzULfPrpp3nwwQd59tlnKSoq6vf1zZs3j9tvv52LLrrIXcPo0aP5+9//zsSJE/nOd74DwJe//GUALr74Yu65555DMkg8RAzKoDk4uimHAI/Hw3nnncd5552Hbdu88cYbLF68mG9+85tMmTKF+fPnM3fuXEaPHk0qlaK5uZn169dj27YbQPtSUz8YNDc3s2PHDmbPnn3M15GyndiCgoJ9jqsKISguLqa4uLiXqMjOnTsPKCriMeGMqTZnTLVRCtbsNHhjg4ddTSa9HSB6t5S6YgadMT3qKYX2jk+modlRli8s1EpMHo/ONK0MNEcd4ZFAgtIik+ZmL7sdWlN5haS8SDKh2mL5Jg91jQbJpGDSWJsr5hy9gAlaZ3X48OEMHz4c27aJRqPs3r2bjRs39jLsMwyDzZs3I4RwA+Zzzz3HAw88wNKlS49IwKypqWHFihWcdtpp7m2vvfYalZWVbu+hvr6e008/3f171qLieMMxFzRzYZomZ511FmeddRZSSt5++20WLVrE97//fcaPH8+8efO45JJLGDVqlNv42LRpE5lMhrKyMiorKw+6JrRr1y6am5s58cQTj3kuXNYOuaKiopdPy/4ghKCwsJDCwkImTJjgioqsWrUKIYQbQPu6mAgBs8ZKZo3V+m07GuEfa31sbzBJpfZWp/f5tENna6eg1RFXzstTlBfqznuD0wGvKLJpjZqUFGcQdjeoAuqaPQQDimHFNq2tBi1RgxNnWcwaLZk1Wh+/pVNQWqByR8yPOkzTdGududza7du3Y1kWgUCAqVOnIoTgxRdf5Hvf+x5Lly49IgaC3d3dXH311TzwwAMUFha6tz/22GPceOON/X68Yx3HdNDMhWEYnHrqqZx66ql897vfZdWqVSxatIgf/vCHjBgxgnnz5nHZZZcxZ84cly6yZcsWksmkS73JtaPIIlvzSyaTg85i490g28AaNWrUYc3E5/rRZEVFNmzYgGVZrqjIvup246pgXJUOYE3t8MpqL5vrPMTiOoAmMyJH/1IR8EEsKYg5Nh4+r2J4hU2BT2FZGdq6DJTS46pFYa08H09CSsL4cTYzp/Ru9JQXDq6qU65hX1Z0u7CwkNtvv51169bR1dXFY4895jIc+hOZTIarr76aD37wg64tBegL65IlS3jnnXfc245li4r+xDFX0zxUZOkaixYt4tlnn6W0tJT58+dz+eWXU1pa6tpRZPl2uSIY2ccGAgG3EH8sI5lMsnLlSiZMmHBETkDoERVpaWkhkUgclKhIFp1xrU6/ZbfhbLl77i+EorRIgoLWdgOvR8+pZ2wtRVeUp8gPKryG3rZ3xwQ+E66fm6Ki5Nj4Gm/bto1kMsm0adMQQvCvf/2Lr3zlK9xwww384x//oK6ujhdffLHf9AyUUtx8882UlJTwwAMP9Prb888/z3e+8x1effVV97Z169Zx0003uY2gCy64gC1btgw1gvbAsfFtO0hkXS4XLVrk0jWuvPJKPvCBD7jCrZFIhKamJrq6utw6aF9NkmMNsViM1atXM3Xq1CNSE+sLhyIqsieSaa1Ov3K7qcWSnU68FOD3K0pDSbq6JYl0CNlHl14AV5ye5n0z+neM8Uhhx44drki1EIJly5bxuc99jqefftotoSQSiX6tpf/zn//k7LPPdgXAAb797W9z2WWX8dGPfpTTTz+d2267rddjvvWtb/GrX/0Kj8fDAw88wKWXXtpv6+kDg/KkO66CZi6yauqLFy/mqaeewuv18oEPfIB58+YRi8V4+umnmTdvHqlUis7OTtfPp7i4+JgLoNmO/8yZM4+aiMieOFhRkb5g2bB8i8nyzR4aIwaWEq5qUZ9wNDb/34IEw0sH/1e4pqaGzs5OZsyYgWEYvPPOO9x+++089dRTjB07dqCXN5AYlCfacRs0c6GUYteuXSxevJhHH32Uuro6brrpJhYuXOiKIrS1tdHU1ORyFysrKw8qYxpoZFWXqqurB03Hf08CeF+iIvtCQ0Mjb67rpik9lboWjysxl4ugXxH0Kr5wXXJAmz0Hg9raWtra2txsb9WqVSxcuJAlS5YwYcKEgV7eQGNQfnrvmUbQ4UAIwejRo5k+fToAS5YsYcWKFXzqU58iFotxxRVXMG/ePKZOnQrgZkybN2+msLDQzZgGWwDNzpHPmTNnwFSX+oIQgnA4TDgcdjvxzc3NrFixYr+iIg0NDdTX1/OB82bj8WSADDuaDP6x1sP23SbJtG4kxVOaUjTYA+auXbtckRfDMFi3bh0LFy7kiSeeGAqYgxhDmWYOnn76ac4444xeNsHNzc38+c9/ZvHixUSjUS677DLmzZvH5MmTAb31bWpqch0lKysrD2rLeaRRX19PQ0OD63x5rCCRSLgz8bmiItlMv7q6ep/vrduJr/dw4/kpJlQduUmfw0VdXR0tLS1UV1djGAYbN27kox/9KI899ph78R7C4Mw0h4LmISAajfLUU0+xePFiGhoamDt3LgsWLHC7nblbzlAodNDTM/2Nmpoa2tramDVr1oAH78NBllu7c+dOUqkUI0eOpLKykoKCgmOurpyL3bt3uy6rpmmyZcsWPvzhD/O73/2O6urqgV7eYMKg/JCHgua7REdHB3/5y19YsmQJO3bs4MILL2T+/PlUV1cjhKC7u9udOfb7/a4m6JHM+vacIx9s5YJ3g507d9LW1sa0adOIRqM0NzcTi8UOKCoyWNHQ0MDu3buZPXs2pmlSU1PDDTfcwCOPPMJJJ5000MsbbBiUH2y/Bs19qaZEo1Guv/56ampqGDt2LI8//vgR884ZCHR1dbmaoJs2bXI1QU8++eS9JO08Ho8radefikxZq2CPx/OeoEiBpuF0dXW5XeUspJRuAM025nJHEAcrGhsbqaurY86cOZimya5du7j++ut5+OGHe40vDsHFoPwS92vQ3Jdqyq9//WtKSkq48847+e53v0tbWxvf+973Dm/lgxRZTdBFixaxatUqVxP09NNPxzRNV/WmubkZ0zT7RZHJtm3Wrl273znyYwlZOlgikThgxnw4oiJHE01NTdTW1jJnzhw8Hg+7d+/m2muv5cEHH+Sss84a6OUNVgzKL/IR3Z5nVVNuv/12XnnlFYYNG0ZDQwPnnXeeq9f3XkYqleKFF15g0aJFvP3225x55pnMnz/f1QTNKqk3Nze789sVFRWHpML9bubIBzOyJYZ0Ou3Wig/lsbllkQOJihwttLS0UFNT44o7NzY2cs0113Dfffdx/vnnD9i6jgEcX0GzpqaGc845h7Vr1zJ69Gja29v1EypFcXGx+/vxgkwmw8svv8yiRYt4/fXXOeWUU5g/fz7nnnsuPp/PVWRqbm5GSkl5eTmVlZX75Vam02lWrlzZr97qA4nsxJaUkilTphx2xpzN6ltaWg4oKnKk0Nrayvbt25kzZw5er5eWlhauuuoqvvOd7zB37tyjto5jFMdP0Ozu7ubcc8/lrrvu4qqrrqKoqKhXkCwuLqatre3dPPV7ApZl8dprr7maoLNnz2b+/Pm8//3vJxAIkE6n3QBqWZZLu8lVZEokEqxateqIzpEfTSil2LhxI4ZhHJGabPai1NLSclCiIv2BSCTCtm3b3IAZiUS4+uqrueeee7jsssuOyDHfYzg+gmYmk+GKK67g4osv5nOf+xwAkydPPi635wcD27Z5/fXXWbx4MS+99BLTpk1j/vz5XHTRRYRCIVcAo6mpyfXyKSgoYOvWrUybNu2ozZEfSWQtHXw+31ERRsk1RTtUUZGDRTQaZcuWLcyZMwefz0d7eztXXXUVX/7yl5k3b16/HOM4wHs/aO5LNeWLX/wipaWlbiMoGo3y/e9//92t+D0MKSXLly9n0aJF/O1vf2PChAmuqHJBQQGWZbFt2zbq6+sJBAJuDfRY5i1KKXuZhh3t17GnqEhRUZGrMfBuO/FtbW1s3ryZ2bNn4/f76ezs5Oqrr+Yzn/kM11577WGv+ZZbbuGZZ56hoqKCtWvXArBy5Upuu+02kskkHo+Hn/zkJ5x66qkopbjjjjtYunQpoVCIX//615x44onv6rhSyqPNThiUX+p+DZr7Uk057bTTuO6666itrWXMmDE8/vjjR0RM9b0EKSWrVq3iiSee4LnnnmPUqFFMnTqVv/3tb7zwwgv4/X43W+ru7qa0tJTKysp+zZaONLLq8YWFhYwbN26gl+OKirS0tNDW1nZIoiJZtLe3s3HjRnd0tbu7m2uvvZaFCxdy00039cs6//GPf5Cfn89HPvIRN2jOnTuXz372s1x66aUsXbqU73//+7zyyissXbqUBx98kKVLl7Js2TLuuOMOli1bdsjHtG0b0zRJJpOsWrWKkSNHHg0tzUH5Re5XTsZZZ53FvoLwSy+91J+Hes/DMAzmzJnDnDlz+Na3vsUDDzzA//7v/zJy5Eg+/OEPM2/ePC6//HJmzpzpWifs2rWLrq6uY4L4LaVk9erVlJSUMHr06IFeDqDf89LSUkpLS3uJimzfvp1gMOgqre9rQKGjo4ONGze6GWY8HueGG27glltu6beACXDOOedQU1PT67bsRFp2HVmH1KeeeoqPfOQjCCE4/fTTaW9vp6GhgWHDhh3SMU3TJJFIcN5553HmmWfy3HPP8eUvf5mbbrrpmBrT7Q8MHiLbEPaJt99+m7/85S+sXbuWwsJCNm3axKJFi7j22mspKChwNUGnT5+OUopoNEpDQwMbN27sl+1mf8O2bVatWkV5efmgpUnliopMnDjRpTKtWLHC5deWl5e79LDOzk42bNhAdXU1gUCARCLBjTfeyI033sjNN998xNf7wAMPcPHFF/OFL3wBKSWvv/46oDUIct/jrK/PoQZN0IZqt9xyCwsXLmTRokVUVFQcdwEThoLmMYGTTz6Z5557ziXAT5kyhbvvvpu77rqL7du3s2jRIm666Sb8fr+rCTp16lSX+N3U1OQqMlVWVu7XjvdIw7ZtVq5cSVVV1TFllZCfn09+fj7jx493RUXWrVuHlJLCwkIikQhz5swhGAySSqX48Ic/zPz58/mP//iPo7K+hx56iPvvv5+rr76axx9/nFtvvZUXX3zxsJ4zuyXPIuu7fs4553DXXXdx6aWXsn79eoQQrgLY8YCh2fP3CJRS1NbWsmTJEp588kmklHzgAx9g/vz5jBw5EuityPRu6nWHC8uyWLlyJSNGjHhXmc5gRFtbG2vWrCEUCvHcc88RiUSoqanhkksu4bOf/ewRK4/U1NRwxRVXuDXNcDhMe3s7QgiUUoTDYTo7O1m4cCHnnXeea5CWy2TZH3ID5lNPPcW8efN46KGHePDBB1m4cCF33HEHoAPoVVddxWc+85kj8TIHZW1pcOzXjjBuueUWKioqmDFjhnvbPffcw4gRI5g9ezazZ89m6dKlA7jCw4cQgjFjxvDZz36WV199lccff5y8vDw+8YlPcOGFF3L//fcTiUSYNGkSp59+OqNGjaKjo4Ply5ezevVqmpqasG37iK0vk8mwYsUKRo0a9Z4JmN3d3WzcuJGTTjqJk08+mYULF7J7925aW1v57W9/y+c+9zm2b99+VNYyfPhw188n61MOcOWVV/Lb3/4WpRRvvvkm4XD4oN7/bMBcsGABTz/9NABXXXUV1dXV1NfX86UvfYnLL7+cWbNmHamAOWhxXGSafXUb77nnHvLz8/nCF74wwKs7slBK0dLSwpNPPsmSJUtcTdD58+czadIkQJ/8WUGRrIp6eXl5v81uZyeXxo0b10ur9FhG1nMpayFiWRb/+Z//yfTp07n77rtJp9O8/PLLTJ48ud+ZATfeeCOvvPIKra2tVFZW8vWvf53Jkydzxx13uPa/P/nJTzjppJNQSnH77bfz/PPPEwqFeOSRRzj55JMP6jj/9V//hW3b3HfffaTTaVasWMGwYcN48803aWxsJC8vj1tvvbVfX9seGJSZ5nERNGHv7czxEjT3RCQScTVBGxsbufjii1mwYAFTp07FMIxeAdTn87mKTO+24J9KpVi5ciUnnHDCe2JyCfR45urVq5k+fToFBQXYts0nP/lJxowZwze/+c1By1g4EJRS7tozmQx33303Y8eOZffu3bS3t/OnP/2Jq6++mp/85CdH6zUOyjfyuNie7wv/93//x6xZs7jllluOm7HO0tJSbrnlFp599lleeuklpk6dyre//W3OPvts/vu//5utW7cybtw4TjvtNCZNmkQqlWLFihX8+9//pq6ujnQ6fdDHSiaTrFixgokTJ75nAmYikegVMKWUfOYzn6GqqopvfOMbx2zAtG3bXXsymcTr9fKhD32Il156CY/Hwxe+8AUaGhrYsWMHGzduHODVDiyO20yzqamJsrIyhBB89atfpaGhgV/96lcDvMqBQ1dXF88++6yrCXrBBRcwb948VxM0V5HJMIy9KDd7IjsbP3ny5PeMdmrWN37atGkUFhYipeQLX/gCfr+f+++/f9BQug4VuRnmJz7xCdLpNMOHD+dDH/qQa+uSTCb53Oc+R0dHB7///e+P1tIG5RXouA2aB/u34xGJRILnnnuOxYsXs3r1as4991zmzZvnaoImk0lX/EJK6Y5zZtWDsgFzypQp74nZeOgJmFOnTiUcDiOl5K677iKdTvPjH//4mA2YubjtttvcDPPWW29lypQpfOhDH2L+/Pl85StfYefOnUczYMIgDZrHLU8zdyriySef7NVZP94RDAa56qqruOqqq1xN0EcffZTPfvaznHnmmSxYsID3ve99jB492lVk2rBhA5ZlEQ6HaW1tZebMmRQWFg70S+kXZOuyU6ZMcQPm17/+dbq7u/nZz372ngiYmzdvZuLEiXz+85/ngx/8IOeeey6TJk3i5z//OcFgkK9+9auDxgJ6oHFcZJp9dRtfeeUVVq5ciRCCsWPH8vDDD79nqDBHCtmO8KJFi3jjjTc49dRTmT9/Pueccw4+n4/169fT0tJCKBRyNUErKirIz88f6KW/a2S7xhMnTqSkpASlFN/+9repra3l17/+9TFpXKeUQkq519rT6TT/+te/eOSRR/jtb3/L8uXL+eIXv8hFF13EXXfdNRBLHZSZ5nERNIfQ/7Asi3/84x888cQTvPbaa0yYMIFVq1bx+OOPM3369L3k18rKyqisrCQ/P/+YaZZkA+aECRPcefR7772XjRs38rvf/W5Q2WkcCurr691prG9/+9sopTjjjDM488wzefvtt/nP//xPVqxYwV133YUQgh/84AcDtdRB+UUZCppDOGwsW7aMD33oQ5x99tksX76c6dOnM3/+fC688EJCoRCWZRGJRGhqaiIejx8R/cr+RpaMP378eMrKylBK8eCDD7J8+XL++Mc/HpMz10op1zn1Zz/7mdv8rK6uJpVKMWvWLD7xiU+wcOFCtm3bhhCCv/71rwNZfhiUX46hoDmEw4JlWVx++eX89Kc/Zdy4cUgpeeutt1i0aBEvvPCCqwl68cUXk5+fv5d+ZUlJCZWVlYTD4UETQLMBM0vGV0rx8MMP88orr7Bo0aIB9RvqDyxatIgf/OAHFBcX8/zzzwPwpz/9iX/+85/MmjWLW2+9le7ubvLz8we6Xjs4vhB7YChoDuGwkUtZyYWUkpUrV/LEE0/w/PPPM3r0aK688kouu+wyt6ESjUZpamqis7OT4uJiV9JuoE5Wy7JYsWIFY8aMoaKiAqUUv/zlL3n++edZsmTJIZneDSY8++yz/PnPf2b69OmcfPLJ2LbNpZdeyv3338/ChQtRSrFo0SKeeeYZLr744n6VsjsMDAXNIRy/UEqxdu1annjiCZYuXUp5eTnz5s3jiiuuoKSkxBUAbm5upr29nXA4TGVl5VGVtMsKiowaNYrKykoAfvvb37J48WKefvrpY7Z7/Mwzz/D1r3+d6667jpaWFiKRCHfddRerVq3ia1/7Gl/60pf40Ic+BMALL7zgmv0NAgwFzSH0Rl+2BdFolOuvv56amhrGjh3L448//p4hh2eRNVHLZjbhcJgrr7ySK664wp1Nz0ratbW1UVhY6CoyHakAmpWsGzFihOvs+dhjj/Hoo4/yzDPP9DK1O5awa9cuxowZw7JlyzjllFPYtGkT//Vf/8VnPvMZzj//fJ577jnuvvtubr31Vj75yU8O9HL3xKAMmsc+wewYxkc/+lG3ppTFd7/7XS644AK2bNnCBRdcwHe/+90BWt2RQ1Z/8atf/SpvvvkmP/nJT+ju7uamm27iiiuu4OGHHyaZTDJ58mROP/10RowYQVtbG8uWLWPNmjX9rsiUDZjDhw93A+aiRYv4zW9+w9NPP93vAfOHP/whM2bMYPr06a6XVjQa5aKLLmLixIlcdNFF/TbWO2rUKH7wgx/wxS9+EdDScKZp0tDQAMCll17KN77xDZYuXUoqleqXY77XMZRpDjD2nEY6np07lVLs3LnT1QQFuOKKK3ppgnZ1ddHc3OwqMlVWVlJWVvau6T9ZFfnKykqXhvP000/z4IMP8uyzz/b7RNPatWu54YYbeOutt/D5fFxyySX89Kc/5Wc/+xklJSWu+WBbWxvf+973+u24Dz30EL/61a8466yzqK+v5w9/+EOv9yyTyQxGRsCgzDSHguYAY8+gmesRr5SiuLi4l2f88QKlFA0NDSxevJglS5aQTCa54oormDdvniu1FovFXEUmv9/vzsMf7MmfNa8rLy93g/Jzzz3HD37wA5YuXXpEzP+yTbFf/vKXAHzzm9/E7/fzy1/+8ohfLH//+9/z4Q9/mHg87lpyDPI67VDQHGyIxWIDXqvaX9AEKC4uPm4UmPYFpRTNzc2uJmh7ezuXXXYZ8+bNY9KkSQghiMVi7jy8x+NxJe321dDIGruVlpa6Hjovvvgi//M//8PSpUuPmCrThg0bmDdvHm+88QbBYJALLriAk08+md/97ndH5WL5hz/8gfvuu4+///3vhMPhfn/+fsagDJrH5khDP2HChAlMmDCBBQsW8MEPftDtmA4kKisr3bn4hoYGKioqBnpJAw4hBJWVldx2223cdtttRCIR/vznP3PXXXfR3NzMJZdcwvz585k6dSrjxo0jkUjQ1NTEqlWrXEWmiooK12Mpax1cXFzsBsxXX32Vb3zjGzz77LNHVMZu6tSpfOlLX2Lu3Lnk5eUxe/bsvcYZhRBHjLOapRLNnTuXN998c9BwY48lHLeZ5urVq5k7dy7PPfccP/3pT6mvr+epp5466rPEe2aaX/ziFyktLXVrW9FolO9///tHdU3HEtrb23n66adZsmQJO3fu5KKLLmL+/PnMmjULwzBcRabm5mYAysrKaGtro7i4mLFjxwLwz3/+kzvvvJNnnnnGtb49WvjKV77CyJEj+eEPf3hUa9lZ8vogx6CM6Mdt0Px//+//0dnZyW9+8xtqa2v57Gc/y3/9139x2mmnATobAY4oR7AvIZH58+dz3XXXUVtby5gxY3j88cePSG3tvYjOzk6effZZlixZwubNm3n/+9/P/PnzOemkkzAMg1gsxsqVK1FKkUgkeO2116iurua+++7jL3/5y1GzE25ubqaiooLa2lo34/vWt741dLHcG0NBczBh3LhxPPbYY5x++uk888wzPPnkk3zyk59k4sSJmKa5V61TSjnQI2VDOATE43Gee+45Fi1axNq1aznnnHPYvHkz55xzDp///OeJRqPcf//9/OlPf6K8vJxrrrmGa665xhXdPZI4++yziUQieL1e/vd//5cLLriASCQydLHcG0NBc7Bgy5YtTJ48mTPPPJOTTz6ZDRs2cMkll1BWVsbzzz/P2rVrGTduHD/+8Y/79Obe0w96CIMb8Xicq666ipaWFpLJJGeddRazZs3ipz/9KU8++SRlZWX85S9/obm5mc9//vMDvdwh9GBQBs3jMnX62c9+xsc+9jFefPFFxo4dy1e+8hUuuugiHnnkEW688UZWrVrFjBkzXFvfW265pVcnMzdgHuCiM4RBgPvvv5+ZM2fy9ttvs2LFChYsWMBvfvMbfv7znzNhwgSKior48Ic/PBQwh3BQOC4zzaKiIp544gkuuugi97a7776bVCrlagc+9NBDPP/88zz66KNcddVVLF26lGg0yoc//GEefvjhPm1ZbdvGMIyhjuQgQ3aWfehzOeYwKD+w4y7TjMfjLFiwgIsuugillDuO19bWxvjx4937/f3vf2fu3Lm0tbVx5pln8vrrr7NkyRKWL19OJBJh69atfP3rX6epqcl9jGmaQyfmIERRUdHQ5zKEfsNxFzRDoRCPPPIIoPlw2a32NddcwyuvvEJLSwtr167lX//6F/PnzyccDlNbW+sSnqdOnUpJSQk/+9nPSCQSBAIB3nrrLW677Ta+/vWvU1dXt9cxpZTH/DZ+7NixzJw5k9mzZ3PyyScP9HKGMIQBw3FHbt9XF7y6uppRo0Zx7rnnMmfOHO655x5GjBjBtm3b+Otf/8qFF15IdXU1Xq+XWCzGG2+84UqGrVy5khtvvJHly5dz1113cf/991NYWEh3d/eAakP2N15++eX3jH/5EIbwbnHcBc19BbCSkhLuvfde7r33XqLRqEv3WL58OdFolNmzZzNs2DBKS0v5/e9/zwc+8AEKCwt55JFHqK+vJxaL8aEPfYg//vGPNDY2EolEWLhwIWPGjKGsrIwvf/nLe1FIlFIopd4zQXUIQzgeMHS2OpBSuvXN3OB2zjnn8MADDzBv3jwCgQCvvvoqdXV1fPzjH2fdunWMGzeOZ555hve9733cd999BAIBMpkMa9asYeXKldx0001IKfsUkRBCHDMBUwjB3LlzOemkk/jZz3420MsZwhAGDtlsZx//hpCDZDKpPve5z6mNGzcqpZRqaWlRV155pVq7dm2v+zU1NamvfvWr6s4773Rvk1K6P1uWpd588031ta99TS1fvvzoLP4wUVdXp5TSr23WrFnq1VdfHeAVDeE4wIHi04D8OzbSnAFEbhPH7/dz3333uVMjZWVlnHPOOdxyyy186Utf4oknniCZTNLZ2cnGjRv5wAc+AGgbhdzu7b333stXvvIVlFJ8+tOf5nOf+xyJRIJ33nnn6L/Ag0SW5F9RUcGCBQt46623BnhFQxjCwGAoaB4AubxLKaU7k57F5z//eX7xi1/g9/t57bXX8Hg8rFixgo6ODs4880yAXmKvb7zxBps2beKuu+7iG9/4Bq+//jrf+ta3eOqpp/jqV7/q3i8Wi+21Ftu29zr+0UAsFqOrq8v9+W9/+xszZsw46usYwhAGA467RtDhYF/1x5kzZzJz5kz39/Lyci6//HJg7259LBYjlUpxzjnnuGT4YDDIzJkzmTRpEq2trZSVlfGJT3yCkSNH8u1vf5uOjg7C4XCvSaRdu3bx4osv8rGPfewIvdoeNDU1sWDBAkBnzTfddBOXXHLJET/uEIYwGHFcTgT1N5RSSCkPah59yZIl/PCHP+TVV1/tdXtLSwtz585lxYoVPPTQQ7z55pvce++9rFu3jt///vesWrWK8ePH8+Uvf5nq6mo+/elPs2nTJv76178OTSIN4b2KQfmFHtqe9wNySfLAfrfQF1xwAVVVVXz84x/nz3/+s7sN3759O6effjrPPfccv//97/mf//kfAG677TYuu+wynnnmGc4991x3Aumvf/2ra5aVO4k0ENv3IQzheMJQpjkAaG5u5vHHH+ell17ihz/8IaNHj6a7u5vLL7+cdDrNxz/+cW655Rbuuece1q9fz+OPP97r8TU1NZx44olEo1EAnn/+eRKJBJdddpmrTg6HlgEP4eDw/PPPc8cdd2DbNv/xH//BnXfeOdBLei9jUGaaQ0FzEKG4uJiHHnqIBQsW4Pf7uemmmzjzzDO5/fbbSSQSmKaJz+fjrrvuoqamht///vf8+Mc/pqGhgUgkwjvvvMM999zDZZddNtAv5T0J27aZNGkSL7zwAiNHjuSUU07hscceY9q0aQO9tPcqBmXQHNqeDwCUUliWBeis8Qc/+AF33nknF154ITfccINrBnbzzTezcuVK1zUw24X/05/+xCc/+UmWLl3Kww8/zI4dO3jooYe47bbbWLNmDaA9b2699VZ++ctfup3vIRwe3nrrLSZMmMD48ePx+XzccMMNPPXUUwO9rCEcZQwFzQGAEMINgMXFxXR2djJ8+HB+8YtfAD0anaeccgpCCGbPns1tt91Gd3c3dXV1dHZ28r73vY8333yTD37wg0yaNIlzzz2XL3/5yzQ1NfHGG2/wxBNPMHPmTP7xj39wxx13sGvXrgF7ve8V1NfX97LEGDlyJPX19QO4oiEMBIYoRwOMcDjMN7/5zV63ZSlKJSUl/PznPyeRSLB27VoKCwv5yU9+woQJEwDIz8+nrq6OH/3oR/z3f/83DQ0NtLe3U1JSwtKlS/n+97/PZz7zGTo6OggEAkf9tR1NDNUah3C0cKCa5hAGEEIIA0ApJZ3fBXp3UKmU2i2EOAP4KvA48C9gG2AopSznbzcBy5RSjw7ICzhKEEKYwGbgIqAOWA7cqJRa38/HOQO4Ryl1sfP7lwGUUt/pz+MMYXBjaHs+iKGUktmA6fyulFK2Umq38/sbwP3A+cCTwMXAaCHEROdvTwMfFUKcNgDLP5o4FdiqlNqulEoDfwTmHYHjLAcmCiHGCSF8wA3o93gIxxGGtufHOJRSLwAvAAghAsBE4GdCiDbgLaAFSA7cCo8KRgC5Rds6oN8vFE4GfzvwV8AEfqWUWtffxxnC4MZQ0DzG4WzhhZOBJoE1wBlCiPOBs4A7lVI7B3SR7yEopZYCSwd6HUMYOAwFzWMcudt30EHU2da/DLw8QMs62qgHRuX8PtK5bQhD6HcM1TTfY8hpGh1Pn+1QrXEIRw1DmeZ7FHtmoO9lDNUah3A0MUQ5GsIQhjCEQ8DxtIUbwhCGMITDxlDQHMIQhjCEQ8BQ0BzCEIYwhEPAUNAcwhCGMIRDwFDQHMIQhjCEQ8BQ0BzCEIYwhEPAUNAcwhCGMIRDwP8Hojousck7gOIAAAAASUVORK5CYII=;" vertex="1" parent="1">
          <mxGeometry x="110" y="445" width="145.46" height="135" as="geometry" />
        </mxCell>
        <mxCell id="2vLimYcvGv_lNkFftwUf-210" value="Flatten&amp;nbsp;" style="text;html=1;strokeColor=none;fillColor=none;align=center;verticalAlign=middle;whiteSpace=wrap;rounded=0;" vertex="1" parent="1">
          <mxGeometry x="270" y="530" width="60" height="30" as="geometry" />
        </mxCell>
        <mxCell id="2vLimYcvGv_lNkFftwUf-211" value="" style="endArrow=classic;html=1;rounded=0;" edge="1" parent="1">
          <mxGeometry width="50" height="50" relative="1" as="geometry">
            <mxPoint x="270" y="520" as="sourcePoint" />
            <mxPoint x="330" y="520" as="targetPoint" />
          </mxGeometry>
        </mxCell>
        <mxCell id="2vLimYcvGv_lNkFftwUf-213" value="X" style="text;html=1;align=center;verticalAlign=middle;resizable=0;points=[];autosize=1;strokeColor=none;fillColor=none;" vertex="1" parent="1">
          <mxGeometry x="160" y="590" width="20" height="20" as="geometry" />
        </mxCell>
      </root>
    </mxGraphModel>
  </diagram>
</mxfile>
